<?xml version="1.0" encoding="UTF-8"?>
<svg width="119px" height="38px" viewBox="0 0 119 38" version="1.1" xmlns="http://www.w3.org/2000/svg" xmlns:xlink="http://www.w3.org/1999/xlink">
    <!-- Generator: Sketch 46.2 (44496) - http://www.bohemiancoding.com/sketch -->
    <title>位置</title>
    <desc>Created with Sketch.</desc>
    <defs></defs>
    <g id="Page-1" stroke="none" stroke-width="1" fill="none" fill-rule="evenodd">
        <g id="位置" transform="translate(0.000000, -4.000000)" fill="#FFFFFF">
            <path d="M58.46,8.52 C58.46,12.56 58.36,15.02 58.16,15.9 C57.96,16.74 57.1,17.18 55.6,17.18 L55.48,17.18 L55.08,15.76 C55.38,15.78 55.66,15.8 55.9,15.8 C56.44,15.8 56.78,15.58 56.9,15.14 C57,14.72 57.06,13.14 57.08,10.42 L54.16,11.3 L54.16,18.86 L52.76,18.86 L52.76,11.72 L49.84,12.6 L49.84,20.36 C49.84,20.96 50.18,21.28 50.88,21.28 L56.5,21.28 C56.92,21.28 57.22,21.14 57.38,20.88 C57.6,20.56 57.76,19.58 57.84,17.96 L59.18,18.38 C59.04,20.4 58.78,21.62 58.38,22.06 C58.04,22.44 57.5,22.64 56.76,22.64 L50.44,22.64 C49.1,22.64 48.44,21.96 48.44,20.64 L48.44,13.02 L46.76,13.54 L46.76,12.14 L48.44,11.62 L48.44,6.7 L49.84,6.7 L49.84,11.18 L52.76,10.28 L52.76,4.66 L54.16,4.66 L54.16,9.84 L58.46,8.52 Z M47.02,17.02 L47.02,18.44 C45.18,19.3 43.2,20.02 41.08,20.58 L40.72,19.14 C41.56,18.96 42.4,18.74 43.24,18.5 L43.24,11.38 L40.96,11.38 L40.96,9.98 L43.24,9.98 L43.24,4.82 L44.66,4.82 L44.66,9.98 L46.74,9.98 L46.74,11.38 L44.66,11.38 L44.66,18.02 C45.46,17.72 46.26,17.38 47.02,17.02 Z M68.32,5.46 L78.1,5.46 L78.1,14.7 L73.94,14.7 L73.94,17.06 L78.44,17.06 L78.44,18.42 L73.94,18.42 L73.94,21.02 L79.18,21.02 L79.18,22.4 L67.14,22.4 L67.14,21.02 L72.5,21.02 L72.5,18.42 L67.98,18.42 L67.98,17.06 L72.5,17.06 L72.5,14.7 L68.32,14.7 L68.32,5.46 Z M76.72,13.42 L76.72,10.72 L73.94,10.72 L73.94,13.42 L76.72,13.42 Z M72.5,13.42 L72.5,10.72 L69.7,10.72 L69.7,13.42 L72.5,13.42 Z M69.7,9.46 L72.5,9.46 L72.5,6.74 L69.7,6.74 L69.7,9.46 Z M73.94,6.74 L73.94,9.46 L76.72,9.46 L76.72,6.74 L73.94,6.74 Z M61.26,12.08 L63.44,12.08 L63.44,7.34 L60.98,7.34 L60.98,5.98 L67.36,5.98 L67.36,7.34 L64.92,7.34 L64.92,12.08 L67.12,12.08 L67.12,13.46 L64.92,13.46 L64.92,18 C65.68,17.74 66.4,17.46 67.12,17.14 L67.12,18.54 C65.28,19.3 63.3,19.94 61.18,20.46 L60.82,19.08 C61.7,18.92 62.58,18.72 63.44,18.48 L63.44,13.46 L61.26,13.46 L61.26,12.08 Z M85.38,4.54 L86.72,5.16 C86.2,6.72 85.56,8.18 84.78,9.56 L84.78,23.04 L83.34,23.04 L83.34,11.76 C82.68,12.64 81.96,13.5 81.18,14.32 L80.72,12.78 C82.84,10.38 84.4,7.64 85.38,4.54 Z M86.62,7.88 L92,7.88 C91.72,6.82 91.38,5.84 91.02,4.96 L92.54,4.7 C92.86,5.62 93.16,6.68 93.44,7.88 L98.66,7.88 L98.66,9.26 L86.62,9.26 L86.62,7.88 Z M86.28,20.64 L93.16,20.64 C94.18,17.96 95.06,14.6 95.82,10.56 L97.2,10.92 C96.5,14.58 95.64,17.82 94.64,20.64 L99.18,20.64 L99.18,22.06 L86.28,22.06 L86.28,20.64 Z M89.08,10.78 C89.86,13.36 90.56,16.32 91.18,19.64 L89.84,20 C89.3,16.96 88.6,14.02 87.76,11.18 L89.08,10.78 Z M101.42,10.32 L109.2,10.32 L109.32,9.16 L102.76,9.16 L102.76,5.42 L117.24,5.42 L117.24,9.16 L110.76,9.16 L110.64,10.32 L118.6,10.32 L118.6,11.42 L110.48,11.42 C110.4,11.82 110.34,12.2 110.26,12.56 L116.06,12.56 L116.06,21.38 L118.96,21.38 L118.96,22.54 L101.06,22.54 L101.06,21.38 L103.96,21.38 L103.96,12.56 L108.82,12.56 C108.9,12.18 108.96,11.8 109.04,11.42 L101.42,11.42 L101.42,10.32 Z M105.36,21.38 L114.64,21.38 L114.64,20.06 L105.36,20.06 L105.36,21.38 Z M105.36,19.16 L114.64,19.16 L114.64,17.9 L105.36,17.9 L105.36,19.16 Z M105.36,16.98 L114.64,16.98 L114.64,15.72 L105.36,15.72 L105.36,16.98 Z M105.36,14.82 L114.64,14.82 L114.64,13.56 L105.36,13.56 L105.36,14.82 Z M115.88,8.14 L115.88,6.48 L112.9,6.48 L112.9,8.14 L115.88,8.14 Z M111.58,8.14 L111.58,6.48 L108.42,6.48 L108.42,8.14 L111.58,8.14 Z M107.12,8.14 L107.12,6.48 L104.14,6.48 L104.14,8.14 L107.12,8.14 Z" id="地理位置"></path>
            <path d="M14.9488024,4.00008141 C6.66478818,4.02977031 -0.0282483693,10.7085702 8.96551954e-05,18.9187558 C0.0251890483,26.2286455 7.78130634,34.0625042 13.1995366,39.253248 C14.2444001,40.2538443 15.9037938,40.2482275 16.9413703,39.2404095 C22.3235708,34.0131564 30.025441,26.1267403 29.9999368,18.8168506 C29.9720036,10.606665 23.2332214,3.97320091 14.9488024,4.00008141 L14.9488024,4.00008141 Z M15.0240105,25.9999576 C11.1581243,26.0132743 8.01335915,22.8907036 8.00004242,19.0248175 C7.9867257,15.1585279 11.1101034,12.0133591 14.9759895,12.0000424 C18.8418757,11.9867257 21.9866408,15.1105069 21.9999576,18.9767966 C22.0132743,22.8426827 18.8898966,25.9866408 15.0240105,25.9999576 L15.0240105,25.9999576 Z" id="Shape-Copy-7"></path>
            <path d="M43.1171875,36.4541016 L44.3681641,36.4541016 C45.7695312,36.4541016 46.6376953,37.1650391 46.6376953,38.3066406 C46.6376953,39.3867188 45.7148438,40.1591797 44.4160156,40.1591797 C43.1445312,40.1591797 42.2558594,39.4824219 42.1464844,38.4296875 L40.9570312,38.4296875 C41.0458984,40.1181641 42.4267578,41.2324219 44.4296875,41.2324219 C46.3779297,41.2324219 47.9023438,39.9677734 47.9023438,38.3408203 C47.9023438,36.9941406 47.0888672,36.0644531 45.7490234,35.8935547 L45.7490234,35.7841797 C46.8291016,35.5244141 47.4785156,34.6630859 47.4785156,33.4873047 C47.4785156,32.0517578 46.1044922,30.9033203 44.3818359,30.9033203 C42.5019531,30.9033203 41.2783203,31.9560547 41.1552734,33.6650391 L42.3515625,33.6650391 C42.4541016,32.6054688 43.1992188,31.9765625 44.3339844,31.9765625 C45.46875,31.9765625 46.2275391,32.6464844 46.2275391,33.6513672 C46.2275391,34.6767578 45.4345703,35.4013672 44.3134766,35.4013672 L43.1171875,35.4013672 L43.1171875,36.4541016 Z M53.0292969,41.2255859 C51.3544922,41.2255859 50.1103516,40.234375 49.7958984,38.6484375 L51.0605469,38.6484375 C51.3271484,39.5712891 52.0722656,40.1318359 53.0429688,40.1318359 C54.6494141,40.1318359 55.5585938,38.7099609 55.6269531,36.0849609 L55.5175781,36.0849609 C55.0322266,37.0419922 54.0683594,37.6025391 52.8925781,37.6025391 C51.0126953,37.6025391 49.6523438,36.2148438 49.6523438,34.3007812 C49.6523438,32.3183594 51.0878906,30.9033203 53.1113281,30.9033203 C54.5878906,30.9033203 55.7294922,31.6894531 56.3447266,33.1455078 C56.6660156,33.8974609 56.8232422,34.8066406 56.8232422,35.8935547 C56.8232422,39.2841797 55.4423828,41.2255859 53.0292969,41.2255859 Z M53.1113281,36.5361328 C54.4169922,36.5361328 55.3535156,35.6064453 55.3535156,34.3007812 C55.3535156,32.9814453 54.3896484,31.9833984 53.125,31.9833984 C51.8603516,31.9833984 50.8964844,32.9677734 50.8964844,34.2597656 C50.8964844,35.6064453 51.8056641,36.5361328 53.1113281,36.5361328 Z M60.7744141,35.4423828 C59.4892578,35.4423828 58.5595703,34.4511719 58.5595703,33.2207031 C58.5595703,31.9902344 59.4892578,30.9990234 60.7744141,30.9990234 C62.0595703,30.9990234 62.9960938,31.9902344 62.9960938,33.2207031 C62.9960938,34.4511719 62.0595703,35.4423828 60.7744141,35.4423828 Z M60.7744141,34.5673828 C61.6015625,34.5673828 62.1347656,33.9521484 62.1347656,33.2207031 C62.1347656,32.4755859 61.5947266,31.8740234 60.7744141,31.8740234 C59.9541016,31.8740234 59.4277344,32.4755859 59.4277344,33.2207031 C59.4277344,33.9521484 59.9472656,34.5673828 60.7744141,34.5673828 Z M68.2119141,41.2324219 C70.2558594,41.2324219 71.6572266,39.8652344 71.6572266,37.8623047 C71.6572266,35.9208984 70.3447266,34.5605469 68.4716797,34.5605469 C67.5625,34.5605469 66.8652344,34.8408203 66.3867188,35.4013672 L66.2773438,35.4013672 L66.5576172,32.2363281 L71.0966797,32.2363281 L71.0966797,31.1357422 L65.59375,31.1357422 L65.0537109,36.7275391 L66.2089844,36.7275391 C66.6123047,36.0234375 67.3505859,35.6201172 68.2460938,35.6201172 C69.5380859,35.6201172 70.4267578,36.5429688 70.4267578,37.8964844 C70.4267578,39.25 69.5449219,40.1523438 68.2255859,40.1523438 C67.0634766,40.1523438 66.2158203,39.4414062 66.1064453,38.375 L64.8964844,38.375 C65.0058594,40.0771484 66.3457031,41.2324219 68.2119141,41.2324219 Z M77.1054688,41.2255859 C75.6220703,41.2255859 74.4873047,40.4326172 73.8720703,38.9833984 C73.5507812,38.2314453 73.3935547,37.3222656 73.3935547,36.2353516 C73.3935547,32.8447266 74.7744141,30.9033203 77.1875,30.9033203 C78.8623047,30.9033203 80.1064453,31.8945312 80.4208984,33.4804688 L79.15625,33.4804688 C78.8896484,32.5576172 78.1445312,31.9970703 77.1738281,31.9970703 C75.5673828,31.9970703 74.6582031,33.4189453 74.5898438,36.0439453 L74.6992188,36.0439453 C75.1845703,35.0869141 76.1484375,34.5263672 77.3242188,34.5263672 C79.2041016,34.5263672 80.5644531,35.9140625 80.5644531,37.828125 C80.5644531,39.8105469 79.1289062,41.2255859 77.1054688,41.2255859 Z M77.0917969,40.1455078 C78.3564453,40.1455078 79.3203125,39.1611328 79.3203125,37.8691406 C79.3203125,36.5224609 78.4111328,35.5927734 77.1054688,35.5927734 C75.7998047,35.5927734 74.8632812,36.5224609 74.8632812,37.828125 C74.8632812,39.1474609 75.8271484,40.1455078 77.0917969,40.1455078 Z M83.5175781,34.8203125 L84.5908203,31.1357422 L83.3603516,31.1357422 L82.4238281,34.8203125 L83.5175781,34.8203125 Z M88.0498047,41 L88.0498047,33.3505859 L88.1591797,33.3505859 L93.5117188,41 L94.7080078,41 L94.7080078,31.1357422 L93.4912109,31.1357422 L93.4912109,38.8125 L93.3818359,38.8125 L88.0292969,31.1357422 L86.8330078,31.1357422 L86.8330078,41 L88.0498047,41 Z" id="39°56′N"></path>
        </g>
    </g>
</svg>