<?xml version="1.0" encoding="UTF-8"?>
<svg width="224px" height="185px" viewBox="0 0 224 185" version="1.1" xmlns="http://www.w3.org/2000/svg" xmlns:xlink="http://www.w3.org/1999/xlink">
    <!-- Generator: Sketch 43.1 (39012) - http://www.bohemiancoding.com/sketch -->
    <title>Page 1</title>
    <desc>Created with Sketch.</desc>
    <defs></defs>
    <g id="发动态弹框" stroke="none" stroke-width="1" fill="none" fill-rule="evenodd">
        <g id="Page-1" transform="translate(0.770492, 0.737705)" fill="#FFFFFF">
            <path d="M116.442967,25.6246393 L123.693623,18.3890656 C124.387393,17.6877541 124.387393,16.5566066 123.693623,15.8590656 C122.996082,15.1652951 121.864934,15.1652951 121.171164,15.8590656 L113.532148,23.505623 C114.135426,23.5357869 114.750016,23.927918 115.191164,24.3652951 L116.442967,25.6246393 Z" id="Fill-1"></path>
            <path d="M114.079246,25.4662787 C113.377934,24.7725082 112.258098,24.7725082 111.568098,25.4662787 C111.553016,25.4775902 104.928262,32.1098852 104.928262,32.1098852 L104.928262,17.0543115 C104.928262,16.0702131 104.125148,15.2746393 103.152361,15.2746393 C102.164492,15.2746393 101.365148,16.0702131 101.365148,17.0543115 L101.365148,36.4044754 C101.365148,37.1208689 101.791213,37.7769344 102.45482,38.0484098 C102.681049,38.1389016 102.91859,38.187918 103.152361,38.187918 C103.612361,38.187918 104.06859,37.9993934 104.411705,37.6600492 L112.823672,29.2443115 L121.231869,37.6600492 C121.593836,38.0144754 122.046295,38.187918 122.498754,38.187918 C122.954984,38.187918 123.403672,38.0144754 123.750557,37.6600492 C124.448098,36.9625082 124.448098,35.8351311 123.750557,35.1413607 L114.079246,25.4662787 Z" id="Fill-3"></path>
            <path d="M26.1721148,112.32182 C26.5642459,112.32182 26.8960492,111.997557 27.1675246,111.341492 C27.431459,110.692967 27.5671967,109.886082 27.5671967,108.920836 L27.5671967,92.3231311 L5.93211475,92.3231311 L5.93211475,108.920836 C5.93211475,109.886082 6.06408197,110.692967 6.33178689,111.341492 C6.5994918,111.997557 6.93129508,112.32182 7.32719672,112.32182 L26.1721148,112.32182 Z M5.93211475,86.7918197 L27.5671967,86.7918197 L27.5671967,72.9201803 L5.93211475,72.9201803 L5.93211475,86.7918197 Z M5.93211475,67.3888689 L27.5671967,67.3888689 L27.5671967,61.088377 L5.93211475,61.088377 L5.93211475,67.3888689 Z M0.00113114754,55.5608361 L11.3767049,55.5608361 L11.3767049,52.156082 L17.3076885,52.156082 L17.3076885,55.5608361 L33.4981803,55.5608361 L33.4981803,110.199033 C33.4981803,112.348213 33.196541,114.16559 32.5932623,115.643623 C31.9862131,117.114115 31.2434262,117.856902 30.3573607,117.856902 L3.14195082,117.856902 C2.25211475,117.856902 1.50932787,117.114115 0.90604918,115.643623 C0.302770492,114.16559 0.00113114754,112.348213 0.00113114754,110.199033 L0.00113114754,55.5608361 Z" id="Fill-5"></path>
            <path d="M64.1496393,75.3883443 C64.4512787,75.3883443 64.7001311,75.1508033 64.8961967,74.6644098 C65.0960328,74.1817869 65.1940656,73.5747377 65.1940656,72.8357213 L65.1940656,69.1745738 L61.2501311,69.1745738 L61.2501311,75.3883443 L64.1496393,75.3883443 Z M61.2501311,63.6470328 L65.1940656,63.6470328 L65.1940656,59.0508033 L61.2501311,59.0508033 L61.2501311,63.6470328 Z M55.3191475,117.855393 L55.3191475,108.410311 L47.7178361,108.410311 L47.7178361,102.87523 L55.3191475,102.87523 L55.3191475,93.3471967 L48.1325902,93.3471967 L48.1325902,87.8121148 L55.3191475,87.8121148 L55.3191475,80.9196557 L48.1325902,80.9196557 L48.1325902,75.3883443 L55.3191475,75.3883443 L55.3191475,69.1745738 L47.4011148,69.1745738 L47.4011148,63.6470328 L55.3191475,63.6470328 L55.3191475,59.0508033 L48.1325902,59.0508033 L48.1325902,53.5157213 L55.3191475,53.5157213 L55.3191475,51.9019508 L61.2501311,51.9019508 L61.2501311,53.5157213 L70.6047213,53.5157213 L70.6047213,63.6470328 L71.7886557,63.6470328 L71.7886557,69.1745738 L70.6047213,69.1745738 L70.6047213,73.2617869 C70.6047213,75.4185082 70.295541,77.2321148 69.6809508,78.7101475 C69.0663607,80.1844098 68.3235738,80.9196557 67.4676721,80.9196557 L61.2501311,80.9196557 L61.2501311,87.8121148 L71.0571803,87.8121148 L71.0571803,93.3471967 L61.2501311,93.3471967 L61.2501311,102.87523 L71.4757049,102.87523 L71.4757049,108.410311 L61.2501311,108.410311 L61.2501311,117.855393 L55.3191475,117.855393 Z M40.2107869,117.855393 L40.2107869,79.641459 L37.3150492,79.641459 L40.3502951,66.1129344 L46.3189836,66.1129344 L43.8757049,77.0926066 L45.8627541,77.0926066 L45.8627541,117.855393 L40.2107869,117.855393 Z M37.3150492,63.986377 L40.3502951,52.3242459 L46.3189836,52.3242459 L43.3176721,63.986377 L37.3150492,63.986377 Z" id="Fill-7"></path>
            <path d="M95.3923115,82.5353115 L95.3923115,110.365311 C95.3923115,110.704656 95.4450984,111.002525 95.5469016,111.258918 C95.6524754,111.515311 95.7769016,111.639738 95.9164098,111.639738 L102.756082,111.639738 C102.918213,111.639738 103.042639,111.515311 103.140672,111.258918 C103.231164,111.002525 103.28018,110.704656 103.28018,110.365311 L103.28018,82.5353115 L95.3923115,82.5353115 Z M89.4613279,77.004 L109.211164,77.004 L109.211164,110.365311 C109.211164,112.239246 108.939689,113.837934 108.389197,115.172689 C107.846246,116.507443 107.18641,117.17482 106.421,117.17482 L92.2514918,117.17482 C91.486082,117.17482 90.8262459,116.507443 90.2832951,115.172689 C89.7328033,113.837934 89.4613279,112.239246 89.4613279,110.365311 L89.4613279,77.004 Z M89.3896885,73.346623 L109.279033,73.346623 L109.279033,67.8153115 L89.3896885,67.8153115 L89.3896885,73.346623 Z M103.661,65.2626885 L102.578869,59.301541 C102.394115,58.2797377 102.069852,57.7744918 101.602311,57.7744918 L97.1003443,57.7744918 C96.5875574,57.7744918 96.2557541,58.2797377 96.093623,59.301541 L95.0077213,65.2626885 L89.1106721,65.2626885 L90.6113279,56.6659672 C90.8413279,55.361377 91.2108361,54.2943279 91.708541,53.4723607 C92.2100164,52.6503934 92.7416557,52.2394098 93.295918,52.2394098 L105.369033,52.2394098 C105.930836,52.2394098 106.466246,52.6503934 106.979033,53.4723607 C107.488049,54.2943279 107.861328,55.361377 108.095098,56.6659672 L109.595754,65.2626885 L103.661,65.2626885 Z M75.118377,112.152525 L87.6137869,110.621705 L87.6137869,116.153016 L75.118377,117.600885 L75.118377,112.152525 Z M87.538377,104.751049 L78.7493607,105.942525 C78.1687049,106.055639 77.671,105.885967 77.2600164,105.429738 C76.8565738,104.973508 76.5398525,104.336295 76.3211639,103.510557 C76.1024754,102.692361 75.9855902,101.715803 75.9742787,100.580885 C75.9629672,99.4421967 76.0723115,98.2507213 76.306082,97.0026885 L80.3518197,74.9603934 L77.211,75.0471148 C76.7924754,75.0471148 76.4191967,74.8359672 76.0949344,74.4061311 C75.7706721,73.9838361 75.5105082,73.4182623 75.3106721,72.7094098 C75.1108361,71.9967869 74.9977213,71.2049836 74.9600164,70.326459 C74.926082,69.4441639 74.9901803,68.5543279 75.1523115,67.6456393 L78.0178852,52.0697377 L82.8290328,52.0697377 L80.0765738,67.558918 C79.8880492,68.5807213 80.0162459,69.0897377 80.4573934,69.0897377 L81.4339508,69.0897377 L82.7573934,61.8579344 L88.6582131,61.8579344 L82.0975574,98.6202295 C81.9995246,99.076459 81.9655902,99.4158033 81.9882131,99.6420328 C82.0146066,99.8720328 82.1314918,99.9587541 82.3388689,99.8984262 L87.538377,99.2159672 L87.538377,104.751049 Z" id="Fill-9"></path>
            <path d="M142.61923,61.1754754 L141.77841,53.5176066 L146.246443,53.5176066 L147.087262,61.1754754 L142.61923,61.1754754 Z M141.465459,117.94023 L139.09382,100.663836 L131.34923,107.047279 L131.34923,101.515967 L138.430213,95.641541 L134.79923,69.0067869 L124.29841,69.0067869 L124.29841,84.0699016 L129.599721,82.7087541 L129.599721,88.2400656 L124.29841,89.6012131 L124.29841,110.27859 C124.29841,112.378754 123.99677,114.181049 123.389721,115.685475 C122.782672,117.186131 122.039885,117.94023 121.15759,117.94023 L113.865459,117.94023 L113.865459,112.408918 L117.179721,112.408918 C117.571852,112.408918 117.873492,112.080885 118.065787,111.42859 C118.265623,110.780066 118.363656,109.965639 118.363656,109.007934 L118.363656,91.1320328 L112.922836,92.4931803 L112.922836,86.9618689 L118.363656,85.6007213 L118.363656,69.0067869 L112.922836,69.0067869 L112.922836,63.4717049 L118.363656,63.4717049 L118.363656,58.6228525 L112.922836,58.6228525 L112.922836,53.091541 L129.599721,53.091541 L129.599721,58.6228525 L124.29841,58.6228525 L124.29841,63.4717049 L134.063984,63.4717049 L132.567098,52.4958033 L138.498082,52.4958033 L139.964803,63.4717049 L147.400213,63.4717049 L147.400213,69.0067869 L140.733984,69.0067869 L143.735295,91.3017049 L147.400213,88.2400656 L147.400213,93.771377 L144.429066,96.2372787 L147.362508,117.94023 L141.465459,117.94023 Z" id="Fill-11"></path>
            <path d="M177.385803,112.32182 C177.777934,112.32182 178.109738,111.997557 178.381213,111.341492 C178.645148,110.692967 178.780885,109.886082 178.780885,108.920836 L178.780885,92.3231311 L157.145803,92.3231311 L157.145803,108.920836 C157.145803,109.886082 157.281541,110.692967 157.545475,111.341492 C157.816951,111.997557 158.144984,112.32182 158.540885,112.32182 L177.385803,112.32182 Z M157.145803,86.7918197 L178.780885,86.7918197 L178.780885,72.9201803 L157.145803,72.9201803 L157.145803,86.7918197 Z M157.145803,67.3888689 L178.780885,67.3888689 L178.780885,61.088377 L157.145803,61.088377 L157.145803,67.3888689 Z M151.21482,55.5608361 L162.590393,55.5608361 L162.590393,52.156082 L168.521377,52.156082 L168.521377,55.5608361 L184.711869,55.5608361 L184.711869,110.199033 C184.711869,112.348213 184.41023,114.16559 183.806951,115.643623 C183.199902,117.114115 182.457115,117.856902 181.571049,117.856902 L154.355639,117.856902 C153.469574,117.856902 152.726787,117.114115 152.119738,115.643623 C151.516459,114.16559 151.21482,112.348213 151.21482,110.199033 L151.21482,55.5608361 Z" id="Fill-13"></path>
            <path d="M208.798525,77.3429672 L216.407377,77.3429672 L216.407377,63.1319836 L208.798525,63.1319836 L208.798525,77.3429672 Z M215.362951,112.238869 C215.66459,112.238869 215.917213,111.982475 216.109508,111.469689 C216.309344,110.960672 216.407377,110.364934 216.407377,109.682475 L216.407377,82.8780492 L208.768361,82.8780492 L208.768361,112.238869 L215.362951,112.238869 Z M202.871311,112.238869 L202.871311,82.8780492 L195.228525,82.8780492 L195.228525,109.682475 C195.228525,110.364934 195.330328,110.960672 195.522623,111.469689 C195.722459,111.982475 195.971311,112.238869 196.276721,112.238869 L202.871311,112.238869 Z M195.228525,77.3429672 L202.867541,77.3429672 L202.867541,63.1319836 L195.228525,63.1319836 L195.228525,77.3429672 Z M189.297541,57.6006721 L202.871311,57.6006721 L202.871311,52.3257541 L208.802295,52.3257541 L208.802295,57.6006721 L222.345902,57.6006721 L222.345902,110.112311 C222.345902,112.208705 222.040492,114.00723 221.433443,115.515426 C220.826393,117.019852 220.083607,117.77018 219.205082,117.77018 L192.438361,117.77018 C191.556066,117.77018 190.805738,117.019852 190.202459,115.515426 C189.59541,114.00723 189.297541,112.208705 189.297541,110.112311 L189.297541,57.6006721 Z" id="Fill-15"></path>
            <path d="M85.8997213,37.8180328 C86.0467705,38.2252459 86.4313607,38.4778689 86.8423443,38.4778689 C86.955459,38.4778689 87.0723443,38.4590164 87.185459,38.417541 C87.7057869,38.2290164 87.9734918,37.6521311 87.7849672,37.1318033 L74.5090656,0.663606557 C74.320541,0.139508197 73.7436557,-0.128196721 73.2233279,0.0603278689 C72.703,0.252622951 72.4352951,0.825737705 72.6238197,1.34983607 L85.8997213,37.8180328 Z" id="Fill-17"></path>
            <path d="M73.8778852,43.1110492 C74.0626393,43.431541 74.4019836,43.6125246 74.7450984,43.6125246 C74.9147705,43.6125246 75.0882131,43.5710492 75.2465738,43.4767869 C75.7291967,43.201541 75.8913279,42.5869508 75.616082,42.1043279 L68.241,29.3299016 C67.9619836,28.8510492 67.3511639,28.6851475 66.868541,28.9641639 C66.3896885,29.2394098 66.2237869,29.854 66.4990328,30.3328525 L73.8778852,43.1110492 Z" id="Fill-18"></path>
            <path d="M57.032082,40.7876721 C57.3148689,41.0289836 57.691918,41.093082 58.0237213,40.9761967 C58.182082,40.9234098 58.3329016,40.825377 58.4497869,40.6858689 C58.8155246,40.2673443 58.7665082,39.6339016 58.3517541,39.2719344 L47.1948689,29.6119344 C46.7763443,29.2499672 46.1429016,29.2952131 45.7809344,29.7137377 C45.4151967,30.1322623 45.4642131,30.7694754 45.8789672,31.1314426 L57.032082,40.7876721 Z" id="Fill-19"></path>
            <path d="M63.1112459,24.4629508 C63.296,24.7834426 63.6353443,24.9644262 63.978459,24.9644262 C64.1481311,24.9644262 64.3215738,24.9229508 64.4799344,24.832459 C64.9625574,24.5534426 65.1246885,23.9388525 64.8494426,23.46 L62.0894426,18.6827869 C61.8141967,18.2039344 61.1996066,18.0380328 60.7207541,18.3170492 C60.2381311,18.5922951 60.076,19.2068852 60.3550164,19.6857377 L63.1112459,24.4629508 Z" id="Fill-20"></path>
            <path d="M152.719246,38.7052295 C152.877607,38.7957213 153.051049,38.8409672 153.220721,38.8409672 C153.567607,38.8409672 153.90318,38.6599836 154.087934,38.3357213 L159.920885,28.2383443 C160.196131,27.7557213 160.034,27.1411311 159.551377,26.8658852 C159.072525,26.5868689 158.457934,26.7527705 158.182689,27.231623 L152.349738,37.3327705 C152.074492,37.811623 152.236623,38.4262131 152.719246,38.7052295" id="Fill-21"></path>
            <path d="M160.838246,24.6431803 C160.996607,24.7336721 161.170049,24.778918 161.339721,24.778918 C161.686607,24.778918 162.02218,24.5979344 162.206934,24.2736721 L172.888738,5.77186885 C173.171525,5.29301639 173.005623,4.67842623 172.523,4.39940984 C172.044148,4.12416393 171.429557,4.29006557 171.150541,4.76891803 L160.468738,23.2707213 C160.193492,23.7533443 160.355623,24.3641639 160.838246,24.6431803" id="Fill-22"></path>
            <path d="M138.469426,37.1992951 C138.582541,37.2407705 138.699426,37.259623 138.812541,37.259623 C139.219754,37.259623 139.608115,37.007 139.755164,36.5997869 L150.591557,6.8317541 C150.780082,6.31142623 150.508607,5.73454098 149.992049,5.54601639 C149.471721,5.35372131 148.894836,5.62142623 148.706311,6.14552459 L137.869918,35.9135574 C137.677623,36.4338852 137.945328,37.0107705 138.469426,37.1992951" id="Fill-23"></path>
            <path d="M168.66277,43.8474262 C168.741951,43.9152951 168.832443,43.9643115 168.926705,43.9982459 C169.262279,44.1189016 169.646869,44.0397213 169.880639,43.7682459 L187.05523,24.0825082 C187.356869,23.7393934 187.296541,23.2152951 186.927033,22.9136557 C186.553754,22.6120164 186.007033,22.6497213 185.709164,22.9928361 L168.530803,42.6785738 C168.232934,43.025459 168.289492,43.5457869 168.66277,43.8474262" id="Fill-24"></path>
            <path d="M109.60518,131.332639 C109.054689,131.332639 108.598459,131.898213 108.598459,132.591984 L108.598459,182.185262 C108.598459,182.879033 109.054689,183.444607 109.60518,183.444607 C110.159443,183.444607 110.611902,182.879033 110.611902,182.185262 L110.611902,132.591984 C110.611902,131.898213 110.159443,131.332639 109.60518,131.332639" id="Fill-25"></path>
            <path d="M122.069295,131.358656 C121.522574,131.494393 121.160607,132.222098 121.254869,132.991279 L124.293885,157.194066 C124.376836,157.880295 124.802902,158.359148 125.281754,158.359148 C125.338311,158.359148 125.398639,158.355377 125.455197,158.336525 C126.001918,158.204557 126.367656,157.469311 126.269623,156.703902 L123.234377,132.501115 C123.136344,131.735705 122.619787,131.211607 122.069295,131.358656" id="Fill-26"></path>
            <path d="M136.551,130.975574 C136.358705,130.270492 135.78559,129.908525 135.261492,130.164918 C134.601656,130.48918 134.473459,131.201803 134.661984,131.903115 L144.306902,167.715246 C144.453951,168.269508 144.838541,168.608852 145.249525,168.608852 C145.362639,168.608852 145.475754,168.582459 145.588869,168.525902 C146.112967,168.273279 146.380672,167.492787 146.192148,166.787705 L136.551,130.975574 Z" id="Fill-27"></path>
            <path d="M150.447525,137.202164 C150.168508,136.719541 149.557689,136.55741 149.075066,136.832656 C148.596213,137.111672 148.430311,137.726262 148.709328,138.205115 L153.354574,146.255115 C153.539328,146.579377 153.878672,146.760361 154.225557,146.760361 C154.39523,146.760361 154.568672,146.715115 154.727033,146.624623 C155.209656,146.345607 155.371787,145.734787 155.09277,145.252164 L150.447525,137.202164 Z" id="Fill-28"></path>
            <path d="M158.190984,150.61418 C157.915738,150.135328 157.301148,149.969426 156.818525,150.244672 C156.339672,150.523689 156.17377,151.138279 156.452787,151.617131 L157.561311,153.536311 C157.746066,153.860574 158.08541,154.041557 158.428525,154.041557 C158.598197,154.041557 158.771639,153.996311 158.93,153.90582 C159.408852,153.626803 159.574754,153.015984 159.299508,152.533361 L158.190984,150.61418 Z" id="Fill-29"></path>
            <path d="M157.218951,124.414164 C156.819279,123.916459 156.106656,123.856131 155.631574,124.270885 C155.152721,124.685639 155.096164,125.428426 155.492066,125.922361 L170.178131,144.16777 C170.40059,144.446787 170.721082,144.590066 171.041574,144.590066 C171.294197,144.590066 171.554361,144.499574 171.761738,144.31482 C172.24059,143.896295 172.304689,143.157279 171.905016,142.659574 L157.218951,124.414164 Z" id="Fill-30"></path>
            <path d="M55.3934262,131.72477 L50.4126066,137.663295 C50.0544098,138.08559 50.1109672,138.719033 50.5370328,139.07723 C50.7255574,139.23182 50.9517869,139.311 51.1817869,139.311 C51.4645738,139.311 51.7511311,139.190344 51.9509672,138.952803 L56.9317869,133.014279 C57.2899836,132.588213 57.2334262,131.958541 56.8073607,131.600344 C56.3850656,131.245918 55.751623,131.298705 55.3934262,131.72477" id="Fill-31"></path>
            <path d="M70.932,135.749393 C70.449377,135.470377 69.8347869,135.636279 69.559541,136.118902 L58.8739672,154.624475 C58.5987213,155.107098 58.757082,155.717918 59.2397049,155.996934 C59.3980656,156.087426 59.5715082,156.132672 59.7411803,156.132672 C60.0880656,156.132672 60.4274098,155.951689 60.6121639,155.627426 L71.2977377,137.121852 C71.5767541,136.63923 71.4108525,136.02841 70.932,135.749393" id="Fill-32"></path>
            <path d="M85.5388852,135.044311 C85.0185574,134.855787 84.4416721,135.123492 84.2531475,135.64382 L76.8856066,155.88382 C76.697082,156.404148 76.9685574,156.981033 77.4851148,157.169557 C77.602,157.211033 77.7151148,157.229885 77.8282295,157.229885 C78.2392131,157.229885 78.6238033,156.977262 78.774623,156.570049 L86.1383934,136.330049 C86.3306885,135.809721 86.0629836,135.232836 85.5388852,135.044311" id="Fill-33"></path>
            <path d="M75.5862951,162.396967 C75.0659672,162.204672 74.489082,162.476148 74.2967869,162.996475 L71.5933443,170.416803 C71.4085902,170.940902 71.6762951,171.514016 72.2003934,171.706311 C72.3097377,171.744016 72.426623,171.766639 72.5397377,171.766639 C72.9507213,171.766639 73.3353115,171.510246 73.4823607,171.106803 L76.1858033,163.682705 C76.3743279,163.162377 76.106623,162.585492 75.5862951,162.396967" id="Fill-34"></path>
            <path d="M97.0713115,140.491918 C96.5208197,140.390115 96.0042623,140.759623 95.9062295,141.306344 L92.7163934,159.419787 C92.6183607,159.966508 92.9840984,160.483066 93.5308197,160.581098 C93.587377,160.59241 93.6477049,160.59618 93.7042623,160.59618 C94.1831148,160.59618 94.6091803,160.253066 94.6921311,159.766672 L97.8857377,141.657 C97.98,141.110279 97.6180328,140.58618 97.0713115,140.491918" id="Fill-35"></path>
        </g>
    </g>
</svg>