<?xml version="1.0" encoding="UTF-8"?>
<svg width="192px" height="177px" viewBox="0 0 192 177" version="1.1" xmlns="http://www.w3.org/2000/svg" xmlns:xlink="http://www.w3.org/1999/xlink">
    <!-- Generator: Sketch 43.1 (39012) - http://www.bohemiancoding.com/sketch -->
    <title>Group 17</title>
    <desc>Created with Sketch.</desc>
    <defs></defs>
    <g id="发动态弹框" stroke="none" stroke-width="1" fill="none" fill-rule="evenodd">
        <g id="Group-17" fill="#FFFFFF">
            <path d="M29.2102115,63.3092 C29.8444423,62.9249308 30.4450962,62.4063538 31.04575,61.7273538 C31.9299423,60.7312385 32.7693654,59.8768923 33.5304423,59.1941615 C34.2728654,58.5263538 34.9630577,57.9779308 35.5749038,57.5638154 C36.13825,57.1795462 36.6419038,56.8960077 37.0672115,56.7132 C37.2835962,56.6199308 37.4589423,56.5565077 37.59325,56.5154692 C37.6827885,56.8027385 37.7424808,57.0788154 37.78725,57.3735462 C37.8805192,57.9704692 37.9178269,58.6308154 37.8917115,59.3359308 C37.8655962,60.1343154 37.7909808,60.9401615 37.6678654,61.7273538 C37.6492115,61.8355462 37.6119038,62.0183538 37.59325,62.1414692 L28.1655962,63.8240462 C28.5162885,63.6860077 28.8669808,63.5181231 29.2102115,63.3092 M72.6326346,54.7508154 L73.0169038,52.8555846 L73.3675962,51.1207769 C73.5615962,50.1022769 73.62875,49.1770462 73.5765192,48.3264308 C73.5727885,48.2518154 73.5615962,48.2033154 73.5578654,48.1324308 L89.4472115,52.8854308 L72.4013269,55.9260077 C72.4796731,55.5380077 72.5542885,55.1350846 72.6326346,54.7508154 M121.317503,124.928477 C121.487979,125.444251 121.687013,125.946084 121.914604,126.434188 C122.504065,127.706381 123.276335,128.792035 124.227681,129.69115 C125.179027,130.590265 126.305719,131.250612 127.604027,131.67965 C128.898604,132.104958 130.353604,132.201958 131.969027,131.974381 C133.009912,131.828881 134.017219,131.560265 134.998412,131.175996 C135.975873,130.791727 136.908565,130.332842 137.792758,129.799342 C138.67695,129.262112 139.512642,128.676381 140.296104,128.038419 C141.079565,127.400458 141.807065,126.758765 142.474873,126.120804 C144.01195,124.628496 145.422181,122.968304 146.716758,121.129035 L142.885258,118.204112 C142.303258,118.942804 141.575758,119.741188 140.710219,120.595535 C139.844681,121.453612 138.908258,122.263188 137.90095,123.027996 C136.901104,123.789073 135.852758,124.456881 134.759642,125.023958 C133.666527,125.594765 132.599527,125.952919 131.558642,126.10215 C131.230335,126.15065 130.91695,126.158112 130.622219,126.131996 C130.327488,126.10215 130.036488,126.023804 129.75295,125.889496 C129.469412,125.76265 129.174681,125.557458 128.883681,125.292573 C128.58895,125.020227 128.279296,124.676996 127.954719,124.255419 C129.405988,123.636112 130.72295,122.871304 131.913065,121.960996 C133.09945,121.050688 134.095565,120.062035 134.901412,118.998765 C135.703527,117.935496 136.363873,116.700612 136.88245,115.301573 C137.401027,113.898804 137.583835,112.671381 137.434604,111.623035 C137.296565,110.638112 136.998104,109.772573 136.539219,109.026419 C136.080335,108.283996 135.502065,107.67215 134.804412,107.198342 C134.114219,106.724535 133.327027,106.388765 132.450296,106.194765 C131.577296,106.004496 130.652065,105.97465 129.685796,106.112688 C128.495681,106.280573 127.447335,106.646188 126.529565,107.202073 C125.619258,107.754227 124.817142,108.444419 124.138142,109.265188 C123.455412,110.085958 122.892065,111.003727 122.433181,112.014765 C121.981758,113.029535 121.634796,114.07415 121.392296,115.156073 C121.153527,116.234265 120.940873,117.461688 120.769258,118.838342 C120.755355,118.952033 120.742451,119.064291 120.730552,119.175119 C120.522204,119.311582 120.307902,119.445237 120.087646,119.575915 C119.304185,120.038531 118.524454,120.3258 117.744723,120.437723 C117.464915,120.475031 117.1963,120.463838 116.931415,120.392954 C116.666531,120.322069 116.412838,120.1803 116.181531,119.956454 C115.942762,119.736338 115.7413,119.422954 115.558492,119.027492 C115.379415,118.6283 115.245108,118.117185 115.155569,117.494146 C115.107069,117.128531 115.084685,116.669646 115.092146,116.113762 C115.103338,115.557877 115.140646,114.841569 115.211531,113.964838 C115.278685,113.091838 115.319723,112.382992 115.330915,111.842031 C115.345838,111.301069 115.330915,110.886954 115.286146,110.592223 C115.233915,110.211685 115.118262,109.879646 114.935454,109.596108 C114.752646,109.312569 114.5288,109.084992 114.267646,108.909646 C114.006492,108.7343 113.711762,108.614915 113.383454,108.544031 C113.055146,108.476877 112.726838,108.465685 112.398531,108.510454 C111.447185,108.648492 110.641338,109.021569 109.992185,109.637146 C109.335569,110.248992 108.775954,110.969031 108.305877,111.793531 C107.843262,112.618031 107.432877,113.629069 107.070992,114.826646 C106.712838,116.027954 106.410646,116.997954 106.160685,117.740377 L105.877146,117.777685 C105.712992,116.900954 105.597338,115.867531 105.515262,114.677415 C105.436915,113.491031 105.351108,112.576992 105.261569,111.9353 C105.183223,111.398069 105.108608,110.976492 105.037723,110.670569 C104.970569,110.360915 104.862377,110.133338 104.716877,109.987838 C104.571377,109.838608 104.373646,109.760262 104.112492,109.7528 C103.855069,109.749069 103.500646,109.775185 103.056685,109.838608 C102.657492,109.894569 102.329185,109.965454 102.0643,110.0438 C101.799415,110.125877 101.590492,110.245262 101.430069,110.401954 C101.265915,110.554915 101.131608,110.756377 101.019685,110.998877 C100.915223,111.245108 100.818223,111.569685 100.736146,111.968877 C100.590646,112.573262 100.471262,113.326877 100.3668,114.244646 C100.2698,115.158685 100.161608,116.3003 100.034762,117.665762 C100.022144,117.806083 100.009997,117.945504 99.9983197,118.084023 C99.5648053,117.685606 99.121128,117.280613 98.6678077,116.868869 C97.3993462,115.723523 96.0786538,114.813215 94.702,114.134215 C93.3253462,113.455215 91.8852692,112.962754 90.3743077,112.656831 C88.8670769,112.350908 87.2889615,112.3136 85.6474231,112.544908 C83.7260769,112.820985 82.0472308,113.414177 80.6071538,114.335677 C79.1670769,115.253446 78.0030769,116.398792 77.1076923,117.767985 C76.2160385,119.140908 75.6041923,120.692908 75.2684231,122.427715 C74.9398126,124.103268 74.9222818,126.040966 75.2158307,128.234043 C74.1346338,129.176344 73.0782005,130.148912 72.0465308,131.151746 C70.8414923,132.315746 69.6364538,133.479746 68.4388769,134.640015 C67.2301077,135.796554 65.9691077,136.863554 64.6409538,137.837285 C63.3165308,138.811015 61.8913769,139.646708 60.3766846,140.348092 C58.8582615,141.045746 57.1868769,141.527015 55.3513385,141.788169 C53.8814154,141.993362 52.5271462,141.959785 51.2848,141.679977 C50.0424538,141.400169 48.9530692,140.859208 48.0091846,140.060823 C47.0653,139.258708 46.2781077,138.206631 45.6401462,136.900862 C45.0059154,135.591362 44.5582231,134.013246 44.2970692,132.166515 C44.1179923,130.912977 44.0508385,129.517669 44.0844154,127.991785 C44.1254538,126.462169 44.2634923,124.872862 44.5097231,123.220131 C44.7484923,121.563669 45.0917231,119.892285 45.5319538,118.198515 C45.9721846,116.508477 46.5019538,114.866938 47.1212615,113.2739 C47.7443,111.680862 48.4494154,110.1699 49.2440692,108.741015 C50.0387231,107.3084 50.9154538,106.043669 51.8705308,104.950554 C52.8256077,103.853708 53.8627615,102.9434 54.9633385,102.227092 C56.0751077,101.510785 57.2540308,101.063092 58.4963769,100.884015 C59.5521846,100.734785 60.4699538,100.768362 61.2534154,100.984746 C62.0331462,101.201131 62.6934923,101.5369 63.2344538,101.999515 C63.7754154,102.462131 64.2007231,103.025477 64.5103769,103.697015 C64.8163,104.368554 65.0252231,105.096054 65.1371462,105.875785 C65.3460692,107.345708 65.2453385,108.729823 64.8386846,110.031862 C64.4320308,111.3339 63.8351077,112.494169 63.0516462,113.505208 C62.2681846,114.516246 61.3429538,115.344477 60.2796846,115.9899 C59.2164154,116.631592 58.1307615,117.034515 57.0227231,117.191208 C56.6086077,117.2509 56.2616462,117.269554 55.9855692,117.243438 C55.7132231,117.224785 55.4707231,117.191208 55.2692615,117.150169 C55.0715308,117.1054 54.8887231,117.068092 54.7245692,117.027054 C54.5566846,116.989746 54.3738769,116.986015 54.1649538,117.015862 C53.8179923,117.064362 53.5568385,117.187477 53.3889538,117.388938 C53.2136077,117.5904 53.0904923,117.840362 53.0270692,118.127631 C52.9599154,118.422362 52.9338,118.739477 52.9487231,119.082708 C52.9636462,119.422208 52.9934923,119.750515 53.0382615,120.060169 C53.0681077,120.269092 53.0979538,120.466823 53.1352615,120.653362 C53.1688385,120.843631 53.1986846,121.007785 53.2173385,121.145823 C53.3292615,121.944208 53.8068,122.496362 54.6424923,122.809746 C55.4856462,123.126862 56.6906846,123.1679 58.2613385,122.947785 C59.4589154,122.776169 60.6191846,122.380708 61.7496077,121.765131 C62.8763,121.142092 63.9433,120.369823 64.9394154,119.444592 C65.9392615,118.519362 66.8458385,117.456092 67.6554154,116.265977 C68.4649923,115.072131 69.1402615,113.826054 69.6774923,112.524015 C70.2184538,111.221977 70.5989923,109.886362 70.8153769,108.524631 C71.0392231,107.155438 71.0616077,105.834746 70.8788,104.555092 C70.6101846,102.6524 70.0505692,101.044438 69.2036846,99.7386692 C68.3530692,98.4254385 67.3532231,97.3882846 66.2041462,96.6160154 C65.0550692,95.8437462 63.8052615,95.3251692 62.4659154,95.0677462 C61.1191077,94.8065923 59.8245308,94.7655538 58.5784538,94.9409 C56.6608385,95.2132462 54.8514154,95.7915154 53.1576462,96.6719769 C51.4638769,97.5524385 49.8932231,98.6604769 48.4382231,99.9923615 C46.9906846,101.327977 45.6588,102.838938 44.4537615,104.532708 C43.2449923,106.222746 42.1742615,108.020977 41.2341077,109.931131 C40.2939538,111.845015 39.4955692,113.814862 38.8314923,115.848131 C38.1636846,117.877669 37.6413769,119.896015 37.2645692,121.895708 C36.8877615,123.8954 36.6564538,125.839131 36.5706462,127.7269 C36.4848385,129.610938 36.5557231,131.356938 36.7833,132.961169 C37.1116077,135.263054 37.7794154,137.411977 38.7941846,139.400477 C39.8089538,141.388977 41.0998,143.079015 42.6555308,144.466862 C44.2112615,145.858438 45.9908385,146.8844 48.0017231,147.548477 C50.0088769,148.212554 52.1801846,148.380438 54.5193769,148.0484 C56.6309923,147.749938 58.5299538,147.332092 60.2349154,146.802323 C61.9361462,146.272554 63.4694923,145.664438 64.8461462,144.977977 C66.2228,144.291515 67.4651462,143.541631 68.5657231,142.735785 C69.6700308,141.926208 70.6736077,141.097977 71.5876462,140.254823 C72.5054154,139.407938 73.3373769,138.520015 74.0947231,137.579862 C74.8483385,136.639708 75.5870308,135.744323 76.2958769,134.893708 C76.5426581,134.59757 76.7894392,134.308668 77.0362204,134.027001 C77.416222,134.708685 77.8539085,135.334598 78.3463077,135.903254 C79.1857308,136.876985 80.2005,137.623138 81.3756923,138.134254 C82.5508846,138.645369 83.9014231,138.7946 85.4235769,138.578215 C86.4756538,138.428985 87.4456538,138.108138 88.3298462,137.611946 C89.2140385,137.112023 90.0012308,136.500177 90.7026154,135.765215 C91.4002692,135.030254 92.0009231,134.194562 92.4896538,133.258138 C92.9821154,132.325446 93.3775769,131.344254 93.6648462,130.314562 C93.9483846,129.284869 94.1311923,128.236523 94.2058077,127.165792 C94.2878846,126.095062 94.2505769,125.050446 94.1088077,124.028215 C93.9073462,122.629177 93.6014231,121.386831 93.1985,120.304908 C92.7881154,119.226715 92.2620769,118.219408 91.6166538,117.286715 L91.7808077,116.973331 C92.4672692,117.297908 93.2805769,117.708292 94.2319231,118.200754 C95.187,118.689485 96.1681923,119.316254 97.1829615,120.069869 C98.0999354,120.751722 98.9685243,121.373093 99.7887283,121.939428 C99.7638077,122.987064 99.7562803,124.016963 99.7661462,125.026569 C99.7810692,126.171915 99.8183769,127.257569 99.8743385,128.2798 C99.9303,129.305762 100.016108,130.197415 100.120569,130.958492 C100.217569,131.652415 100.351877,132.316492 100.519762,132.954454 C100.691377,133.592415 100.930146,134.1483 101.2398,134.625838 C101.545723,135.103377 101.933723,135.465262 102.407531,135.704031 C102.885069,135.946531 103.474531,136.017415 104.187108,135.916685 C104.500492,135.871915 104.776569,135.778646 105.015338,135.625685 C105.261569,135.476454 105.477954,135.248877 105.664492,134.939223 C105.8473,134.629569 106.018915,134.237838 106.171877,133.767762 C106.324838,133.293954 106.4778,132.704492 106.6233,131.995646 L109.432569,118.3858 L109.846685,118.326108 C110.141415,119.396838 110.473454,120.448915 110.850262,121.478608 C111.227069,122.512031 111.704608,123.426069 112.2978,124.213262 C112.883531,125.004185 113.614762,125.608569 114.487762,126.022685 C115.357031,126.440531 116.442685,126.552454 117.740992,126.369646 C118.464762,126.265185 119.162415,126.056262 119.833954,125.742877 C120.346623,125.499431 120.841702,125.227401 121.317503,124.928477 Z M125.91828,67.082827 C125.762203,67.1854081 125.602634,67.2865389 125.439435,67.3861846 C124.663435,67.8599923 123.887435,68.1584538 123.111435,68.2778385 C122.831627,68.3226077 122.563012,68.3114154 122.294396,68.2479923 C122.025781,68.1808385 121.775819,68.0390692 121.540781,67.8226846 C121.302012,67.6025692 121.093088,67.2929154 120.90655,66.8974538 C120.720012,66.5019923 120.578242,65.9946077 120.481242,65.3715692 C120.425281,65.0096846 120.399165,64.5470692 120.399165,63.9911846 C120.402896,63.4353 120.432742,62.7189923 120.488704,61.8422615 C120.548396,60.9655308 120.581973,60.2566846 120.585704,59.7194538 C120.589435,59.1784923 120.570781,58.7606462 120.522281,58.4659154 C120.466319,58.0891077 120.343204,57.7570692 120.156665,57.4772615 C119.973858,57.1974538 119.74255,56.9698769 119.481396,56.7982615 C119.216512,56.6303769 118.91805,56.5109923 118.593473,56.4475692 C118.265165,56.3841462 117.933127,56.3766846 117.604819,56.4251846 C116.657204,56.5744154 115.855088,56.9586846 115.209665,57.5817231 C114.564242,58.2047615 114.015819,58.9322615 113.560665,59.7604923 C113.105512,60.5924538 112.706319,61.6109538 112.366819,62.8122615 C112.019858,64.0173 111.728858,64.9910308 111.490088,65.7334538 L111.20655,65.7782231 C111.031204,64.9014923 110.900627,63.8718 110.807358,62.6854154 C110.710358,61.4953 110.613358,60.5849923 110.516358,59.9433 C110.43055,59.4098 110.352204,58.9844923 110.277588,58.6823 C110.202973,58.3726462 110.09105,58.1488 109.94555,58.0033 C109.796319,57.8578 109.598588,57.7831846 109.341165,57.7794538 C109.083742,57.7757231 108.729319,57.8055692 108.281627,57.8764538 C107.882435,57.9398769 107.557858,58.0144923 107.292973,58.0965692 C107.031819,58.1823769 106.819165,58.3017615 106.662473,58.4584538 C106.498319,58.6188769 106.367742,58.8203385 106.263281,59.0665692 C106.16255,59.3128 106.069281,59.6336462 105.990935,60.0365692 C105.856627,60.6409538 105.744704,61.3983 105.655165,62.3198 C105.565627,63.2338385 105.472358,64.3754538 105.364165,65.7446462 C105.259704,67.1138385 105.200012,68.3972231 105.181358,69.5948 C105.165278,70.627112 105.168603,71.637247 105.186554,72.6299841 C104.575424,73.7599389 103.960363,74.7929178 103.333508,75.7315423 C103.035046,76.1792346 102.706738,76.6231962 102.356046,77.0522346 C102.009085,77.4850038 101.658392,77.8767346 101.296508,78.2311577 C100.934623,78.5855808 100.572738,78.8840423 100.199662,79.1265423 C99.8340462,79.3653115 99.4684308,79.5145423 99.1028154,79.5705038 C98.6178154,79.6451192 98.2708538,79.4735038 98.0507385,79.0519269 C97.8343538,78.6266192 97.6702,78.0185038 97.5433538,77.2275808 C97.3978538,76.30235 97.3642769,75.1420808 97.4426231,73.7467731 C97.5135077,72.3477346 97.5843923,71.1053885 97.6440846,70.0160038 C97.7000462,68.9266192 97.7373538,67.86335 97.7522769,66.8336577 C97.7709308,65.7965038 97.7149692,64.8675423 97.5843923,64.0430423 C97.5023154,63.5020808 97.3866615,63.0805038 97.2448923,62.7820423 C97.0993923,62.4835808 96.9277769,62.2597346 96.7300462,62.1142346 C96.5285846,61.9650038 96.3084692,61.8829269 96.0808923,61.8642731 C95.8421231,61.84935 95.5958923,61.8605423 95.3384692,61.89785 C95.1444692,61.9314269 94.9504692,61.9612731 94.7490077,62.0023115 C94.5550077,62.04335 94.3572769,62.0806577 94.1670077,62.1105038 C93.9394308,62.1440808 93.7193154,62.1627346 93.4954692,62.1739269 C93.2753538,62.1813885 93.0515077,62.1552731 92.8313923,62.1030423 C92.6075462,62.0470808 92.4135462,61.9351577 92.2456615,61.7635423 C92.0740462,61.5919269 91.9024308,61.4203115 91.7233538,61.2412346 C91.5442769,61.0621577 91.3278923,60.9166577 91.0816615,60.7898115 C90.8279692,60.6704269 90.5071231,60.63685 90.1042,60.7002731 C88.9066231,60.8868115 87.7687385,61.3270423 86.6905462,62.0135038 C85.6160846,62.6999654 84.6237,63.5543115 83.7171231,64.5765423 C82.8068154,65.6025038 82.0047,66.7553115 81.3070462,68.0424269 C80.6056615,69.3332731 79.9975462,70.8293115 79.4827,72.5305423 C78.9641231,74.2355038 78.6283538,75.7912346 78.4716615,77.2089269 C78.3987331,77.8830703 78.3656636,78.5444927 78.3728573,79.1915769 C78.3242961,79.1096334 78.2793067,79.0351271 78.2377423,78.9679846 C78.0250885,78.5986385 77.8833192,78.3710615 77.8161654,78.2703308 C76.8275115,79.6544462 75.9172038,80.8520231 75.0927038,81.8667923 C74.2756654,82.8815615 73.5183192,83.7209846 72.8206654,84.3925231 C72.1304731,85.0603308 71.5037038,85.5677154 70.9403577,85.9146769 C70.3770115,86.2653692 69.8770885,86.4742923 69.4443192,86.5414462 C68.3027038,86.7205231 67.4371654,86.5078692 66.8402423,85.9034846 C66.2358577,85.2991 65.8478577,84.3999846 65.6613192,83.1986769 C65.4486654,81.8108308 65.3665885,80.1469077 65.4374731,78.2069077 C65.5493962,74.3455615 65.6837038,71.9616 65.8366654,71.0438308 C66.4037423,70.8684846 66.97455,70.6931385 67.5453577,70.5177923 C68.1198962,70.3424462 68.7093577,70.1484462 69.30255,69.9432538 C69.8248577,69.8052154 70.2128577,69.7044846 70.46655,69.6373308 C70.7202423,69.5701769 70.8918577,69.5216769 70.9963192,69.4992923 C71.09705,69.4731769 71.1604731,69.4545231 71.1865885,69.4470615 C71.2089731,69.4396 71.2723962,69.4246769 71.3619346,69.4022923 C71.4552038,69.3799077 71.6044346,69.3388692 71.8058962,69.2866385 C72.0073577,69.2344077 72.3431269,69.1448692 72.8206654,69.0217538 C73.0519731,68.9695231 73.2982038,68.8911769 73.5593577,68.7904462 C73.8242423,68.6897154 74.0630115,68.5516769 74.2868577,68.3726 C74.5069731,68.1897923 74.6823192,67.9734077 74.8091654,67.7122538 C74.9322808,67.4548308 74.9733192,67.1526385 74.9210885,66.7982154 C74.8688577,66.4699077 74.78305,66.1789077 74.6711269,65.9289462 C74.5592038,65.6752538 74.39505,65.4700615 74.1712038,65.3059077 C73.95855,65.1454846 73.6750115,65.0372923 73.32805,64.9813308 C72.9810885,64.9291 72.5371269,64.9440231 71.9998962,65.0298308 C71.8543962,65.0522154 71.7014346,65.0820615 71.5410115,65.1231 C71.3805885,65.1566769 71.2052423,65.1977154 71.0187038,65.2424846 C70.61205,65.3357538 70.0076654,65.4775231 69.1980885,65.6640615 C68.3959731,65.8506 67.5826654,66.0819077 66.7544346,66.3579846 C66.9596269,64.9626769 67.1872038,63.5599077 67.4371654,62.1422154 C67.6871269,60.7207923 67.9370885,59.3329462 68.1982423,57.9786769 C68.4556654,56.6206769 68.7130885,55.2962538 68.9742423,54.0091385 C69.2353962,52.7220231 69.4853577,51.5132538 69.7129346,50.3791 C69.83605,49.7187538 69.8882808,49.1106385 69.8509731,48.5584846 C69.8173962,48.0026 69.7726269,47.5176 69.7092038,47.1072154 C69.6383192,46.6557923 69.5002808,46.2752538 69.30255,45.9618692 C69.1048192,45.6484846 68.8548577,45.4022538 68.5526654,45.2306385 C68.2467423,45.0552923 67.9109731,44.9433692 67.5416269,44.8948692 C67.1722808,44.8463692 66.7992038,44.8501 66.4186654,44.9097923 C65.5008962,45.0552923 64.7510115,45.4731385 64.1652808,46.1670615 C63.57955,46.8572538 63.1542423,47.7265231 62.8930885,48.7748692 C62.1096269,51.9422923 61.4418192,55.1507538 60.8933962,58.4077154 C60.3449731,61.6684077 59.8189346,64.7985231 59.3152808,67.7943308 C57.0954731,68.2644077 54.8905885,68.7307538 52.6931654,69.1971 C50.4957423,69.6597154 48.5221654,70.0924846 46.7724346,70.4879462 C47.0186654,68.8389462 47.2425115,67.2272538 47.4365115,65.6491385 C47.6342423,64.0710231 47.7872038,62.5861769 47.8953962,61.1983308 C48.0073192,59.8142154 48.0632808,58.5420231 48.0744731,57.3929462 C48.0819346,56.2401385 48.0297038,55.2776 47.9065885,54.5016 C47.6528962,52.8414077 47.18655,51.4722154 46.5150115,50.3902923 C45.8434731,49.3121 45.0338962,48.4764077 44.08255,47.8794846 C43.1312038,47.2825615 42.0791269,46.9094846 40.9225885,46.7527923 C39.7697808,46.5961 38.5796654,46.6110231 37.3708962,46.7975615 C36.5613192,46.9244077 35.6883192,47.1669077 34.7518962,47.5250615 C33.8192038,47.8832154 32.8939731,48.3309077 31.9799346,48.8718692 C31.0658962,49.4128308 30.1854346,50.0321385 29.3534731,50.7372538 C28.51405,51.4461 27.7977423,52.1922538 27.1970885,52.9831769 C26.5889731,53.7778308 26.1412808,54.6097923 25.8428192,55.4902538 C25.5480885,56.3669846 25.4697423,57.2549077 25.6115115,58.1502923 C25.7122423,58.8255615 25.8316269,59.3851769 25.9771269,59.8328692 C26.1188962,60.2768308 26.2532038,60.4894846 26.3912423,60.4708308 C26.6635885,60.4260615 26.9583192,60.3141385 27.2717038,60.1201385 C27.5813577,59.9336 27.9096654,59.6426 28.2566269,59.2546 C29.2378192,58.1428308 30.16305,57.2026769 31.03605,56.4192154 C31.9053192,55.6394846 32.7186269,54.9903308 33.4834346,54.4717538 C34.2445115,53.9569077 34.9533577,53.5614462 35.6025115,53.2816385 C36.2479346,53.0055615 36.8336654,52.8264846 37.3447808,52.7481385 C37.9790115,52.6474077 38.5311654,52.6772538 38.9937808,52.8339462 C39.4526654,52.9943692 39.8518577,53.2480615 40.1876269,53.6062154 C40.5233962,53.9606385 40.7957423,54.4120615 41.0046654,54.9642154 C41.2098577,55.5126385 41.3702808,56.1244846 41.4747423,56.7997538 C41.6053192,57.6279846 41.6538192,58.5159077 41.6239731,59.4560615 C41.5903962,60.3999462 41.5045885,61.3475615 41.3516269,62.3101 C41.1800115,63.3621769 40.8890115,64.9104462 40.4786269,66.9549077 C40.1391269,68.5292923 39.7884346,70.1671 39.4153577,71.8720615 L36.9269346,72.2563308 C35.9942423,72.4018308 35.1249731,72.5473308 34.3153962,72.6891 C33.5058192,72.8308692 32.6962423,72.9838308 31.8903962,73.1442538 C31.1628962,72.5697154 30.5808962,72.1593308 30.1406654,71.9168308 C29.6929731,71.6780615 29.3049731,71.5847923 28.9766654,71.6332923 C28.4468962,71.7191 28.2155885,72.0362154 28.3013962,72.5883692 C28.3424346,72.8420615 28.4058577,73.0920231 28.4842038,73.3382538 C28.5700115,73.5844846 28.6707423,73.8680231 28.7901269,74.1814077 C29.3310885,75.1551385 29.9429346,75.9311385 30.6256654,76.5094077 C31.3083962,77.0914077 32.0508192,77.5092538 32.8492038,77.7778692 C33.6513192,78.0390231 34.5019346,78.1845231 35.40105,78.1994462 C36.2927038,78.2181 37.2179346,78.1546769 38.16555,78.0054462 C37.8111269,80.5199846 37.34105,83.1874846 36.7553192,86.0079462 C36.1322808,88.7127538 35.7293577,91.5071 35.5390885,94.3872538 C35.5055115,94.6521385 35.5167038,94.9170231 35.5577423,95.1893692 C35.6211654,95.5960231 35.7666654,95.9504462 36.0017038,96.2526385 C36.2330115,96.5548308 36.5240115,96.7973308 36.8672423,96.9876 C37.2179346,97.1741385 37.6022038,97.2972538 38.0163192,97.3644077 C38.4341654,97.4241 38.8482808,97.4241 39.2661269,97.3606769 C39.9040885,97.2599462 40.5756269,96.8047923 41.2807423,95.9877538 C41.7172423,95.5027538 42.3552038,94.0328308 43.1946269,91.5891769 C43.35505,90.9027154 43.5378577,90.0110615 43.7505115,88.9216769 C43.9631654,87.8322923 44.1907423,86.6309846 44.4369731,85.3177538 C44.6832038,84.0045231 44.9294346,82.5532538 45.1719346,80.9676769 C45.4144346,79.3783692 45.6681269,77.8039846 45.9292808,76.2407923 C48.0185115,75.7110231 50.1114731,75.1663308 52.2118962,74.6179077 C54.3123192,74.0694846 56.5097423,73.4837538 58.7929731,72.8644462 C58.6512038,74.2299077 58.5467423,75.6625231 58.4683962,77.1548308 C58.39005,78.6471385 58.3303577,79.9044077 58.2893192,80.9303692 C58.24455,81.9563308 58.2333577,82.8666385 58.2520115,83.6612923 C58.2706654,84.4596769 58.3191654,85.1125615 58.4012423,85.6274077 C58.6101654,86.9928692 58.9981654,88.1755231 59.5577808,89.1791 C60.1211269,90.1789462 60.7963962,90.9959846 61.59105,91.6227538 C62.3819731,92.2457923 63.2736269,92.6785615 64.2622808,92.9173308 C65.2509346,93.1523692 66.2880885,93.1896769 67.3700115,93.0180615 C68.3213577,92.8725615 69.3361269,92.5442538 70.41805,92.0368692 C71.4962423,91.5332154 72.60055,90.8579462 73.7347038,90.0110615 C74.8725885,89.1679077 76.0142038,88.1606 77.1670115,86.9928692 C77.9855264,86.1664333 78.7872232,85.2615135 79.5734245,84.2807548 C80.0768411,85.1379124 80.6808274,85.8386207 81.3816615,86.3791577 C82.0830462,86.9201192 82.8553154,87.3006577 83.6947385,87.5207731 C84.5341615,87.7371577 85.3661231,87.7819269 86.1943538,87.6550808 C86.9778154,87.5319654 87.7426231,87.2820038 88.4850462,86.9051962 C89.2312,86.5246577 89.9288538,86.0769654 90.5929308,85.56585 C91.2495462,85.0510038 91.8464692,84.49885 92.3799692,83.9093885 C92.9134692,83.3199269 93.3462385,82.75285 93.6894692,82.2081577 C94.4654692,83.5064654 95.2899692,84.4578115 96.1704308,85.0659269 C97.0471615,85.6740423 98.0619308,85.8904269 99.2110077,85.71135 C100.154892,85.5621192 101.072662,85.17785 101.945662,84.5585423 C102.822392,83.9392346 103.624508,83.2266577 104.348277,82.4170808 C104.919532,81.7747886 105.439126,81.1184068 105.903331,80.4460724 C105.950391,80.6415511 106.000699,80.8347189 106.054358,81.0258769 C106.233435,81.6601077 106.479665,82.2159923 106.789319,82.6860692 C107.102704,83.1598769 107.498165,83.5143 107.979435,83.7493385 C108.456973,83.9843769 109.050165,84.0478 109.759012,83.9358769 C110.068665,83.8873769 110.344742,83.7866462 110.587242,83.6336846 C110.829742,83.4844538 111.038665,83.2494154 111.221473,82.9397615 C111.404281,82.6301077 111.568435,82.2346462 111.713935,81.7608385 C111.863165,81.2870308 112.004935,80.6938385 112.142973,79.9849923 L114.769435,66.3415692 L115.187281,66.2744154 C115.493204,67.3414154 115.840165,68.3860308 116.228165,69.4157231 C116.616165,70.4416846 117.112358,71.3482615 117.713012,72.1279923 C118.309935,72.9114538 119.048627,73.5046462 119.925358,73.9075692 C120.802088,74.3104923 121.887742,74.4112231 123.182319,74.2134923 C123.906088,74.0978385 124.603742,73.8814538 125.267819,73.5568769 C125.399321,73.4918648 125.529506,73.4252435 125.658403,73.3569261 C125.829271,74.2857389 126.101612,75.1699251 126.478081,76.0094846 C126.895927,76.9533692 127.436888,77.7704077 128.100965,78.4606 C128.768773,79.1507923 129.548504,79.6693692 130.440158,80.0051385 C131.328081,80.3446385 132.339119,80.4267154 133.462081,80.2513692 C134.256735,80.1319846 135.029004,79.8745615 135.778888,79.4865615 C136.525042,79.0985615 137.248812,78.6210231 137.953927,78.0614077 C138.651581,77.5017923 139.319388,76.8712923 139.946158,76.1624462 C140.569196,75.4536 141.151196,74.7186385 141.692158,73.9612923 C142.281619,74.9574077 142.91585,75.7334077 143.583658,76.2855615 C144.262658,76.8414462 144.911812,77.2406385 145.538581,77.4906 C146.169081,77.7405615 146.732427,77.8823308 147.236081,77.9159077 C147.739735,77.9532154 148.112812,77.9494846 148.362773,77.9121769 C148.780619,77.8450231 149.232042,77.6957923 149.713312,77.4607538 C150.19085,77.2257154 150.683312,76.9459077 151.183235,76.6138692 C151.671965,76.2818308 152.175619,75.9162154 152.679273,75.5058308 C153.182927,75.0991769 153.660465,74.6925231 154.108158,74.2858692 C155.178888,73.3084077 156.245888,72.2227538 157.312888,71.0251769 L155.697465,65.7461385 C154.802081,66.7982154 153.932812,67.7421 153.089658,68.5889846 C152.724042,68.9471385 152.336042,69.3052923 151.944312,69.6597154 C151.545119,70.0178692 151.149658,70.3424462 150.750465,70.6371769 C150.355004,70.9281769 149.974465,71.1706769 149.60885,71.3609462 C149.239504,71.5549462 148.888812,71.6743308 148.560504,71.7265615 C148.228465,71.7750615 147.930004,71.7153692 147.66885,71.5437538 C147.407696,71.3684077 147.18385,71.1147154 146.997312,70.7752154 C146.803312,70.4394462 146.642888,70.0477154 146.516042,69.6037538 C146.385465,69.1597923 146.281004,68.6822538 146.206388,68.1748692 C146.142965,67.7756769 146.101927,67.3541 146.090735,66.9213308 C146.075812,66.4811 146.079542,66.0520615 146.094465,65.6304846 C146.109388,65.2089077 146.139235,64.8134462 146.176542,64.4515615 C146.21385,64.0859462 146.254888,63.7762923 146.307119,63.5188692 C146.545888,62.3399462 147.172658,60.0679077 148.198619,56.7064846 C148.866427,54.5090615 149.392465,52.3153692 149.765542,50.1179462 C150.138619,47.9242538 150.522888,45.7007154 150.903427,43.4547923 C151.287696,41.2051385 151.313812,38.8435615 150.974312,36.3551385 C150.884773,35.7022538 150.791504,35.0680231 150.698235,34.4524462 C150.545273,33.4675231 150.317696,32.5236385 150.015504,31.6207923 C149.717042,30.7179462 149.336504,29.9456769 148.873888,29.3002538 C148.411273,28.6548308 147.86285,28.1661 147.224888,27.8303308 C146.590658,27.4945615 145.866888,27.3901 145.057312,27.5169462 C143.945542,27.6885615 142.923312,28.1996769 141.983158,29.0391 C141.050465,29.8859846 140.214773,30.9828308 139.479812,32.3371 C138.752312,33.6839077 138.129273,35.2508308 137.610696,37.0266769 C137.092119,38.8062538 136.745158,40.7201385 136.56235,42.7646 C136.379542,44.8090615 136.207927,46.7192154 136.047504,48.4950615 C135.890812,50.2709077 135.961696,52.2855231 136.256427,54.5351769 C134.96185,54.8634846 133.775465,55.3596769 132.697273,56.0312154 C131.61535,56.7027538 130.600581,57.6018692 129.652965,58.7397538 C128.70535,59.8739077 127.992773,61.0789462 127.511504,62.3586 C127.030235,63.6345231 126.601196,64.8544846 126.224388,66.0147538 C126.110711,66.3694279 126.008464,66.7254874 125.91828,67.082827 Z M190.976365,37.7459692 C191.162904,38.1899308 191.28975,38.6637385 191.28975,39.1636615 L191.28975,78.3367385 C191.28975,78.8814308 191.14425,79.3813538 190.935327,79.8514308 C190.871904,79.9857385 190.793558,80.0976615 190.715212,80.2245077 C190.51375,80.5640077 190.267519,80.8587385 189.969058,81.1161615 C189.894442,81.1795846 189.868327,81.2728538 189.789981,81.3325462 C189.730288,81.3735846 189.659404,81.3885077 189.599712,81.4295462 C189.44675,81.5302769 189.286327,81.6011615 189.118442,81.6795077 C188.898327,81.7802385 188.678212,81.8697769 188.443173,81.9257385 C188.364827,81.9481231 188.301404,81.9966231 188.215596,82.0115462 L129.25825,92.5323154 L152.575558,97.1248923 C152.680019,97.1472769 152.754635,97.2069692 152.855365,97.2330846 C153.064288,97.2927769 153.262019,97.3748538 153.45975,97.4718538 C153.661212,97.5688538 153.855212,97.6770462 154.034288,97.8076231 C154.112635,97.8673154 154.209635,97.8897 154.280519,97.9531231 C154.355135,98.0128154 154.38125,98.1060846 154.444673,98.1695077 C154.690904,98.4120077 154.888635,98.6768923 155.052788,98.9753538 C155.131135,99.1133923 155.216942,99.2327769 155.280365,99.3782769 C155.433327,99.7588154 155.515404,100.158008 155.541519,100.583315 C155.54525,100.6542 155.586288,100.713892 155.586288,100.788508 L155.586288,139.961585 C155.586288,141.800854 154.246942,143.364046 152.430058,143.647585 L83.2765192,154.403392 L76.6693269,159.410085 L86.0634038,170.878469 C87.0893654,172.132008 87.1900962,173.907854 86.3133654,175.265854 C85.6119808,176.351508 84.4218654,176.974546 83.1757885,176.974546 C82.8586731,176.974546 82.5340962,176.933508 82.21325,176.8477 L29.9600962,162.872238 C28.32975,162.435738 27.1918654,160.958354 27.1918654,159.268315 L27.1918654,158.772123 L27.1918654,135.824162 L27.1918654,122.408315 L3.69921154,115.648162 C2.09871154,115.189277 0.998134615,113.726815 0.998134615,112.062892 L0.998134615,110.966046 L0.998134615,71.7929692 C0.998134615,71.2743923 1.13244231,70.7893923 1.32644231,70.3342385 C1.38613462,70.1999308 1.46821154,70.0880077 1.54282692,69.9611615 C1.72563462,69.6477769 1.93455769,69.3717 2.19944231,69.1217385 C2.26286538,69.0620462 2.29271154,68.9725077 2.36359615,68.9128154 C2.43821154,68.8493923 2.53521154,68.8270077 2.61728846,68.7673154 C2.78890385,68.6479308 2.97171154,68.5472 3.16944231,68.4576615 C3.37090385,68.3606615 3.57609615,68.2823154 3.79621154,68.2263538 C3.89321154,68.2002385 3.97155769,68.1405462 4.07601923,68.1218923 L26.1062115,64.1896615 C25.2220192,64.1262385 23.2670962,63.6673538 22.4276731,60.9737385 C22.2262115,60.3507 22.0620577,59.6157385 21.9240192,58.7240846 C21.6889808,57.2355077 21.8232885,55.7469308 22.3120192,54.2882 C22.7410577,53.0309308 23.38275,51.8296231 24.2221731,50.7327769 C24.9795192,49.7254692 25.9010192,48.7703923 26.9456346,47.8899308 C27.9380192,47.0505077 28.9938269,46.3006231 30.0832115,45.6589308 C31.1725962,45.0135077 32.2992885,44.4688154 33.42225,44.0397769 C34.6011731,43.5883538 35.7390577,43.2787 36.7985962,43.1108154 C37.6454808,42.9802385 38.4923654,42.9130846 39.3280577,42.9130846 C40.0257115,42.9130846 40.7308269,42.9615846 41.4210192,43.0548538 C43.0961346,43.2787 44.6593269,43.8383154 46.0620962,44.7187769 C47.48725,45.6104308 48.7072115,46.8565077 49.6809423,48.4197 C50.6173654,49.9232 51.2590577,51.7736615 51.5948269,53.9263154 C51.7477885,54.9075077 51.8186731,56.0491231 51.8074808,57.4220462 C51.8000192,58.1047769 51.7739038,58.8472 51.7328654,59.6157385 L57.0678654,58.6643923 L57.2170962,57.7913923 C57.7729808,54.4598154 58.4669038,51.1245077 59.27275,47.8712769 C59.6085192,46.5244692 60.19425,45.3679308 60.9254808,44.3531615 L60.5001731,44.2263154 C59.0004038,43.7786231 57.9408654,42.4430077 57.8438654,40.8798154 C57.7468654,39.3203538 58.6385192,37.8653538 60.0674038,37.2348538 L82.84375,27.2438538 L68.77875,6.56046923 C67.8908269,5.25096923 67.9244038,3.53108462 68.8570962,2.25516154 C69.5696731,1.28143077 70.6963654,0.733007692 71.8678269,0.733007692 C72.22225,0.733007692 72.5841346,0.781507692 72.9385577,0.8897 L188.633442,35.5895846 C188.667019,35.6007769 188.696865,35.6268923 188.734173,35.6380846 C188.890865,35.6940462 189.028904,35.7835846 189.178135,35.8582 C189.405712,35.9701231 189.633288,36.0783154 189.83475,36.2350077 C189.868327,36.2611231 189.916827,36.2723154 189.957865,36.3058923 C190.021288,36.3581231 190.047404,36.4439308 190.110827,36.5036231 C190.383173,36.7647769 190.61075,37.0595077 190.793558,37.3915462 C190.856981,37.5109308 190.924135,37.6191231 190.976365,37.7459692 Z M111.123354,32.7362923 L118.301354,25.5769462 C118.987815,24.8830231 118.987815,23.7637923 118.301354,23.0736 C117.607431,22.3871385 116.4882,22.3871385 115.801738,23.0736 L108.246931,30.6396 C108.840123,30.6694462 109.448238,31.0574462 109.884738,31.4902154 L111.123354,32.7362923 Z M108.784162,32.5777346 C108.093969,31.8950038 106.9822,31.8950038 106.3032,32.5777346 C106.288277,32.5926577 99.7295846,39.1550808 99.7295846,39.1550808 L99.7295846,24.2543885 C99.7295846,23.2806577 98.9386615,22.4934654 97.9723923,22.4934654 C96.9949308,22.4934654 96.2077385,23.2806577 96.2077385,24.2543885 L96.2077385,43.4006962 C96.2077385,44.1095423 96.6293154,44.7586962 97.2822,45.0310423 C97.5060462,45.1205808 97.7448154,45.16535 97.9723923,45.16535 C98.4275462,45.16535 98.8789692,44.9825423 99.2222,44.6430423 L107.545546,36.3196962 L115.865162,44.6430423 C116.223315,44.9974654 116.667277,45.16535 117.1187,45.16535 C117.566392,45.16535 118.014085,44.9974654 118.357315,44.6430423 C119.047508,43.9565808 119.047508,42.8410808 118.357315,42.1508885 L108.784162,32.5777346 Z" id="Combined-Shape"></path>
            <path d="M126.749681,120.103073 C127.37645,120.017265 128.036796,119.763573 128.726988,119.345727 C129.424642,118.927881 130.051412,118.427958 130.618488,117.849688 C131.181835,117.267688 131.707873,116.517804 132.196604,115.603765 C132.689065,114.689727 132.894258,113.962227 132.819642,113.417535 C132.71145,112.656458 132.476412,112.052073 132.121988,111.60065 C131.767565,111.152958 131.379565,110.955227 130.961719,111.014919 C130.215565,111.119381 129.596258,111.346958 129.103796,111.693919 C128.615065,112.040881 128.223335,112.451265 127.924873,112.936265 C127.630142,113.417535 127.413758,113.947304 127.27945,114.529304 C127.137681,115.107573 126.980988,115.827612 126.809373,116.678227 C126.641488,117.532573 126.570604,118.222765 126.615373,118.752535 C126.652681,119.282304 126.69745,119.733727 126.749681,120.103073" id="Fill-34"></path>
            <path d="M85.7257692,133.452138 C86.3152308,133.370062 86.845,132.989523 87.3150769,132.314254 C87.7851538,131.638985 88.1582308,130.814485 88.4455,129.851946 C88.7327692,128.881946 88.9118462,127.7366 88.9752692,126.412177 C89.0498846,125.087754 89.0125769,123.923754 88.8670769,122.916446 C88.7551538,122.121792 88.591,121.394292 88.3708846,120.726485 C88.1507692,120.058677 87.8858846,119.4916 87.5725,119.025254 C87.2591154,118.558908 86.8897692,118.204485 86.4681923,117.961985 C86.0466154,117.723215 85.5653462,117.641138 85.0318462,117.719485 C84.3192692,117.820215 83.6887692,118.219408 83.1366154,118.913331 C82.5807308,119.610985 82.1293077,120.465331 81.7786154,121.476369 C81.4316538,122.487408 81.1928846,123.584254 81.0809615,124.763177 C80.9690385,125.945831 81.0063462,127.255331 81.2115385,128.691677 C81.316,129.415446 81.4801538,130.094446 81.7151923,130.713754 C81.9390385,131.333062 82.2337692,131.8591 82.5993846,132.2956 C82.9612692,132.728369 83.4015,133.052946 83.9275385,133.273062 C84.4535769,133.485715 85.0505,133.549138 85.7257692,133.452138 L85.7257692,133.452138 Z" id="Fill-28"></path>
            <path d="M91.5185346,65.5752692 C90.8134192,65.6834615 90.1456115,65.967 89.5300346,66.4258846 C88.9107269,66.8810385 88.3473808,67.4518462 87.8474577,68.1457692 C87.3438038,68.8359615 86.9035731,69.6082308 86.5193038,70.4551154 C86.1387654,71.3057308 85.7955346,72.3279615 85.4858808,73.5367308 C85.1799577,74.7417692 84.9896885,75.7863846 84.9262654,76.6743077 C84.8628423,77.5585 84.8852269,78.3792692 85.0046115,79.1328846 C85.0680346,79.5768462 85.1724962,80.0058846 85.2956115,80.4162692 C85.4187269,80.8229231 85.5866115,81.1810769 85.7955346,81.487 C86.0007269,81.7929231 86.2506885,82.0242308 86.5416885,82.1921154 C86.7543423,82.3077692 86.9931115,82.3674615 87.2617269,82.3674615 C87.3661885,82.3674615 87.4669192,82.3637308 87.5751115,82.3450769 C88.2130731,82.2443462 88.7503038,81.8787308 89.1830731,81.2407692 C89.6158423,80.6028077 89.9628038,79.8641154 90.2202269,79.0209615 C90.4813808,78.1815385 90.6641885,77.3234615 90.7649192,76.4541923 C90.8693808,75.5849231 90.91415,74.8648846 90.8954962,74.2940769 L91.5185346,65.5752692" id="Fill-10"></path>
            <path d="M143.490762,58.9244269 C144.095146,56.4733115 144.624915,54.0445808 145.080069,51.6382346 C145.262877,50.6085423 145.438223,49.5452731 145.602377,48.4372346 C145.770262,47.3291962 145.930685,46.23235 146.091108,45.1392346 C146.255262,44.04985 146.367185,42.9791192 146.438069,41.9233115 C146.505223,40.8675038 146.508954,39.87885 146.456723,38.9498885 C146.374646,37.7224654 146.281377,36.7524654 146.169454,36.04735 C146.027685,35.1109269 145.841146,34.4766962 145.6173,34.1409269 C145.4233,33.8461962 145.191992,33.7006962 144.927108,33.7006962 C144.886069,33.7006962 144.848762,33.7044269 144.807723,33.7118885 C144.244377,33.7976962 143.792954,34.2267346 143.442262,34.9952731 C143.099031,35.7638115 142.867723,36.72635 142.763262,37.8716962 C142.655069,39.0207731 142.539415,40.26685 142.420031,41.6136577 C142.293185,42.9604654 142.252146,44.2662346 142.296915,45.5346962 C142.334223,46.7994269 142.390185,47.9373115 142.457338,48.94835 C142.520762,49.9593885 142.569262,50.6794269 142.599108,51.1047346 C142.651338,51.9740038 142.722223,52.8096962 142.793108,53.6155423 C142.871454,54.4176577 142.9498,55.1488885 143.035608,55.8092346 C143.117685,56.4695808 143.199762,57.0441192 143.274377,57.53285 C143.352723,58.0253115 143.412415,58.3983885 143.449723,58.6632731 L143.490762,58.9244269" id="Fill-16"></path>
            <path d="M134.196296,74.1332808 C134.464912,74.1332808 134.763373,74.1071654 135.099142,74.0549346 C135.412527,74.0064346 135.707258,73.8907808 135.987065,73.7079731 C136.270604,73.5214346 136.528027,73.2975885 136.770527,73.0327038 C137.016758,72.7678192 137.236873,72.4730885 137.445796,72.1522423 C137.650988,71.8276654 137.837527,71.4993577 137.99795,71.1598577 C138.367296,70.3801269 138.684412,69.5145885 138.945565,68.5632423 C138.852296,68.3282038 138.751565,67.9476654 138.632181,67.4253577 C138.516527,66.8993192 138.363565,66.0934731 138.173296,65.0078192 C137.994219,63.9221654 137.837527,63.0305115 137.70695,62.3365885 C137.580104,61.6426654 137.468181,61.0084346 137.374912,60.4376269 C137.27045,59.8630885 137.188373,59.3967423 137.113758,59.0311269 C137.042873,58.6878962 137.001835,58.5162808 136.983181,58.5162808 L136.983181,58.5162808 C135.927373,59.2549731 135.028258,60.1466269 134.278373,61.1987038 C133.532219,62.2507808 132.980065,63.5714731 132.618181,65.1607808 C132.252565,66.7500885 131.998873,68.1118192 131.857104,69.2385115 C131.715335,70.3652038 131.707873,71.36505 131.842181,72.23805 C131.88695,72.5066654 131.965296,72.77155 132.092142,73.0289731 C132.207796,73.2863962 132.390604,73.5102423 132.625642,73.69305 C132.871873,73.8758577 133.188988,74.0064346 133.591912,74.08105 C133.774719,74.1183577 133.97245,74.1332808 134.196296,74.1332808" id="Fill-20"></path>
            <path d="M146.842485,36.5304846 L146.861138,36.5304846 L146.842485,36.5304846 Z" id="Fill-22"></path>
            <path d="M50.3961308,115.153835 C50.4632846,114.978488 50.5267077,114.803142 50.5975923,114.627796 C51.1609385,113.19145 51.8026308,111.814796 52.5040154,110.550065 C53.1680923,109.35995 53.8993231,108.300412 54.6827846,107.401296 C55.4028231,106.573065 56.1825538,105.886604 56.9995923,105.356835 C57.6487462,104.935258 58.3128231,104.677835 59.0216692,104.577104 C59.2679,104.543527 59.4992077,104.521142 59.7230538,104.521142 C59.9916692,104.521142 60.1595538,104.554719 60.2565538,104.580835 C60.5065154,104.647988 60.6967846,104.737527 60.8199,104.841988 C60.9430154,104.94645 61.0400154,105.080758 61.1220923,105.256104 C61.2750538,105.591873 61.3795154,105.972412 61.4429385,106.397719 C61.5735154,107.32295 61.5175538,108.14745 61.2787846,108.915988 C61.0027077,109.803912 60.6147077,110.557527 60.1073231,111.217873 C59.5999385,111.870758 59.0254,112.389335 58.3464,112.799719 C57.7121692,113.183988 57.1077846,113.411565 56.4996692,113.497373 C56.3989385,113.512296 56.3131308,113.523488 56.2347846,113.523488 C56.1937462,113.519758 56.1154,113.516027 56.0519769,113.501104 L55.5968231,113.400373 C55.1715154,113.303373 54.8021692,113.266065 54.4253615,113.266065 C54.1754,113.266065 53.9142462,113.284719 53.6381692,113.322027 C52.0675154,113.542142 51.0975154,114.329335 50.5640154,114.952373 C50.5043231,115.015796 50.4520923,115.08295 50.3961308,115.153835" id="Fill-26"></path>
            <path d="M84.9568577,128.468204 C84.9382038,128.371204 84.91955,128.270473 84.9046269,128.166012 C84.7442038,127.039319 84.7106269,126.013358 84.7927038,125.117973 C84.8598577,124.450165 84.9755115,123.812204 85.1396654,123.219012 C85.1545885,123.293627 85.1657808,123.368242 85.1769731,123.442858 C85.2814346,124.203935 85.3112808,125.136627 85.2515885,126.214819 C85.2068192,127.084088 85.1098192,127.837704 84.9568577,128.468204" id="Fill-30"></path>
        </g>
    </g>
</svg>