<?xml version="1.0" encoding="UTF-8"?>
<svg width="212px" height="191px" viewBox="0 0 212 191" version="1.1" xmlns="http://www.w3.org/2000/svg" xmlns:xlink="http://www.w3.org/1999/xlink">
    <!-- Generator: Sketch 43.1 (39012) - http://www.bohemiancoding.com/sketch -->
    <title>Page 1 Copy</title>
    <desc>Created with Sketch.</desc>
    <defs></defs>
    <g id="发动态弹框" stroke="none" stroke-width="1" fill="none" fill-rule="evenodd">
        <g id="Page-1-Copy" fill="#FFFFFF">
            <path d="M95.2011475,178.402885 L102.451803,171.167311 C103.149344,170.466 103.149344,169.331082 102.451803,168.637311 C101.754262,167.93977 100.623115,167.93977 99.9255738,168.637311 L92.2903279,176.283869 C92.8936066,176.314033 93.5081967,176.706164 93.9455738,177.13977 L95.2011475,178.402885 Z" id="Fill-1"></path>
            <path d="M92.835541,178.242639 C92.138,177.548869 91.0143934,177.548869 90.3281639,178.242639 C90.313082,178.253951 83.6845574,184.886246 83.6845574,184.886246 L83.6845574,169.830672 C83.6845574,168.846574 82.8852131,168.051 81.9086557,168.051 C80.9207869,168.051 80.1252131,168.846574 80.1252131,169.830672 L80.1252131,189.180836 C80.1252131,189.89723 80.5512787,190.553295 81.2111148,190.82477 C81.4373443,190.915262 81.6786557,190.964279 81.9086557,190.964279 C82.3686557,190.964279 82.8248852,190.775754 83.1717705,190.43641 L91.5837377,182.020672 L99.9919344,190.43641 C100.353902,190.790836 100.806361,190.964279 101.25882,190.964279 C101.711279,190.964279 102.163738,190.790836 102.510623,190.43641 C103.208164,189.738869 103.208164,188.611492 102.510623,187.917721 L92.835541,178.242639 Z" id="Fill-3"></path>
            <polygon id="Fill-6" points="148.731951 100.860836 152.25359 99.058541 149.776377 94.221 150.982934 93.5988689 154.021951 99.5562459 157.54359 97.7614918 154.508344 91.8041148 155.910967 91.0914918 159.511787 98.1498525 163.029656 96.3550984 159.432607 89.2967377 182.952934 77.2914918 186.553754 84.3498525 190.079164 82.5513279 186.474574 75.4891967 187.880967 74.7803443 190.919984 80.7301803 194.434082 78.9391967 191.398836 72.9818197 192.609164 72.355918 195.082607 77.216082 198.600475 75.4175574 196.123262 70.5687049 194.332279 67.0546066 191.855066 62.2057541 188.333426 63.9967377 190.810639 68.8531311 189.611623 69.4601803 186.568836 63.5028033 183.047197 65.2937869 186.086213 71.2549344 184.672279 71.9826393 181.071459 64.9129672 177.557361 66.7039508 181.165721 73.773623 157.634082 85.7713279 154.040803 78.7091967 150.515393 80.5077213 154.112443 87.5698525 152.71359 88.2900164 149.667033 82.3288689 146.145393 84.1273934 149.18818 90.0847705 147.977852 90.6993607 145.500639 85.8467377 141.986541 87.6414918 146.262279 96.0119836"></polygon>
            <polygon id="Fill-8" points="179.692967 15.0527377 180.805262 25.0784754 189.673459 29.8481475 180.496082 33.991918 178.71641 43.904541 171.925754 36.4615902 161.937721 37.8227377 166.922311 29.0714262 162.541 19.999623 172.412148 22.031918"></polygon>
            <polygon id="Fill-10" points="128.275902 0.769737705 131.812623 8.00154098 139.76082 9.19678689 133.980656 14.7808852 135.304098 22.7177705 128.200492 18.9472787 121.051639 22.6574426 122.450492 14.7394098 116.715574 9.09498361 124.678852 7.96760656"></polygon>
            <polygon id="Fill-13" points="202.872066 121.863984 205.379443 127.764803 211.64977 129.050541 206.816 133.247098 207.543705 139.596607 202.057639 136.301197 196.23223 138.959393 197.661246 132.72677 193.355344 128.002344 199.723705 127.440541"></polygon>
            <path d="M63.4705738,59.0193115 C64.4018852,59.6188197 64.8995902,60.6971803 64.9636885,62.2581639 C65.0315574,63.8191475 64.997623,65.3348852 64.8656557,66.7940656 C64.8015574,66.8619344 64.7148361,66.9298033 64.6168033,66.9939016 C64.515,67.0617705 64.4320492,67.0617705 64.3679508,66.9939016 C61.6456557,65.5347213 58.9535246,64.0717705 56.2953279,62.6088197 C53.6371311,61.1458689 51.0430328,59.5170164 48.5205738,57.7222623 L42.7366393,53.6388197 C42.1409016,53.1750492 41.4584426,52.6396393 40.6968033,52.0401311 C39.9313934,51.4443934 39.1848361,50.8976721 38.4495902,50.3961967 C37.7218852,49.8984918 37.0733607,49.5025902 36.5115574,49.2009508 C35.9422131,48.903082 35.5613934,48.8540656 35.3615574,49.0501311 L35.3615574,50.0983279 C35.3615574,50.4640656 35.3954918,50.8147213 35.4595902,51.1465246 C35.527459,53.6727541 35.5915574,56.1650492 35.6594262,58.6234098 C35.7272951,61.078 35.8253279,63.5740656 35.9610656,66.0965246 C35.9610656,66.7601311 36.0251639,67.4086557 36.1609016,68.0420984 C36.2928689,68.6717705 36.3909016,69.3165246 36.4587705,69.9839016 C36.5266393,70.3157049 36.6095902,70.6475082 36.707623,70.9793115 C36.8094262,71.3111148 36.7905738,71.642918 36.6586066,71.9784918 C36.3909016,73.3057049 36.0251639,74.172918 35.5613934,74.5688197 C35.097623,74.9684918 34.132377,75.0665246 32.6694262,74.870459 C31.7381148,74.7347213 30.8445082,74.4858689 29.9772951,74.1201311 C29.117623,73.7543934 28.2164754,73.4037377 27.2889344,73.0757049 C27.0890984,73.0078361 26.9043443,72.8909508 26.7422131,72.7250492 C26.572541,72.5591475 26.4254918,72.4083279 26.2935246,72.2763607 C25.8938525,71.8125902 25.5922131,71.1150492 25.392377,70.1837377 C25.1963115,69.2524262 25.0945082,68.2871803 25.0945082,67.2917705 C25.0945082,66.2963607 25.177459,65.3499672 25.3471311,64.4525902 C25.5130328,63.5552131 25.7920492,62.8727541 26.1917213,62.4089836 C26.3236885,62.2770164 26.3915574,62.0771803 26.3915574,61.8094754 L26.3915574,61.0139016 C26.1917213,60.2824262 25.9768033,59.5698033 25.7430328,58.8684918 C25.5130328,58.1709508 25.6261475,57.4583279 26.0936885,56.7268525 C25.7581148,55.7314426 25.6110656,54.7511148 25.645,53.7858689 C25.6789344,52.8243934 25.7920492,51.878 25.9956557,50.9466885 C26.1917213,50.015377 26.3727049,49.0878361 26.542377,48.1565246 C26.7045082,47.2252131 26.787459,46.2939016 26.787459,45.3625902 C26.787459,43.5678361 26.9231967,41.7919344 27.1871311,40.0311148 C27.4510656,38.2702951 27.5868033,36.490623 27.5868033,34.6996393 C27.6546721,32.772918 27.7866393,30.8801311 27.9864754,29.0175082 C28.1863115,27.1586557 28.1184426,25.2620984 27.7866393,23.335377 C27.6546721,22.208 27.6358197,21.0617705 27.7338525,19.8966885 C27.8356557,18.735377 27.8545082,17.5891475 27.7866393,16.458 C27.7866393,14.7311148 27.7677869,13.0381639 27.7338525,11.375377 C27.7036885,9.71259016 27.6546721,8.01963934 27.5868033,6.2927541 C27.5227049,5.02963934 27.6358197,4.21521311 27.937459,3.84947541 C28.2353279,3.4837377 29.0158197,3.26881967 30.2789344,3.20095082 C32.4054918,3.13685246 34.0494262,3.64963934 35.2145082,4.74685246 C36.3720492,5.84029508 37.0205738,7.45406557 37.1563115,9.58062295 C37.3561475,13.3020984 37.4202459,16.9896393 37.3561475,20.6432459 C37.2882787,24.300623 37.0545082,27.9202951 36.6586066,31.5098033 C36.5266393,32.772918 36.4738525,34.0511148 36.5115574,35.3481639 C36.5379508,36.6414426 36.5568033,38.055377 36.5568033,39.5824262 C36.9564754,39.3184918 37.2731967,39.1186557 37.5031967,38.9866885 C37.7369672,38.8509508 37.9518852,38.6850492 38.1517213,38.4852131 C40.2820492,36.490623 42.1409016,34.3339016 43.7358197,32.0075082 C45.3269672,29.6811148 46.7559836,27.1925902 48.0190984,24.5343934 C49.0861475,22.4078361 50.0627049,20.2435738 50.9638525,18.052918 C51.857459,15.8584918 52.7058197,13.6339016 53.5013934,11.375377 C54.3007377,9.6484918 55.4281148,9.04898361 56.8910656,9.58062295 C58.2861475,10.1122623 59.3154918,10.7607869 59.9828689,11.5224262 C60.6464754,12.2878361 60.8463115,13.1361967 60.5786066,14.0675082 C60.0469672,15.9942295 59.4172951,17.8191475 58.6858197,19.5460328 C57.9543443,21.2766885 56.8910656,22.8376721 55.4959836,24.2327541 C55.0963115,24.6324262 54.7795902,25.0961967 54.5495902,25.6278361 C54.3158197,26.1594754 54.0330328,26.6911148 53.7012295,27.2227541 C52.1063115,29.6170164 50.4284426,31.9434098 48.667623,34.1981639 C46.9068033,36.460459 44.965,38.5870164 42.8384426,40.5778361 C42.3068033,41.1094754 41.722377,41.6109508 41.0927049,42.0747213 C40.4592623,42.5384918 39.7805738,43.1040656 39.0490984,43.7714426 L42.4387705,45.8640656 L50.9110656,50.9466885 C53.037623,52.2739016 55.1302459,53.6199672 57.1927049,54.9848852 C59.2513934,56.3460328 61.3440164,57.6920984 63.4705738,59.0193115" id="Fill-16"></path>
            <path d="M74.535459,45.8629344 C79.2523443,41.1460492 82.2423443,37.2586721 83.505459,34.2008033 C82.1744754,33.8011311 81.3298852,33.6201475 80.9641475,33.6503115 C80.5946393,33.6880164 80.0818525,34.0688361 79.4182459,34.796541 C77.9552951,36.3273607 76.7939836,37.9562131 75.930541,39.6830984 C75.0670984,41.4099836 74.4374262,43.2047377 74.0339836,45.0673607 C74.0339836,45.1993279 74.0867705,45.3312951 74.1848033,45.4632623 C74.2866066,45.599 74.3997213,45.7309672 74.535459,45.8629344 M87.890541,32.703918 C89.4175902,33.171459 90.0170984,34.0009672 89.6852951,35.1962131 C89.5495574,35.5317869 89.4364426,35.8447377 89.3384098,36.1426066 C89.2366066,36.4404754 89.0857869,36.7571967 88.8897213,37.089 C87.4267705,39.6152295 85.7300492,42.0434262 83.8033279,44.3698197 C81.8766066,46.6924426 79.7161148,48.9208033 77.325623,51.0473607 C76.4621803,51.8429344 75.6138197,52.6762131 74.780541,53.5358852 C73.9548033,54.4030984 73.2384098,55.2967049 72.6389016,56.2280164 C72.243,56.891623 71.990377,57.6080164 71.8923443,58.3696557 C71.790541,59.1388361 71.7452951,59.8853934 71.7452951,60.6130984 C71.7452951,61.7442459 72.1751311,62.9734262 73.0423443,64.3044098 C73.9020164,65.631623 74.9313607,66.6609672 76.130377,67.3924426 C76.6582459,66.9927705 77.3746393,66.4799836 78.2720164,65.846541 C79.1693934,65.2168689 79.8820164,64.666377 80.4174262,64.2026066 C82.5402131,62.2758852 84.670541,60.564082 86.7933279,59.0671967 C88.9198852,57.574082 90.5148033,56.2619508 91.5818525,55.1308033 C91.4423443,55.8622787 91.2802131,56.5937541 91.080377,57.3252295 C90.9484098,57.9247377 90.7674262,58.5883443 90.5336557,59.3198197 C90.2998852,60.0512951 90.0170984,60.6809672 89.6852951,61.2126066 C88.6220164,62.9394918 87.3287377,64.4175246 85.797918,65.6504754 C84.2670984,66.8796557 82.5402131,68.1880164 80.6134918,69.5868689 C79.4823443,70.3824426 78.3398852,70.7821148 77.1748033,70.7821148 C76.0134918,70.7821148 74.6674262,70.5822787 73.140377,70.1826066 C70.878082,69.5868689 68.815623,68.4896557 66.9567705,66.8947377 C65.097918,65.2998197 63.7707049,63.5050656 62.9751311,61.5104754 C62.835623,61.246541 62.7564426,60.9637541 62.7225082,60.6658852 C62.6885738,60.3642459 62.605623,59.9834262 62.4736557,59.5196557 C62.4057869,58.8560492 62.3416885,58.1886721 62.2738197,57.5250656 C62.2059508,56.861459 62.1908689,56.163918 62.2248033,55.4324426 C62.2549672,54.7009672 62.3416885,53.871459 62.4736557,52.9401475 C62.605623,52.0088361 62.8695574,50.911623 63.273,49.6485082 C63.8008689,47.5898197 64.5323443,45.5612951 65.4636557,43.5704754 C66.3949672,41.5758852 67.2885738,39.5812951 68.1557869,37.5904754 C68.4875902,36.859 68.8684098,36.1275246 69.3020164,35.3960492 C69.735623,34.6645738 70.1843115,33.9330984 70.648082,33.2053934 C70.9120164,32.8057213 71.2098852,32.4249016 71.545459,32.0553934 C71.8772623,31.6934262 72.2090656,31.3427705 72.5408689,31.0109672 C73.8039836,29.6799836 75.5610328,29.2162131 77.8233279,29.6158852 C78.3549672,29.7478525 78.920541,29.8157213 79.5162787,29.8157213 C80.1157869,29.8157213 80.7152951,29.8798197 81.3148033,30.0117869 C82.110377,30.1475246 82.7400492,30.3473607 83.2075902,30.6112951 C84.670541,31.5426066 86.2315246,32.2401475 87.890541,32.703918" id="Fill-18"></path>
            <path d="M100.95077,45.8629344 C105.667656,41.1460492 108.657656,37.2586721 109.92077,34.2008033 C108.589787,33.8011311 107.745197,33.6201475 107.379459,33.6503115 C107.009951,33.6880164 106.497164,34.0688361 105.833557,34.796541 C104.370607,36.3273607 103.209295,37.9562131 102.345852,39.6830984 C101.48241,41.4099836 100.852738,43.2047377 100.449295,45.0673607 C100.449295,45.1993279 100.502082,45.3312951 100.600115,45.4632623 C100.701918,45.599 100.815033,45.7309672 100.95077,45.8629344 M114.305852,32.703918 C115.832902,33.171459 116.43241,34.0009672 116.100607,35.1962131 C115.964869,35.5317869 115.851754,35.8447377 115.753721,36.1426066 C115.651918,36.4404754 115.501098,36.7571967 115.305033,37.089 C113.842082,39.6152295 112.145361,42.0434262 110.218639,44.3698197 C108.291918,46.6924426 106.131426,48.9208033 103.740934,51.0473607 C102.877492,51.8429344 102.029131,52.6762131 101.195852,53.5358852 C100.370115,54.4030984 99.6537213,55.2967049 99.0542131,56.2280164 C98.6583115,56.891623 98.4056885,57.6080164 98.3076557,58.3696557 C98.2058525,59.1388361 98.1606066,59.8853934 98.1606066,60.6130984 C98.1606066,61.7442459 98.5904426,62.9734262 99.4576557,64.3044098 C100.317328,65.631623 101.346672,66.6609672 102.545689,67.3924426 C103.073557,66.9927705 103.789951,66.4799836 104.687328,65.846541 C105.584705,65.2168689 106.297328,64.666377 106.832738,64.2026066 C108.955525,62.2758852 111.085852,60.564082 113.208639,59.0671967 C115.335197,57.574082 116.930115,56.2619508 117.997164,55.1308033 C117.857656,55.8622787 117.695525,56.5937541 117.495689,57.3252295 C117.363721,57.9247377 117.182738,58.5883443 116.948967,59.3198197 C116.715197,60.0512951 116.43241,60.6809672 116.100607,61.2126066 C115.037328,62.9394918 113.744049,64.4175246 112.21323,65.6504754 C110.68241,66.8796557 108.955525,68.1880164 107.028803,69.5868689 C105.897656,70.3824426 104.755197,70.7821148 103.590115,70.7821148 C102.428803,70.7821148 101.082738,70.5822787 99.5556885,70.1826066 C97.2933934,69.5868689 95.2309344,68.4896557 93.372082,66.8947377 C91.5132295,65.2998197 90.1860164,63.5050656 89.3904426,61.5104754 C89.2509344,61.246541 89.1717541,60.9637541 89.1378197,60.6658852 C89.1038852,60.3642459 89.0209344,59.9834262 88.8889672,59.5196557 C88.8210984,58.8560492 88.757,58.1886721 88.6891311,57.5250656 C88.6212623,56.861459 88.6061803,56.163918 88.6401148,55.4324426 C88.6702787,54.7009672 88.757,53.871459 88.8889672,52.9401475 C89.0209344,52.0088361 89.2848689,50.911623 89.6883115,49.6485082 C90.2161803,47.5898197 90.9476557,45.5612951 91.8789672,43.5704754 C92.8102787,41.5758852 93.7038852,39.5812951 94.5710984,37.5904754 C94.9029016,36.859 95.2837213,36.1275246 95.7173279,35.3960492 C96.1509344,34.6645738 96.599623,33.9330984 97.0633934,33.2053934 C97.3273279,32.8057213 97.6251967,32.4249016 97.9607705,32.0553934 C98.2925738,31.6934262 98.624377,31.3427705 98.9561803,31.0109672 C100.219295,29.6799836 101.976344,29.2162131 104.238639,29.6158852 C104.770279,29.7478525 105.335852,29.8157213 105.93159,29.8157213 C106.531098,29.8157213 107.130607,29.8798197 107.730115,30.0117869 C108.525689,30.1475246 109.155361,30.3473607 109.622902,30.6112951 C111.085852,31.5426066 112.646836,32.2401475 114.305852,32.703918" id="Fill-20"></path>
            <path d="M122.476508,73.8709016 C122.012738,76.8609016 122.11077,79.2061475 122.774377,80.8990984 C123.441754,82.5920492 124.373066,83.2745082 125.564541,82.9427049 C125.768148,82.8748361 125.915197,82.9577869 126.01323,83.1915574 C126.115033,83.4215574 126.197984,83.7043443 126.265852,84.039918 C126.329951,84.3717213 126.345033,84.7035246 126.314869,85.0353279 C126.280934,85.3671311 126.16782,85.5669672 125.967984,85.6348361 C124.768967,86.2305738 123.290934,86.7131967 121.530115,87.0789344 C119.769295,87.4446721 117.959459,87.029918 116.100607,85.8309016 C115.101426,85.2351639 114.373721,84.537623 113.90618,83.7382787 C113.44241,82.9427049 113.110607,82.0754918 112.91077,81.1479508 C112.707164,80.2166393 112.627984,79.2551639 112.658148,78.2559836 C112.692082,77.2605738 112.744869,76.1972951 112.808967,75.0661475 C112.944705,74.0028689 113.223721,72.5587705 113.657328,70.730082 C114.087164,68.9051639 114.505689,66.7597541 114.90159,64.3013934 C114.969459,63.9695902 115.014705,63.2418852 115.05241,62.1107377 C115.082574,60.9795902 115.135361,60.1840164 115.199459,59.7164754 C115.467164,57.7897541 115.798967,55.9120492 116.198639,54.0833607 C116.594541,52.2584426 116.89618,49.8830328 117.092246,46.9571311 L117.495689,40.0797541 C117.495689,39.4840164 117.359951,38.952377 117.092246,38.4848361 C116.760443,37.7533607 116.760443,37.0558197 117.092246,36.3922131 C117.42782,35.7286066 117.959459,35.3289344 118.690934,35.1969672 C119.022738,35.065 119.369623,34.9971311 119.735361,34.9971311 L120.783557,34.9971311 C122.310607,34.9971311 123.539787,35.0461475 124.471098,35.1479508 C125.398639,35.2459836 126.115033,35.532541 126.616508,35.9963115 C127.110443,36.460082 127.47618,37.1764754 127.709951,38.1379508 C127.939951,39.0994262 128.124705,40.4454918 128.256672,42.172377 C128.388639,43.4354918 128.388639,44.732541 128.256672,46.0635246 C128.124705,47.3907377 127.992738,48.9177869 127.86077,50.6446721 C128.192574,50.1168033 128.475361,49.7171311 128.705361,49.4494262 C128.939131,49.1854918 129.123885,48.9517213 129.255852,48.7518852 C129.983557,47.6245082 130.730115,46.4594262 131.499295,45.2641803 C132.260934,44.0689344 133.045197,42.907623 133.84077,41.7764754 C135.435689,39.5820492 137.294541,38.039918 139.421098,37.1387705 C141.551426,36.2451639 143.938148,35.8605738 146.596344,35.9963115 C147.663393,36.0604098 148.692738,36.5430328 149.688148,37.4404098 C150.683557,38.3377869 151.249131,39.4161475 151.384869,40.6792623 C151.384869,41.0789344 151.366016,41.727459 151.332082,42.6210656 C151.301918,43.5184426 151.234049,44.4497541 151.136016,45.415 C151.034213,46.3764754 150.917328,47.2738525 150.785361,48.1071311 C150.653393,48.9366393 150.487492,49.5512295 150.287656,49.9471311 C149.891754,51.877623 149.005689,53.8533607 147.648311,55.8818852 C146.279623,57.9066393 144.605525,59.7843443 142.610934,61.5112295 C140.084705,63.7697541 138.010934,65.0517213 136.382082,65.3495902 C134.75323,65.647459 133.377,65.3345082 132.245852,64.4031967 C132.046016,64.2033607 131.880115,63.9884426 131.748148,63.7546721 C131.61241,63.5209016 131.714213,63.2720492 132.046016,63.0081148 C132.177984,62.4764754 132.543721,61.8958197 133.14323,61.262377 C133.738967,60.6327049 134.202738,60.0822131 134.538311,59.6184426 C136.996672,57.2241803 139.089295,54.7017213 140.81618,52.0397541 C142.543066,49.3853279 143.640279,46.127623 144.10782,42.2741803 C144.171918,42.0743443 144.156836,41.6105738 144.058803,40.8790984 C143.957,40.147623 143.674213,39.5179508 143.210443,38.9863115 C142.675033,39.2502459 142.245197,39.450082 141.913393,39.5820492 C141.57782,39.7177869 141.249787,39.917623 140.917984,40.1815574 C139.986672,40.8451639 138.859295,41.9084426 137.528311,43.3713934 C136.201098,44.8305738 134.83618,46.4443443 133.441098,48.2051639 C132.046016,49.9659836 130.703721,51.7607377 129.406672,53.5894262 C128.109623,55.4143443 127.065197,57.0243443 126.265852,58.4194262 C125.798311,59.8861475 125.334541,61.4772951 124.87077,63.2041803 C124.471098,64.6671311 124.056344,66.329918 123.626508,68.1887705 C123.189131,70.047623 122.808311,71.9441803 122.476508,73.8709016" id="Fill-22"></path>
            <path d="M38.9993279,85.0941475 C39.3311311,84.3664426 39.6629344,83.7669344 39.9947377,83.2993934 C40.326541,82.835623 40.6922787,82.4887377 41.0919508,82.2549672 C41.4878525,82.0211967 41.9704754,81.8892295 42.5360492,81.8552951 C43.101623,81.8213607 43.784082,81.8402131 44.5758852,81.9043115 C45.7749016,83.9667705 46.5403115,86.1084098 46.8721148,88.333 C47.203918,90.5613607 47.3019508,92.8387377 47.1699836,95.1613607 C46.9701475,97.6197213 46.7212951,100.047918 46.4234262,102.43841 C46.1255574,104.828902 45.8729344,107.257098 45.6768689,109.715459 C45.3450656,113.301197 45.0434262,116.860541 44.7794918,120.37841 C44.5117869,123.90382 44.213918,127.455623 43.8821148,131.045131 C43.7501475,132.640049 43.6483443,134.234967 43.5842459,135.829885 C43.516377,137.424803 43.4485082,139.053656 43.3844098,140.712672 C43.3844098,141.647754 43.4334262,142.541361 43.531459,143.404803 C43.6332623,144.268246 43.6483443,145.131689 43.5842459,145.995131 C43.4485082,147.725787 42.9357213,148.81923 42.0383443,149.28677 C41.1409672,149.750541 40.1267049,149.452672 38.9993279,148.389393 C38.1358852,147.657918 37.5175246,146.843492 37.1555574,145.946115 C36.7860492,145.048738 36.6729344,143.872344 36.8049016,142.409393 C37.1367049,139.615459 37.351623,136.825295 37.4534262,134.035131 C37.551459,131.244967 37.6344098,128.454803 37.7022787,125.664639 C37.8342459,120.548082 38.1811311,115.480541 38.7504754,110.462016 C39.3122787,105.443492 39.8929344,100.44382 40.4924426,95.463 C40.6281803,94.7993934 40.6734262,94.1320164 40.6432623,93.4684098 C40.6093279,92.8048033 40.4585082,92.1072623 40.1908033,91.3757869 C40.0588361,91.6397213 39.9268689,91.8584098 39.7949016,92.020541 C39.6629344,92.1902131 39.5309672,92.4390656 39.3952295,92.7708689 C38.6637541,94.6975902 37.9171967,96.6243115 37.1555574,98.5510328 C36.3901475,100.481525 35.6737541,102.43841 35.0101475,104.433 C34.2786721,106.691525 33.6150656,108.934967 33.0155574,111.159557 C32.4198197,113.387918 31.8203115,115.631361 31.2208033,117.889885 L30.3234262,120.680049 C30.191459,120.943984 30.0406393,121.196607 29.8785082,121.426607 C29.7088361,121.660377 29.5617869,121.777262 29.4298197,121.777262 C28.6983443,121.845131 27.9668689,121.90923 27.2353934,121.973328 C26.503918,122.041197 25.7724426,121.943164 25.0447377,121.675459 C24.3773607,121.411525 23.7288361,120.993 23.0991639,120.431197 C22.4657213,119.865623 21.9529344,119.251033 21.5532623,118.587426 C20.7576885,117.256443 20.0412951,115.895295 19.411623,114.500213 C18.7781803,113.105131 18.0994918,111.710049 17.3680164,110.311197 C16.3726066,108.18841 15.3734262,106.043 14.3780164,103.882508 C13.3788361,101.725787 12.3494918,99.580377 11.2862131,97.4538197 C11.2221148,97.2577541 10.9242459,96.8920164 10.3888361,96.3566066 C10.2568689,97.7516885 10.1437541,99.0487377 10.0419508,100.247754 C9.94391803,101.43923 9.89113115,102.638246 9.89113115,103.833492 C9.89113115,105.496279 9.94391803,107.159066 10.0419508,108.818082 C10.1437541,110.480869 10.2229344,112.139885 10.2908033,113.802672 C10.2908033,114.534148 10.2229344,115.24677 10.0909672,115.944311 C9.959,116.641852 9.89113115,117.358246 9.89113115,118.085951 C9.82703279,121.943164 9.72522951,125.781525 9.5932623,129.601033 C9.45752459,133.420541 9.66113115,137.292836 10.189,141.214148 C10.5886721,143.604639 10.3247377,145.863164 9.39342623,147.989721 C8.9937541,148.921033 8.52998361,149.584639 7.99834426,149.984311 C7.46670492,150.383984 6.76539344,150.383984 5.90572131,149.984311 C4.97440984,149.584639 4.09211475,149.086934 3.26260656,148.487426 C2.43309836,147.891689 1.5847377,147.258246 0.721295082,146.594639 C0.521459016,146.458902 0.355557377,146.210049 0.223590164,145.848082 C0.0916229508,145.482344 0.0237540984,145.165623 0.0237540984,144.901689 L0.619491803,132.640049 C0.619491803,130.845295 0.585557377,129.069393 0.521459016,127.308574 C0.453590164,125.547754 0.42342623,123.768082 0.42342623,121.973328 C0.48752459,119.450869 0.540311475,116.939721 0.574245902,114.451197 C0.604409836,111.958902 0.48752459,109.447754 0.223590164,106.925295 C0.0237540984,104.131361 -0.0403442623,101.375131 0.0237540984,98.6528361 C0.0916229508,95.9267705 0.121786885,93.170541 0.121786885,90.3766066 C0.121786885,89.2492295 0.136868852,88.1369344 0.17457377,87.0397213 C0.204737705,85.9425082 0.189655738,84.8302131 0.121786885,83.6990656 C0.121786885,81.7082459 0.687360656,80.3093934 1.8185082,79.5138197 C2.94588525,78.7144754 4.24293443,78.7823443 5.70588525,79.7136557 C6.23752459,79.9775902 6.56555738,80.2113607 6.70506557,80.4111967 C7.10096721,81.0107049 7.53080328,81.5574262 7.99834426,82.0551311 C8.46211475,82.5528361 8.92588525,83.050541 9.39342623,83.5482459 C9.85719672,84.0497213 10.2908033,84.5813607 10.6904754,85.1431639 C11.0901475,85.7125082 11.354082,86.3911967 11.4860492,87.1867705 C12.6171967,88.7175902 13.6126066,90.3464426 14.4760492,92.0733279 C15.3432623,93.8002131 16.153918,95.5459508 16.9193279,97.3067705 C17.6847377,99.0675902 18.446377,100.843492 19.2117869,102.638246 C19.9734262,104.433 20.8217869,106.159885 21.7530984,107.818902 C22.1527705,108.618246 22.4996557,109.432672 22.8012951,110.26218 C23.0991639,111.095459 23.4121148,111.94382 23.7476885,112.807262 L25.2445738,115.593656 L26.3417869,112.109721 C27.0694918,109.447754 27.7821148,106.823492 28.4834262,104.233164 C29.1809672,101.642836 29.9275246,99.0487377 30.7268689,96.4584098 C31.1906393,94.9313607 31.7034262,93.4684098 32.269,92.0733279 C32.8308033,90.6744754 33.3473607,89.2152951 33.8149016,87.6844754 C34.6104754,85.5616885 35.9075246,84.6982459 37.7022787,85.0941475 C37.9699836,85.1620164 38.1999836,85.1770984 38.3998197,85.1431639 C38.5996557,85.113 38.7957213,85.0941475 38.9993279,85.0941475" id="Fill-24"></path>
            <path d="M61.7214426,142.110016 C62.3888197,140.582967 62.9845574,139.021984 63.5199672,137.423295 C64.0478361,135.828377 64.5794754,134.23723 65.1111148,132.642311 L64.8132459,131.345262 C64.4776721,130.214115 64.2665246,128.57018 64.1647213,126.409689 C64.0666885,124.252967 64.1798033,122.009525 64.5116066,119.683131 C63.7839016,118.75182 63.1843934,117.771492 62.720623,116.742148 C62.2568525,115.712803 62.023082,114.53641 62.023082,113.201656 C61.6875082,113.201656 61.4235738,113.171492 61.2237377,113.103623 C61.0917705,113.303459 60.9598033,113.488213 60.8278361,113.654115 C60.6920984,113.820016 60.5902951,114.001 60.5299672,114.200836 C59.3309508,117.790344 58.4335738,121.443951 57.8378361,125.165426 C57.2383279,128.886902 56.8725902,132.70641 56.740623,136.627721 C56.6727541,137.559033 56.7066885,138.520508 56.8386557,139.519689 C56.970623,140.515098 57.1365246,141.510508 57.3363607,142.505918 C57.400459,142.841492 57.5663607,143.20723 57.8378361,143.603131 C58.1017705,144.002803 58.3996393,144.270508 58.7314426,144.402475 C58.995377,144.534443 59.3120984,144.500508 59.6816066,144.304443 C60.0435738,144.104607 60.3602951,143.90477 60.628,143.704934 C61.1596393,143.305262 61.5216066,142.773623 61.7214426,142.110016 L61.7214426,142.110016 Z M69.4999672,134.135426 C69.7639016,134.403131 70.0278361,134.535098 70.2917705,134.535098 C70.7593115,134.535098 71.208,134.418213 71.6416066,134.184443 C72.0714426,133.954443 72.5389836,133.652803 73.0366885,133.287066 C73.5343934,132.921328 74.0961967,132.525426 74.7296393,132.09182 C75.3593115,131.661984 76.1398033,131.24723 77.0711148,130.847557 C76.9391475,131.579033 76.7091475,132.374607 76.3773443,133.238049 C76.0417705,134.101492 75.3102951,134.964934 74.182918,135.828377 C73.1158689,136.763459 72.2373443,137.374279 71.5398033,137.675918 C70.8422623,137.973787 69.9298033,137.92477 68.7986557,137.525098 C68.6666885,137.525098 68.5648852,137.491164 68.5007869,137.423295 C68.3009508,138.158541 68.1011148,138.871164 67.9050492,139.568705 C67.7052131,140.266246 67.4375082,140.982639 67.1057049,141.710344 C66.5740656,143.041328 65.8765246,144.270508 65.013082,145.401656 C64.1496393,146.529033 62.8186557,147.128541 61.0239016,147.192639 C58.0339016,147.260508 55.2098033,146.329197 52.5516066,144.402475 C51.6881639,143.802967 51.0396393,143.05641 50.6098033,142.159033 C50.1761967,141.261656 49.9273443,140.315262 49.8594754,139.319852 L49.8594754,129.852148 C49.8594754,129.516574 49.8443934,129.218705 49.8142295,128.951 C49.7765246,128.687066 49.7614426,128.389197 49.7614426,128.053623 L50.3571803,121.677721 C50.8925902,118.619852 51.6052131,115.663787 52.5025902,112.805754 C53.3999672,109.947721 54.4783279,107.123623 55.7414426,104.333459 L56.6388197,102.836574 C57.5022623,101.04182 59.033082,100.412148 61.2237377,100.943787 C62.4227541,101.27559 63.633082,101.57723 64.8622623,101.841164 C66.0914426,102.108869 67.3357049,102.372803 68.5988197,102.636738 C68.5988197,102.772475 68.6176721,102.870508 68.6516066,102.938377 C68.685541,103.002475 68.700623,103.104279 68.700623,103.236246 C67.9050492,103.767885 67.090623,104.26559 66.2573443,104.729361 C65.4240656,105.196902 64.6775082,105.762475 64.0139016,106.426082 C63.4181639,107.089689 62.9016066,107.840016 62.468,108.669525 C62.0381639,109.499033 61.8873443,110.411492 62.023082,111.410672 C63.5501311,111.742475 65.0809508,112.025262 66.608,112.259033 C68.1350492,112.492803 69.7299672,112.737885 71.3889836,113.00559 L73.285541,121.078213 C73.285541,121.74182 73.1875082,122.341328 72.9839016,122.872967 C72.7878361,123.404607 72.5540656,123.96641 72.2901311,124.565918 C72.0224262,125.165426 71.7396393,125.847885 71.4417705,126.609525 C71.1439016,127.374934 70.8611148,128.287393 70.5971803,129.350672 L69.4999672,134.135426 Z" id="Fill-27"></path>
            <path d="M100.39877,136.128508 C101.39418,135.864574 102.325492,135.182115 103.188934,134.084902 C104.052377,132.987689 105.115656,131.811295 106.37877,130.54818 C105.979098,134.137689 105.047787,136.777033 103.588607,138.473754 C102.125656,140.166705 100.658934,141.049 99.2035246,141.113098 C98.2722131,141.180967 97.3371311,140.751131 96.4095902,139.81982 C95.4782787,138.888508 94.7468033,137.82523 94.2151639,136.626213 C93.0877869,138.620803 91.9905738,140.630475 90.9272951,142.659 C89.8640164,144.683754 89.0646721,146.229656 88.5368033,147.292934 C87.8731967,148.887852 86.7081148,149.48359 85.0490984,149.087689 C84.3817213,148.951951 83.7520492,148.804902 83.152541,148.639 C82.5568033,148.473098 81.9233607,148.25441 81.2597541,147.990475 C80.860082,147.854738 80.4264754,147.741623 79.9627049,147.64359 C79.4989344,147.541787 79.0313934,147.40982 78.567623,147.243918 C78.1038525,147.078016 77.6890984,146.859328 77.3233607,146.595393 C76.9538525,146.331459 76.7427049,145.995885 76.6748361,145.599984 C76.2072951,144.800639 75.8905738,143.605393 75.7284426,142.010475 C75.5587705,140.415557 75.2458197,138.854574 74.7782787,137.323754 C74.8461475,136.596049 74.7443443,135.864574 74.4804098,135.133098 C74.2164754,134.401623 74.0845082,133.606049 74.0845082,132.742607 C74.0845082,131.811295 74.0958197,130.797033 74.1335246,129.69982 C74.1636885,128.602607 74.2164754,127.524246 74.2805738,126.460967 C74.3484426,125.265721 74.4464754,124.036541 74.5784426,122.773426 C74.7141803,120.447033 74.9818852,118.652279 75.3777869,117.389164 C75.777459,116.12982 75.9735246,115.164574 75.9735246,114.500967 C75.9094262,112.774082 76.7427049,112.042607 78.4695902,112.306541 C79.4009016,112.506377 80.3133607,112.706213 81.2107377,112.906049 C82.1043443,113.105885 83.0205738,113.339656 83.9518852,113.60359 C84.1479508,113.60359 84.3477869,113.652607 84.547623,113.750639 C84.7512295,113.852443 84.9472951,113.969328 85.1471311,114.101295 C85.3469672,114.964738 85.3620492,115.813098 85.1961475,116.642607 C85.0302459,117.475885 84.7663115,118.422279 84.4005738,119.481787 C84.0310656,120.548836 83.6012295,121.811951 83.1035246,123.271131 C82.6058197,124.734082 82.1194262,126.528836 81.6556557,128.655393 C81.3238525,130.114574 81.1918852,131.728344 81.2597541,133.489164 C81.3238525,135.249984 81.5086066,136.91277 81.8064754,138.473754 C82.1043443,140.034738 82.5379508,141.395885 83.1035246,142.560967 C83.6690984,143.722279 84.2836885,144.434902 84.9472951,144.702607 C85.1471311,144.434902 85.4789344,143.922115 85.9427049,143.156705 C86.4064754,142.395066 86.8551639,141.576869 87.2887705,140.713426 C87.722377,139.849984 88.1182787,139.05441 88.4877869,138.322934 C88.8497541,137.591459 89.0646721,137.157852 89.1363115,137.025885 L91.0290984,133.138508 C91.4928689,132.342934 91.7228689,131.54359 91.7228689,130.748016 C91.7228689,129.948672 91.6248361,129.119164 91.425,128.255721 C91.0290984,126.528836 90.9084426,124.850967 91.0743443,123.222115 C91.2402459,121.593262 91.9905738,120.11523 93.3215574,118.784246 C93.5817213,118.456213 93.8833607,118.173426 94.2151639,117.939656 C94.5469672,117.705885 94.8787705,117.622934 95.2143443,117.687033 C96.4095902,117.754902 97.6086066,117.871787 98.800082,118.037689 C99.9990984,118.20359 101.228279,118.35441 102.491393,118.486377 L98.5022131,128.753426 C98.2382787,129.285066 97.9856557,129.78277 97.7556557,130.246541 C97.5218852,130.714082 97.3069672,131.113754 97.1071311,131.445557 C97.2390984,133.572115 97.6086066,134.933262 98.2043443,135.53277 C98.800082,136.128508 99.5353279,136.328344 100.39877,136.128508" id="Fill-29"></path>
            <path d="M112.553328,108.718541 C111.158246,109.114443 110.012016,109.01641 109.11841,108.416902 C108.221033,107.821164 107.704475,106.79182 107.572508,105.328869 C107.236934,102.538705 107.451852,99.8314918 108.221033,97.2072295 C108.982672,94.5791967 109.895131,92.0077213 110.95841,89.4814918 C111.090377,89.1496885 111.392016,88.8178852 111.855787,88.4823115 C112.319557,88.1505082 112.756934,87.9544426 113.152836,87.8865738 C113.94841,87.7508361 114.664803,87.8865738 115.298246,88.2862459 C115.927918,88.6821475 116.440705,89.2326393 116.840377,89.9301803 C117.240049,90.6277213 117.503984,91.4082131 117.639721,92.2716557 C117.771689,93.1350984 117.737754,93.9646066 117.537918,94.7639508 C116.806443,96.2947705 116.142836,97.8369016 115.547098,99.3978852 C114.94759,100.958869 114.351852,102.50477 113.748574,104.03182 C113.41677,104.767066 113.18677,105.528705 113.054803,106.324279 C112.919066,107.123623 112.756934,107.922967 112.553328,108.718541 M111.659721,140.315262 C112.319557,139.45182 112.986934,138.539361 113.650541,137.574115 C114.314148,136.612639 114.996607,135.681328 115.694148,134.783951 C116.395459,133.886574 117.08923,133.106082 117.790541,132.442475 C118.484311,131.778869 119.132836,131.277393 119.732344,130.94559 C119.264803,132.076738 118.635131,133.422803 117.835787,134.983787 C117.040213,136.54477 116.225787,138.022803 115.396279,139.417885 C114.563,140.812967 113.801361,142.011984 113.10382,143.007393 C112.406279,144.002803 111.95759,144.500508 111.757754,144.500508 C111.290213,144.500508 110.562508,144.451492 109.563328,144.353459 C108.567918,144.251656 107.870377,144.104607 107.470705,143.90477 C106.475295,143.640836 105.777754,143.022475 105.378082,142.061 C104.97841,141.095754 104.714475,140.081492 104.582508,139.021984 C104.44677,138.090672 104.397754,136.978377 104.431689,135.681328 C104.461852,134.384279 104.416607,133.271984 104.284639,132.340672 C104.284639,132.276574 104.299721,132.042803 104.329885,131.643131 C104.36382,131.24723 104.397754,130.79477 104.431689,130.297066 C104.461852,129.799361 104.461852,129.301656 104.431689,128.803951 C104.397754,128.302475 104.344967,127.921656 104.284639,127.653951 C104.213,126.658541 104.182836,125.813951 104.182836,125.11641 C104.182836,124.418869 104.213,123.702475 104.284639,122.971 C104.344967,122.239525 104.480705,121.443951 104.680541,120.580508 C104.880377,119.717066 105.144311,118.687721 105.476115,117.488705 C105.811689,117.024934 106.075623,116.508377 106.275459,115.946574 C106.475295,115.381 106.939066,115.030344 107.670541,114.898377 C108.601852,114.76641 109.548246,114.664607 110.513492,114.600508 C111.474967,114.532639 112.455295,114.898377 113.450705,115.697721 C112.519393,117.288869 112.03677,118.970508 112.006607,120.731328 C111.972672,122.488377 111.991525,124.268049 112.055623,126.062803 C112.123492,126.926246 112.10841,127.989525 112.006607,129.252639 C111.908574,130.515754 111.80677,131.827885 111.704967,133.189033 C111.606934,134.553951 111.539066,135.866082 111.508902,137.125426 C111.474967,138.388541 111.523984,139.45182 111.659721,140.315262" id="Fill-31"></path>
            <path d="M143.851426,140.11618 C145.18241,139.12077 146.622738,137.706836 148.187492,135.878148 C149.748475,134.05323 151.094541,132.375361 152.225689,130.848311 C152.357656,133.570607 152.059787,135.878148 151.324541,137.774705 C150.596836,139.667492 149.733393,141.179459 148.737984,142.310607 C146.875361,143.969623 145.080607,144.618148 143.353721,144.25241 C141.623066,143.886672 139.89618,142.974213 138.169295,141.511262 C137.373721,140.911754 136.90618,140.150115 136.774213,139.218803 C136.44241,137.491918 136.193557,135.814049 136.027656,134.185197 C135.861754,132.560115 136.21241,130.980279 137.072082,129.449459 L139.764213,123.771098 C140.227984,122.70782 140.597492,121.576672 140.861426,120.381426 C141.125361,119.18618 141.095197,117.791098 140.763393,116.19241 C140.227984,116.72782 139.764213,117.142574 139.368311,117.440443 C138.968639,117.738311 138.633066,118.055033 138.369131,118.386836 C136.042738,121.972574 133.701262,125.547 131.344705,129.102574 C128.984377,132.658148 126.94077,136.462574 125.213885,140.515852 C124.94618,141.047492 124.663393,141.579131 124.365525,142.11077 C124.067656,142.64241 123.750934,143.174049 123.419131,143.705689 C121.620607,143.773557 120.078475,143.290934 118.785197,142.25782 C117.488148,141.228475 116.805689,139.88241 116.74159,138.223393 C116.673721,137.092246 116.74159,135.448311 116.937656,133.28782 C117.137492,131.131098 117.371262,128.951754 117.638967,126.761098 C117.902902,124.17077 118.234705,121.444705 118.634377,118.586672 C118.96241,118.322738 119.132082,117.957 119.132082,117.489459 C119.132082,117.025689 119.166016,116.558148 119.233885,116.094377 C119.233885,115.830443 119.248967,115.445852 119.279131,114.948148 C119.313066,114.450443 119.365852,113.96782 119.429951,113.504049 C119.49782,113.036508 119.595852,112.606672 119.73159,112.207 C119.863557,111.807328 119.995525,111.543393 120.127492,111.411426 C120.259459,111.279459 120.610115,111.196508 121.175689,111.158803 C121.741262,111.128639 122.337,111.196508 122.970443,111.358639 C123.600115,111.524541 124.18077,111.758311 124.71618,112.05618 C125.244049,112.35782 125.545689,112.806508 125.609787,113.402246 L125.809623,117.289623 C125.47782,118.088967 125.364705,118.971262 125.462738,119.932738 C125.56077,120.894213 125.545689,121.844377 125.409951,122.771918 C125.277984,123.571262 125.127164,124.351754 124.961262,125.113393 C124.795361,125.878803 124.644541,126.659295 124.512574,127.458639 L125.014049,127.858311 C125.277984,127.590607 125.545689,127.375689 125.809623,127.209787 C126.073557,127.043885 126.311098,126.795033 126.507164,126.459459 C128.037984,124.136836 129.749787,121.961262 131.642574,119.932738 C133.535361,117.904213 135.545033,115.996344 137.67159,114.20159 C138.599131,113.402246 139.696344,112.840443 140.959459,112.504869 C141.89077,112.308803 142.641098,112.391754 143.202902,112.753721 C143.768475,113.119459 144.383066,113.703885 145.046672,114.499459 C145.778148,115.43077 146.226836,116.362082 146.392738,117.289623 C146.558639,118.220934 146.509623,119.250279 146.245689,120.381426 C145.710279,122.771918 145.26159,125.215197 144.895852,127.707492 C144.533885,130.199787 143.919295,132.609131 143.055852,134.931754 C142.720279,135.66323 142.520443,136.477656 142.456344,137.375033 C142.388475,138.27241 142.852246,139.184869 143.851426,140.11618" id="Fill-33"></path>
            <path d="M150.829098,135.929426 C150.76123,135.865328 150.731066,135.767295 150.731066,135.631557 L150.829098,135.929426 Z M177.245164,114.999426 C177.109426,117.058115 177.026475,119.082869 176.992541,121.077459 C176.962377,123.072049 176.90959,125.096803 176.841721,127.159262 C176.709754,128.886148 176.558934,130.582869 176.396803,132.241885 C176.227131,133.904672 176.245984,135.563689 176.44582,137.226475 C176.513689,138.089918 176.543852,139.085328 176.543852,140.216475 C176.543852,141.347623 176.498607,142.508934 176.396803,143.70418 C176.29877,144.899426 176.196967,146.064508 176.095164,147.191885 C175.997131,148.323033 175.91041,149.318443 175.850082,150.181885 L174.948934,155.566148 C174.553033,158.755984 173.821557,161.828934 172.758279,164.785 C171.695,167.744836 170.201885,170.550082 168.271393,173.208279 C167.079918,174.935164 165.48123,176.198279 163.486639,176.997623 C161.827623,177.66123 160.149754,178.207951 158.453033,178.641557 C156.760082,179.071393 155.048279,179.35418 153.321393,179.489918 C152.258115,179.554016 151.511557,179.440902 151.077951,179.139262 C150.644344,178.841393 150.331393,178.192869 150.131557,177.193689 C149.467951,174.071721 149.219098,171.047787 149.385,168.125656 C149.547131,165.199754 150.565164,162.341721 152.424016,159.555328 C153.555164,157.824672 154.995492,156.327787 156.760082,155.068443 C158.520902,153.805328 160.364672,153.005984 162.291393,152.67418 C162.359262,153.405656 162.208443,153.986311 161.842705,154.419918 C161.476967,154.853525 161.062213,155.234344 160.598443,155.566148 C158.072213,157.492869 156.311393,159.736311 155.312213,162.292705 C154.320574,164.849098 153.653197,167.627951 153.321393,170.617951 C153.321393,171.349426 153.419426,172.046967 153.619262,172.710574 C153.886967,173.969918 154.784344,174.471393 156.311393,174.203689 C158.038279,173.871885 159.414508,173.193197 160.447623,172.160082 C161.476967,171.130738 162.257459,169.852541 162.789098,168.325492 C163.320738,166.730574 163.837295,164.999918 164.335,163.141066 C164.832705,161.282213 165.281393,159.370574 165.681066,157.409918 C166.080738,155.449262 166.412541,153.522541 166.676475,151.629754 C166.94041,149.736967 167.140246,147.957295 167.275984,146.298279 C167.275984,146.098443 167.309918,145.514016 167.377787,144.552541 C167.441885,143.591066 167.543689,142.425984 167.675656,141.061066 C167.807623,139.699918 167.93959,138.240738 168.071557,136.675984 C168.203525,135.11877 168.32418,133.636967 168.422213,132.241885 C168.520246,130.846803 168.603197,129.617623 168.671066,128.554344 C168.735164,127.491066 168.772869,126.793525 168.772869,126.461721 C168.637131,126.593689 168.388279,127.193197 168.026311,128.252705 C167.656803,129.319754 167.242049,130.597951 166.774508,132.091066 C166.310738,133.587951 165.843197,135.182869 165.379426,136.87582 C164.915656,138.572541 164.466967,140.152377 164.037131,141.611557 C163.603525,143.074508 163.222705,144.303689 162.890902,145.299098 C162.555328,146.298279 162.359262,146.826148 162.291393,146.894016 C161.695656,147.493525 160.930246,147.957295 160.002705,148.289098 C159.071393,148.620902 158.136311,148.737787 157.20877,148.639754 C156.277459,148.537951 155.432869,148.240082 154.667459,147.742377 C153.902049,147.240902 153.389262,146.430246 153.121557,145.299098 L151.225,137.822213 C151.093033,137.626148 151.028934,137.392377 151.028934,137.124672 C151.028934,136.860738 150.961066,136.562869 150.829098,136.231066 L150.927131,136.329098 C150.663197,134.402377 150.629262,132.490738 150.829098,130.597951 C151.028934,128.701393 151.390902,126.359918 151.926311,123.569754 C152.390082,121.842869 152.853852,120.165 153.321393,118.536148 C153.785164,116.911066 154.282869,115.233197 154.818279,113.502541 C155.150082,112.443033 155.644016,111.57582 156.311393,110.912213 C156.975,110.244836 157.906311,109.815 159.101557,109.615164 C160.828443,109.415328 162.555328,109.20041 164.285984,108.966639 C166.012869,108.736639 167.739754,108.883689 169.466639,109.415328 C169.734344,109.483197 169.968115,109.566148 170.167951,109.66418 C170.367787,109.765984 170.631721,109.882869 170.963525,110.014836 C170.563852,111.941557 169.534508,112.673033 167.875492,112.205492 C166.744344,111.873689 165.843197,111.926475 165.183361,112.356311 C164.519754,112.789918 164.018279,113.468607 163.686475,114.399918 C162.890902,116.326639 162.125492,118.272213 161.397787,120.229098 C160.662541,122.189754 160.19877,124.233361 160.002705,126.359918 C159.863197,128.022705 159.73123,129.666639 159.599262,131.295492 C159.467295,132.924344 159.399426,134.534344 159.399426,136.129262 C159.335328,137.192541 159.399426,138.240738 159.599262,139.270082 C159.799098,140.299426 159.965,141.377787 160.100738,142.508934 L160.696475,142.508934 C160.828443,142.309098 160.979262,142.109262 161.145164,141.909426 C161.311066,141.70959 161.458115,141.47959 161.593852,141.211885 C162.457295,138.289754 163.320738,135.416639 164.18418,132.58877 C165.047623,129.768443 165.843197,126.895328 166.578443,123.969426 C166.910246,122.970246 167.042213,121.944672 166.974344,120.877623 C166.910246,119.818115 166.94041,118.751066 167.079918,117.687787 C167.140246,116.428443 167.340082,115.647951 167.675656,115.346311 C168.007459,115.048443 168.806803,114.731721 170.069918,114.399918 C172.392541,113.80041 174.786803,114.000246 177.245164,114.999426 L177.245164,114.999426 Z" id="Fill-35"></path>
        </g>
    </g>
</svg>