<?xml version="1.0" encoding="UTF-8"?>
<svg width="201px" height="164px" viewBox="0 0 201 164" version="1.1" xmlns="http://www.w3.org/2000/svg" xmlns:xlink="http://www.w3.org/1999/xlink">
    <!-- Generator: Sketch 43.1 (39012) - http://www.bohemiancoding.com/sketch -->
    <title>Page 1</title>
    <desc>Created with Sketch.</desc>
    <defs></defs>
    <g id="发动态弹框" stroke="none" stroke-width="1" fill="none" fill-rule="evenodd">
        <g id="Page-1" transform="translate(-0.918033, -0.426230)" fill="#FFFFFF">
            <path d="M11.143,5.35880328 C11.2862787,2.59503279 12.6738197,1.13585246 15.298082,0.988803279 C16.7497213,1.13585246 17.9185738,1.79191803 18.7895574,2.957 L36.4920164,26.5565082 L36.7107049,26.5565082 L36.7107049,5.35880328 C36.8539836,2.59503279 38.2415246,1.13585246 40.8620164,0.988803279 C43.4825082,1.13585246 44.8662787,2.59503279 45.0133279,5.35880328 L45.0133279,37.2609344 C44.8662787,39.8851967 43.4825082,41.1935574 40.8620164,41.1935574 C39.4028361,41.1935574 38.2415246,40.6883115 37.3667705,39.6665082 L19.668082,16.2856885 L19.445623,16.2856885 L19.445623,37.2609344 C19.3023443,39.8851967 17.9185738,41.1935574 15.298082,41.1935574 C12.6738197,41.1935574 11.2862787,39.8851967 11.143,37.2609344 L11.143,5.35880328 Z" id="Fill-1"></path>
            <path d="M78.0066393,21.3117541 C77.5730328,13.1524098 74.002377,8.85404918 67.3022131,8.42044262 C60.7453279,8.85404918 57.250082,13.1524098 56.8127049,21.3117541 C57.250082,29.4710984 60.7453279,33.7656885 67.3022131,34.2030656 C74.002377,33.9127377 77.5730328,29.614377 78.0066393,21.3117541 M48.0727049,21.3117541 C48.947459,8.49585246 55.3535246,1.64486885 67.3022131,0.770114754 C79.100082,1.64486885 85.509918,8.49585246 86.5317213,21.3117541 C85.6531967,34.1314262 79.2433607,40.8315902 67.3022131,41.4160164 C55.3535246,40.6883115 48.947459,33.984377 48.0727049,21.3117541" id="Fill-3"></path>
            <path d="M11.5811311,60.5999016 C11.5811311,57.3987541 12.9649016,55.7925246 15.7362131,55.7925246 L29.7209672,55.7925246 C32.1944098,55.9395738 33.5027705,57.1800656 33.6535902,59.506459 C33.5027705,61.9874426 32.1944098,63.2958033 29.7209672,63.439082 L19.8837541,63.439082 L19.8837541,71.5230164 L29.0649016,71.5230164 C31.5383443,71.6738361 32.9183443,72.9821967 33.2124426,75.4594098 C32.9183443,77.936623 31.5383443,79.2487541 29.0649016,79.3920328 L19.8837541,79.3920328 L19.8837541,87.9133443 L30.1545738,87.9133443 C32.6317869,87.9133443 33.943918,89.1538361 34.0871967,91.6272787 C33.943918,94.1082623 32.6317869,95.416623 30.1545738,95.5599016 L15.7362131,95.5599016 C13.1119508,95.416623 11.7244098,94.0328525 11.5811311,91.4085902 L11.5811311,60.5999016 Z" id="Fill-6"></path>
            <path d="M46.9811475,74.1484098 L38.022459,61.9093934 C37.2947541,61.185459 36.9290164,60.3823443 36.9290164,59.5075902 C37.0722951,57.030377 38.5314754,55.650377 41.2990164,55.3562787 C42.6111475,55.3562787 43.8478689,56.0877541 45.0167213,57.5431639 L51.7885246,67.3728361 L58.7827869,57.5431639 C59.9440984,56.0877541 61.1883607,55.3562787 62.4967213,55.3562787 C65.1209836,55.5033279 66.5009836,56.8833279 66.6480328,59.5075902 C66.6480328,60.3823443 66.3539344,61.185459 65.7732787,61.9093934 L56.8145902,74.1484098 L67.7414754,89.2266066 C68.4654098,89.9543115 68.834918,90.9007049 68.834918,92.0657869 C68.6878689,94.3997213 67.2286885,95.5610328 64.464918,95.5610328 C63.0057377,95.5610328 61.8406557,95.0520164 60.9659016,94.0302131 L51.7885246,81.3575902 L42.6111475,94.0302131 C41.8796721,95.0520164 40.7183607,95.5610328 39.1159016,95.5610328 C36.4954098,95.5610328 35.1078689,94.3997213 34.9608197,92.0657869 C35.1078689,90.610377 35.4019672,89.6602131 35.8393443,89.2266066 L46.9811475,74.1484098 Z" id="Fill-8"></path>
            <path d="M88.9350328,55.1375902 C96.6532295,55.5749672 100.657492,57.6148033 100.95159,61.2570984 C100.804541,63.5872623 99.7110984,64.8277541 97.6712623,64.9710328 C96.9435574,64.9710328 95.9971639,64.7523443 94.832082,64.3149672 C92.7884754,63.5872623 90.8240492,63.2215246 88.9350328,63.2215246 C82.3781475,63.6589016 78.8829016,67.885623 78.4455246,75.8941475 C78.8829016,83.6198852 82.3781475,87.6957869 88.9350328,88.1331639 C90.8240492,88.1331639 92.8676557,87.6241475 95.0507705,86.6023443 C96.3629016,86.0216885 97.3092951,85.7275902 97.8937213,85.7275902 C100.076836,85.8746393 101.313557,87.1867705 101.603885,89.6602131 C101.460607,93.5966066 97.2376557,95.6326721 88.9350328,95.7797213 C76.9863443,95.0520164 70.5802787,88.3518525 69.7017541,75.6792295 C70.5802787,62.8595574 76.9863443,56.0123443 88.9350328,55.1375902" id="Fill-10"></path>
            <path d="M105.103279,59.7255246 C105.246557,56.9617541 106.634098,55.5025738 109.258361,55.3555246 C111.878852,55.5025738 113.262623,56.9617541 113.405902,59.7255246 L113.405902,79.3924098 C113.843279,85.2215902 116.757869,88.279459 122.149672,88.5697869 C127.390656,88.1324098 130.233607,85.074541 130.670984,79.3924098 L130.670984,59.7255246 C130.814262,56.9617541 132.201803,55.5025738 134.822295,55.3555246 C137.442787,55.5025738 138.826557,56.9617541 138.973607,59.7255246 L138.973607,79.8297869 C138.098852,89.7348689 132.492131,95.0550328 122.149672,95.7827377 C111.660164,95.0550328 105.978033,89.7348689 105.103279,79.8297869 L105.103279,59.7255246 Z" id="Fill-12"></path>
            <path d="M167.161803,60.5999016 C167.014754,63.2203934 165.774262,64.6079344 163.447869,64.7512131 C162.859672,64.7512131 161.841639,64.5325246 160.38623,64.0951475 C158.636721,63.5144918 157.185082,63.2203934 156.01623,63.2203934 C153.101639,63.3674426 151.57082,64.5325246 151.427541,66.7194098 C151.427541,68.3218689 153.539016,69.7056393 157.765738,70.8707213 C164.60918,71.4551475 168.764262,75.606459 170.223443,83.3246557 C169.635246,91.1899016 164.831639,95.3412131 155.797541,95.7823607 C146.910492,95.6353115 142.397213,93.6708852 142.253934,89.881541 C142.397213,87.4043279 143.633934,86.0959672 145.967869,85.948918 C146.691803,85.948918 148.003934,86.2392459 149.900492,86.8236721 C152.226885,87.6946557 154.048033,88.1320328 155.360164,88.1320328 C159.002459,87.9887541 160.895246,86.3825246 161.042295,83.3246557 C161.042295,81.5751475 158.712131,79.976459 154.048033,78.5172787 C147.494918,77.936623 143.633934,74.3659672 142.468852,67.8128525 C143.049508,59.9438361 147.638197,55.7208852 156.238689,55.136459 C163.22918,55.5738361 166.867705,57.3987541 167.161803,60.5999016" id="Fill-14"></path>
            <path d="M173.716049,60.5999016 C173.716049,57.3987541 175.09982,55.7925246 177.871131,55.7925246 L191.855885,55.7925246 C194.329328,55.9395738 195.637689,57.1800656 195.788508,59.506459 C195.637689,61.9874426 194.329328,63.2958033 191.855885,63.439082 L182.018672,63.439082 L182.018672,71.5230164 L191.19982,71.5230164 C193.673262,71.6738361 195.053262,72.9821967 195.347361,75.4594098 C195.053262,77.936623 193.673262,79.2487541 191.19982,79.3920328 L182.018672,79.3920328 L182.018672,87.9133443 L192.289492,87.9133443 C194.766705,87.9133443 196.078836,89.1538361 196.222115,91.6272787 C196.078836,94.1082623 194.766705,95.416623 192.289492,95.5599016 L177.871131,95.5599016 C175.246869,95.416623 173.859328,94.0328525 173.716049,91.4085902 L173.716049,60.5999016 Z" id="Fill-16"></path>
            <path d="M197.752934,102.631459 C197.752934,102.631459 195.716869,115.043918 172.780967,115.266377 C149.837525,115.507689 81.7311311,101.94523 44.1506393,107.423754 C6.55506557,112.883426 3.93080328,140.087525 3.93080328,140.087525 C3.93080328,140.087525 22.0894918,132.214738 29.7285082,132.271295 C29.7285082,132.271295 24.9022787,156.481623 30.1922787,163.762443 C30.1922787,163.762443 42.5783443,140.81523 86.9796557,141.071623 C131.380967,141.328016 159.474902,142.640148 181.645393,131.739656 C203.800803,120.842934 197.752934,102.631459 197.752934,102.631459" id="Fill-18"></path>
            <path d="M195.558131,70.4110984 L6.88272131,70.4110984 C3.63255738,70.4110984 0.996983607,73.0466721 0.996983607,76.2930656 C0.996983607,79.539459 3.63255738,82.1750328 6.88272131,82.1750328 L195.558131,82.1750328 C198.804525,82.1750328 201.440098,79.539459 201.440098,76.2930656 C201.440098,73.0466721 198.804525,70.4110984 195.558131,70.4110984" id="Fill-20"></path>
            <path d="M188.672836,39.2472295 L165.495623,39.2472295 C161.348082,39.2472295 157.954639,35.8537869 157.954639,31.7062459 L157.954639,8.53280328 C157.954639,4.3814918 161.348082,0.991819672 165.495623,0.991819672 L188.672836,0.991819672 C192.820377,0.991819672 196.21382,4.3814918 196.21382,8.53280328 L196.21382,31.7062459 C196.21382,35.8537869 192.820377,39.2472295 188.672836,39.2472295 Z M181.415393,19.0140164 L188.666049,11.7784426 C189.36359,11.0771311 189.36359,9.94598361 188.666049,9.24844262 C187.968508,8.55467213 186.837361,8.55467213 186.14359,9.24844262 L178.508344,16.895 C179.107852,16.9251639 179.722443,17.3172951 180.16359,17.7509016 L181.415393,19.0140164 Z M179.051295,18.8537705 C178.353754,18.1637705 177.230148,18.1637705 176.543918,18.8537705 C176.525066,18.8688525 169.900311,25.5011475 169.900311,25.5011475 L169.900311,10.4418033 C169.900311,9.45770492 169.097197,8.66213115 168.12441,8.66213115 C167.136541,8.66213115 166.340967,9.45770492 166.340967,10.4418033 L166.340967,29.7919672 C166.340967,30.5083607 166.763262,31.1644262 167.426869,31.4396721 C167.653098,31.5301639 167.89441,31.5754098 168.12441,31.5754098 C168.58441,31.5754098 169.040639,31.3906557 169.387525,31.047541 L177.799492,22.6355738 L186.207689,31.047541 C186.565885,31.4057377 187.018344,31.5754098 187.474574,31.5754098 C187.927033,31.5754098 188.379492,31.4057377 188.726377,31.047541 C189.423918,30.3537705 189.423918,29.2263934 188.726377,28.5288525 L179.051295,18.8537705 Z" id="Combined-Shape"></path>
        </g>
    </g>
</svg>