<?xml version="1.0" encoding="UTF-8"?>
<svg width="187px" height="183px" viewBox="0 0 187 183" version="1.1" xmlns="http://www.w3.org/2000/svg" xmlns:xlink="http://www.w3.org/1999/xlink">
    <!-- Generator: Sketch 43.1 (39012) - http://www.bohemiancoding.com/sketch -->
    <title>Page 1</title>
    <desc>Created with Sketch.</desc>
    <defs></defs>
    <g id="发动态弹框" stroke="none" stroke-width="1" fill="none" fill-rule="evenodd">
        <g id="Page-1" transform="translate(-0.377049, -0.557377)" fill="#FFFFFF">
            <polygon id="Fill-1" points="13.5319836 170.793656 9.95378689 179.578902 9.90854098 179.578902 6.31903279 170.793656 4.62608197 170.793656 4.62608197 182.810213 6.16067213 182.810213 6.16067213 174.334148 6.221 174.334148 9.27132787 181.63759 10.5721475 181.63759 13.6149344 174.334148 13.6790328 174.334148 13.6790328 182.810213 15.2249344 182.810213 15.2249344 170.793656"></polygon>
            <path d="M20.665,170.793656 L16.7135246,182.810213 L18.4479508,182.810213 L19.5112295,179.367754 L23.5833607,179.367754 L24.6353279,182.810213 L26.4753279,182.810213 L22.520082,170.793656 L20.665,170.793656 Z M21.5246721,172.765623 L21.5812295,172.765623 L23.1761475,177.961361 L19.9184426,177.961361 L21.5246721,172.765623 Z" id="Fill-2"></path>
            <polygon id="Fill-3" points="34.4389836 170.793656 29.7220984 176.464475 29.6466885 176.464475 29.6466885 170.793656 27.9348852 170.793656 27.9348852 182.810213 29.6466885 182.810213 29.6466885 178.711689 30.9663607 177.169557 34.4842295 182.810213 36.6070164 182.810213 32.2294754 175.925295 36.3996393 170.793656"></polygon>
            <polygon id="Fill-4" points="37.9444098 170.793656 37.9444098 182.810213 44.9047377 182.810213 44.9047377 181.253 39.6486721 181.253 39.6486721 177.441033 44.6106393 177.441033 44.6106393 175.944148 39.6486721 175.944148 39.6486721 172.350869 44.9047377 172.350869 44.9047377 170.793656"></polygon>
            <polygon id="Fill-5" points="49.3294098 170.793656 49.3294098 172.369721 52.7077705 172.369721 52.7077705 182.810213 54.4044918 182.810213 54.4044918 172.369721 57.7828525 172.369721 57.7828525 170.793656"></polygon>
            <polygon id="Fill-6" points="66.3271639 170.793656 66.3271639 175.831033 60.9278197 175.831033 60.9278197 170.793656 59.2197869 170.793656 59.2197869 182.810213 60.9278197 182.810213 60.9278197 177.395787 66.3271639 177.395787 66.3271639 182.810213 68.0389672 182.810213 68.0389672 170.793656"></polygon>
            <polygon id="Fill-7" points="70.6164754 170.793656 70.6164754 182.810213 77.5805738 182.810213 77.5805738 181.253 72.3245082 181.253 72.3245082 177.441033 77.2827049 177.441033 77.2827049 175.944148 72.3245082 175.944148 72.3245082 172.350869 77.5805738 172.350869 77.5805738 170.793656"></polygon>
            <polygon id="Fill-8" points="93.9871148 170.793656 91.9321967 179.922016 91.8794098 179.922016 89.718918 170.793656 88.0825246 170.793656 85.9144918 179.922016 85.8579344 179.922016 83.8030164 170.793656 81.9441639 170.793656 85.0246557 182.810213 86.5780984 182.810213 88.8705574 173.74218 88.9308852 173.74218 91.2233443 182.810213 92.7692459 182.810213 95.8459672 170.793656"></polygon>
            <path d="M98.4789016,177.704213 C98.4789016,180.275689 99.7382459,181.482246 101.401033,181.482246 C103.071361,181.482246 104.326934,180.275689 104.326934,177.704213 L104.326934,175.99618 C104.326934,173.436016 103.071361,172.123885 101.401033,172.123885 C99.7382459,172.123885 98.4789016,173.436016 98.4789016,175.99618 L98.4789016,177.704213 Z M96.7520164,176.015033 C96.7520164,172.598967 98.5769344,170.54782 101.419885,170.54782 C104.259066,170.54782 106.05382,172.598967 106.05382,176.015033 L106.05382,177.704213 C106.05382,181.105197 104.232672,183.058311 101.385951,183.058311 C98.5467705,183.058311 96.7520164,181.105197 96.7520164,177.704213 L96.7520164,176.015033 Z" id="Fill-9"></path>
            <path d="M112.139393,176.64018 C113.617426,176.64018 114.40923,175.882311 114.40923,174.524934 C114.40923,173.065754 113.519393,172.319197 112.18841,172.319197 L109.880869,172.319197 L109.880869,176.64018 L112.139393,176.64018 Z M116.17759,174.445754 C116.17759,176.417721 115.031361,177.431984 114.084967,177.801492 L116.384967,182.812475 L114.450705,182.812475 L112.388246,178.129525 L109.880869,178.129525 L109.880869,182.812475 L108.184148,182.812475 L108.184148,170.792148 L112.42218,170.792148 C114.997426,170.792148 116.17759,172.485098 116.17759,174.445754 L116.17759,174.445754 Z" id="Fill-12"></path>
            <polygon id="Fill-14" points="125.148344 182.811344 118.353918 182.811344 118.353918 170.791016 120.065721 170.791016 120.065721 181.220197 125.148344 181.220197"></polygon>
            <path d="M128.338934,181.253754 L130.273197,181.253754 C132.565656,181.253754 133.67418,179.798344 133.67418,176.815885 C133.67418,174.119984 132.773033,172.351623 130.273197,172.351623 L128.338934,172.351623 L128.338934,181.253754 Z M130.424016,170.79441 C134.077623,170.79441 135.442541,173.275393 135.442541,176.789492 C135.442541,180.247033 134.13041,182.810967 130.424016,182.810967 L126.627131,182.810967 L126.627131,170.79441 L130.424016,170.79441 Z" id="Fill-16"></path>
            <polygon id="Fill-18" points="140.828689 182.811344 140.828689 170.791016 142.521639 170.791016 146.111148 179.580033 146.152623 179.580033 149.73082 170.791016 151.427541 170.791016 151.427541 182.811344 149.881639 182.811344 149.881639 174.331508 149.817541 174.331508 146.774754 181.638721 145.470164 181.638721 142.423607 174.331508 142.363279 174.331508 142.363279 182.811344"></polygon>
            <path d="M155.314164,177.704213 C155.314164,180.275689 156.577279,181.482246 158.236295,181.482246 C159.906623,181.482246 161.162197,180.275689 161.162197,177.704213 L161.162197,175.99618 C161.162197,173.436016 159.906623,172.123885 158.236295,172.123885 C156.577279,172.123885 155.314164,173.436016 155.314164,175.99618 L155.314164,177.704213 Z M153.587279,176.015033 C153.587279,172.598967 155.412197,170.54782 158.255148,170.54782 C161.094328,170.54782 162.889082,172.598967 162.889082,176.015033 L162.889082,177.704213 C162.889082,181.105197 161.071705,183.058311 158.221213,183.058311 C155.382033,183.058311 153.587279,181.105197 153.587279,177.704213 L153.587279,176.015033 Z" id="Fill-20"></path>
            <polygon id="Fill-23" points="167.547902 182.811344 163.558721 170.791016 165.519377 170.791016 168.486754 180.601836 168.550852 180.601836 171.491836 170.791016 173.414787 170.791016 169.433148 182.811344"></polygon>
            <polygon id="Fill-25" points="181.976443 182.811344 175.016115 182.811344 175.016115 170.791016 181.976443 170.791016 181.976443 172.352 176.720377 172.352 176.720377 175.945279 181.678574 175.945279 181.678574 177.442164 176.720377 177.442164 176.720377 181.254131 181.976443 181.254131"></polygon>
            <path d="M18.9430164,87.9763115 L23.7956393,87.9763115 C26.8648197,87.8179508 28.7236721,87.735 29.3721967,87.735 L33.2482623,87.735 L33.9759672,51.8436885 C33.9759672,47.3228689 33.8967869,43.360082 33.7346557,39.9666393 C33.5725246,38.507459 34.058918,37.9418852 35.1900656,38.2661475 C39.5562951,39.3972951 42.5462951,40.2909016 44.1600656,40.9356557 L44.4051475,40.9356557 C45.0499016,41.259918 45.2120328,41.9046721 44.8877705,42.8736885 C44.7294098,45.4602459 44.646459,48.612377 44.646459,52.330082 L44.4051475,57.4240164 L46.3469508,57.1827049 C48.771377,57.1827049 51.761377,56.8584426 55.3169508,56.209918 C55.9617049,56.6963115 56.9344918,57.6653279 58.224,59.1207377 C58.7103934,59.7692623 59.0346557,60.1727049 59.1967869,60.3310656 C59.5210492,60.6590984 59.6002295,60.9795902 59.4380984,61.3038525 C59.2759672,61.4659836 58.9554754,61.5451639 58.469082,61.5451639 C57.3379344,61.3868033 54.6721967,61.3868033 50.4680984,61.5451639 L48.0436721,61.5451639 L44.4051475,61.7902459 L44.1600656,87.2486066 L50.9507213,87.0072951 C53.5372787,87.0072951 56.1238361,86.7659836 58.7103934,86.2795902 C60.1658033,87.5766393 61.2969508,88.7040164 62.1076066,89.6730328 C62.4280984,90.1594262 62.5110492,90.4836885 62.348918,90.6458197 C62.348918,90.8041803 62.1076066,90.8871311 61.6212131,90.8871311 L52.4061311,90.8871311 L30.8238361,91.3697541 C30.0169508,91.5318852 28.561541,91.6148361 26.461377,91.6148361 C24.6817049,91.7731967 23.2262951,91.8561475 22.0951475,91.8561475 L18.9430164,87.9763115 Z M7.54859016,40.2079508 L8.75891803,38.752541 C14.9010492,40.2079508 19.6707213,41.987623 23.0679344,44.0877869 C25.3302295,45.0568033 25.8128525,46.5122131 24.5195738,48.4540164 C23.0679344,50.5541803 20.8848197,52.8994262 17.974,55.4822131 C15.3874426,50.9613934 11.9110492,45.867459 7.54859016,40.2079508 L7.54859016,40.2079508 Z M29.1271148,74.8813934 L30.0961311,76.3368033 C27.5095738,78.9233607 22.8228525,83.2104098 16.0359672,89.1904098 C14.4184262,90.8041803 13.2872787,91.8561475 12.6387541,92.342541 C11.8318689,93.1494262 11.0212131,93.1494262 10.2143279,92.342541 C8.75891803,91.207623 6.98301639,89.4317213 4.87908197,87.0072951 C8.27252459,84.9071311 9.81088525,82.882377 9.48662295,80.9443443 L9.48662295,61.7902459 L3.6687541,62.2728689 L0.999245902,58.3930328 L8.51760656,57.9066393 C9.3244918,57.9066393 9.81088525,57.5069672 9.97301639,56.6963115 C10.1351475,56.5379508 10.2143279,56.209918 10.2143279,55.7272951 C10.376459,55.4030328 10.4594098,55.1617213 10.4594098,54.9995902 C10.6177705,54.3548361 10.7799016,53.947623 10.9420328,53.7854918 C11.1041639,53.6271311 11.5076066,53.7854918 12.1561311,54.2718852 C16.356459,56.6963115 19.7499016,58.7964754 22.336459,60.5761475 C22.9849836,61.0587705 23.2262951,61.3868033 23.0679344,61.5451639 C23.0679344,61.8731967 22.7436721,62.1936885 22.0951475,62.5179508 C20.3192459,63.0005738 19.591541,63.8904098 19.9120328,65.1836885 L19.9120328,79.247623 L29.1271148,74.8813934 Z" id="Fill-27"></path>
            <path d="M96.2972951,60.5757705 L96.0559836,71.7288852 L102.601557,71.4875738 L102.842869,60.334459 L96.2972951,60.5757705 Z M79.322541,87.2482295 L106.481393,86.5205246 C111.654508,86.3621639 115.455164,86.1208525 117.87959,85.7928197 C118.365984,86.2792131 119.010738,86.9277377 119.817623,87.734623 C120.304016,88.2210164 120.628279,88.5415082 120.79041,88.7036393 C121.273033,89.6726557 121.193852,90.1590492 120.545328,90.1590492 L107.936803,90.1590492 L79.8089344,91.1280656 C75.6048361,91.1280656 72.3735246,91.8557705 70.107459,93.3111803 L67.2004098,87.4933115 C69.6248361,87.006918 70.6768033,85.7136393 70.352541,83.6097049 L70.5938525,61.7898689 C69.9453279,61.7898689 69.217623,61.8728197 68.4107377,62.0311803 L67.2004098,62.0311803 L64.0482787,57.4236393 L70.8351639,57.4236393 L70.8351639,51.847082 L70.8351639,40.6939672 C70.8351639,40.0492131 70.9181148,39.642 71.0802459,39.4798689 C71.4007377,39.4798689 71.9663115,39.642 72.7769672,39.9662623 C74.3907377,40.4488852 76.4946721,41.1765902 79.0812295,42.1456066 L79.567623,42.3906885 C80.5366393,42.7149508 80.940082,43.4426557 80.7779508,44.5700328 L80.7779508,50.3916721 L80.5366393,56.9372459 L86.5995902,56.6959344 C86.7579508,53.1403607 86.8409016,49.4226557 86.8409016,45.5428197 L86.8409016,40.4488852 C86.6787705,39.8041311 86.6787705,39.396918 86.8409016,39.2385574 C87.0030328,39.0764262 87.4064754,39.0764262 88.0512295,39.2385574 C91.9310656,40.3697049 94.517623,41.1765902 95.8146721,41.6629836 C96.4594262,41.8213443 96.779918,42.3906885 96.779918,43.3597049 C96.6215574,44.1703607 96.5386066,45.2185574 96.5386066,46.5118361 L96.2972951,56.454623 L102.842869,56.209541 L103.087951,44.5700328 L103.087951,39.7211803 C102.92582,39.0764262 102.92582,38.7521639 103.087951,38.7521639 C103.250082,38.5938033 103.570574,38.5938033 104.056967,38.7521639 C107.45041,39.396918 110.199098,40.124623 112.303033,40.9352787 C112.785656,41.0936393 113.026967,41.5008525 113.026967,42.1456066 C112.868607,42.7941311 112.785656,43.8460984 112.785656,45.2977377 C112.623525,46.4326557 112.544344,49.9052787 112.544344,55.726918 C113.675492,55.5647869 115.534344,55.3234754 118.120902,54.9992131 C118.765656,54.8408525 119.252049,54.7579016 119.576311,54.7579016 C119.900574,54.9200328 120.545328,55.5647869 121.514344,56.6959344 C122.487131,57.6687213 123.052705,58.3134754 123.214836,58.6339672 C123.535328,59.1203607 123.618279,59.4483934 123.456148,59.6067541 C123.456148,59.7688852 123.214836,59.8480656 122.728443,59.8480656 C118.203852,59.8480656 114.806639,59.9310164 112.544344,60.0931475 C112.382213,64.4556066 112.303033,70.1151148 112.303033,77.0641311 C112.465164,78.0331475 112.220082,78.519541 111.575328,78.519541 C108.664508,79.4885574 105.91582,80.2162623 103.329262,80.7026557 C102.680738,80.8647869 102.439426,80.4575738 102.601557,79.4885574 L102.601557,75.8538033 L96.0559836,76.3364262 L96.0559836,79.0059344 C96.0559836,79.4885574 95.7317213,79.8165902 95.0831967,79.9749508 C93.1451639,80.7856066 90.5586066,81.5133115 87.3272951,82.1580656 C86.6787705,82.4823279 86.3545082,82.1580656 86.3545082,81.1852787 L86.3545082,75.8538033 C86.5166393,69.3874098 86.5995902,64.4556066 86.5995902,61.0583934 L80.5366393,61.3034754 L80.0502459,83.8547869 C80.0502459,85.4723279 79.8089344,86.6034754 79.322541,87.2482295 L79.322541,87.2482295 Z" id="Fill-30"></path>
            <path d="M168.55877,45.2988689 L161.281721,45.5401803 L161.281721,50.3928033 C162.899262,50.3928033 164.192541,50.2344426 165.165328,49.9064098 C166.292705,51.0375574 167.182541,52.1724754 167.831066,53.303623 C168.155328,53.6278852 168.234508,53.8691967 168.072377,54.0275574 C168.072377,54.1896885 167.910246,54.2726393 167.589754,54.2726393 C164.516803,54.2726393 162.416639,54.3555902 161.281721,54.5139508 L161.281721,59.1214918 C163.385656,59.1214918 165.406639,58.8801803 167.344672,58.3937869 C167.506803,58.555918 167.748115,58.7972295 168.072377,59.1214918 L168.317459,59.3628033 L168.55877,45.2988689 Z M147.217787,55.2416557 L145.038443,51.6031311 L145.038443,59.8491967 L152.066639,59.6041148 L152.066639,55.0003443 C150.615,55.0003443 148.997459,55.0832951 147.217787,55.2416557 L147.217787,55.2416557 Z M145.038443,51.1167377 C147.783361,51.1167377 149.725164,51.0375574 150.856311,50.8754262 L152.066639,50.8754262 L152.066639,46.0265738 L145.038443,46.2678852 L145.038443,51.1167377 Z M162.49582,94.7677213 L162.49582,82.1554262 C162.49582,79.731 162.416639,77.5516557 162.254508,75.6098525 C162.254508,74.3165738 162.657951,73.8301803 163.464836,74.1544426 C163.626967,74.3165738 163.789098,74.3995246 163.95123,74.3995246 C163.626967,74.0752623 163.223525,73.6680492 162.737131,73.1854262 C160.636967,71.0852623 159.102377,69.388541 158.12959,68.0914918 C155.06041,70.8439508 151.666967,73.1854262 147.945492,75.1272295 L149.887295,76.0924754 C150.69418,76.5788689 150.939262,77.0652623 150.615,77.5516557 C150.615,77.875918 150.532049,78.4414918 150.369918,79.248377 C150.369918,79.8931311 150.290738,80.4587049 150.128607,80.9450984 C148.997459,89.6737869 142.693197,94.6847705 131.21582,95.9780492 L130.488115,94.7677213 C136.630246,90.7257541 139.944508,86.2803443 140.430902,81.4314918 C140.751393,80.4587049 140.913525,79.4896885 140.913525,78.5206721 C136.226803,80.1382131 131.540082,81.348541 126.84959,82.1554262 L126.121885,80.7037869 C135.499098,75.6928033 143.17959,70.0332951 149.15959,63.7290328 L145.038443,63.9703443 C145.196803,64.9393607 144.793361,65.5878852 143.824344,65.9121475 C143.500082,66.0705082 143.017459,66.2364098 142.368934,66.3947705 C140.106639,67.5296885 137.844344,68.253623 135.578279,68.5778852 C134.609262,68.7400164 134.20582,68.3365738 134.367951,67.3675574 C134.530082,64.4567377 134.609262,58.2354262 134.609262,48.6923115 C134.609262,45.2988689 134.530082,42.716082 134.367951,40.9364098 C134.20582,40.1257541 134.20582,39.6431311 134.367951,39.481 C134.530082,39.1567377 134.933525,39.0775574 135.578279,39.2396885 C138.164836,39.8844426 141.154836,40.853459 144.552049,42.1467377 L166.862049,41.4190328 C167.506803,41.4190328 168.072377,41.0193607 168.55877,40.2049344 C168.879262,39.7223115 169.041393,39.1567377 169.041393,38.5082131 C169.203525,37.5391967 169.689918,37.2978852 170.496803,37.7805082 C175.669918,40.5329672 178.98418,42.3918197 180.43959,43.3608361 C181.408607,44.0055902 181.895,44.4919836 181.895,44.8162459 C181.895,45.1405082 181.491557,45.461 180.680902,45.7852623 C179.549754,46.1095246 179.067131,46.7542787 179.229262,47.7232951 C179.067131,49.8272295 178.98418,54.3555902 178.98418,61.3046066 C179.146311,62.1152623 178.905,62.6770656 178.256475,63.0013279 C177.125328,63.8119836 174.53877,64.8601803 170.496803,66.153459 C168.879262,66.4777213 168.155328,66.153459 168.317459,65.1844426 L168.317459,63.0013279 L165.647951,63.0013279 C164.354672,63.163459 163.385656,63.2426393 162.737131,63.2426393 C162.57877,63.4047705 162.254508,63.7290328 161.768115,64.2154262 C161.443852,64.6980492 161.11959,65.1014918 160.799098,65.4257541 C169.365656,69.4677213 177.932213,72.0580492 186.502541,73.1854262 L186.257459,74.6408361 C183.995164,77.2273934 182.298443,79.8931311 181.167295,82.6418197 C180.843033,83.4524754 180.036148,83.6108361 178.742869,83.1282131 C178.580738,82.9698525 178.256475,82.8039508 177.773852,82.6418197 C175.345656,81.8349344 173.490574,81.0280492 172.193525,80.2173934 C172.031393,80.7037869 172.031393,81.348541 172.193525,82.1554262 L172.193525,82.8831311 C172.193525,87.2493607 172.276475,90.1601803 172.438607,91.6155902 C172.438607,92.9050984 172.031393,93.6328033 171.224508,93.7949344 C169.286475,94.7677213 166.699918,95.4954262 163.464836,95.9780492 C162.657951,96.1364098 162.333689,95.7367377 162.49582,94.7677213 L162.49582,94.7677213 Z" id="Fill-32"></path>
            <path d="M4.87945902,109.201918 C6.01060656,109.201918 7.70732787,109.122738 9.97339344,108.960607 L12.6391311,108.960607 L19.6710984,108.474213 C20.1574918,108.474213 20.8851967,108.395033 21.8542131,108.232902 C24.2786393,107.908639 26.2204426,107.667328 27.672082,107.505197 C28.9653607,108.960607 30.0173279,110.170934 30.8242131,111.143721 C31.1484754,111.626344 31.2314262,111.950607 31.0692951,112.112738 C30.9071639,112.271098 30.5829016,112.271098 30.0965082,112.112738 L26.4617541,112.112738 C24.5199508,112.271098 23.2266721,112.354049 22.581918,112.354049 L12.8842131,113.081754 C11.7492951,113.081754 9.97339344,113.164705 7.54896721,113.323066 L4.87945902,109.201918 Z M19.9124098,133.936344 L21.8542131,132.967328 C26.2204426,136.20241 29.3725738,139.27159 31.3106066,142.18241 C31.6348689,142.665033 31.8761803,143.068475 32.0383115,143.392738 C33.6558525,138.381754 34.9491311,131.187656 35.9181475,121.810443 C35.5938852,121.810443 35.0283115,121.893393 34.2214262,122.055525 C33.4107705,122.055525 32.7660164,122.138475 32.2833934,122.296836 L29.6138852,118.171918 C30.2586393,118.171918 31.3935574,118.092738 33.0073279,117.930607 C34.4627377,117.930607 35.5147049,117.851426 36.159459,117.689295 C36.3215902,116.88241 36.404541,115.668311 36.404541,114.05077 C36.5629016,112.437 36.6458525,111.226672 36.6458525,110.416016 C36.8079836,108.802246 36.8871639,106.211918 36.8871639,102.656344 C36.7250328,101.845689 37.2114262,101.683557 38.3425738,102.169951 C41.0912623,102.656344 43.5986393,103.384049 45.8609344,104.353066 C46.3473279,104.515197 46.5056885,104.918639 46.3473279,105.563393 C46.0230656,107.667328 45.8609344,109.846672 45.8609344,112.112738 C45.8609344,112.595361 45.7779836,113.406016 45.619623,114.537164 C45.619623,115.668311 45.5366721,116.561918 45.374541,117.202902 L48.2853607,116.96159 C49.254377,116.96159 49.8991311,116.561918 50.2233934,115.747492 C50.5476557,115.102738 50.7097869,114.620115 50.7097869,114.295852 C50.871918,113.809459 51.0340492,113.485197 51.1961803,113.323066 C51.3583115,113.323066 51.7617541,113.485197 52.4065082,113.809459 C56.7727377,116.720279 59.6006066,118.658311 60.8938852,119.631098 C61.5424098,119.955361 61.7837213,120.275852 61.6215902,120.596344 C61.6215902,120.924377 61.2973279,121.244869 60.6525738,121.569131 C59.5214262,121.893393 58.9558525,122.538148 58.9558525,123.507164 C58.7937213,133.050279 58.5486393,139.995525 58.224377,144.361754 C57.7417541,149.697 56.5314262,152.687 54.589623,153.335525 C52.4856885,155.111426 50.3855246,156.887328 48.2853607,158.67077 C47.1542131,159.798148 46.3473279,160.12241 45.8609344,159.639787 C45.2124098,159.315525 44.9710984,158.342738 45.1332295,156.728967 C45.4574918,154.628803 45.2124098,153.335525 44.4055246,152.849131 C44.2433934,152.687 43.6778197,152.283557 42.7088033,151.635033 C41.2533934,150.666016 40.2014262,149.859131 39.5566721,149.210607 L40.284377,147.758967 L47.5576557,149.210607 C48.8509344,146.948311 49.6578197,137.491918 49.982082,120.841426 L45.1332295,121.082738 C43.8399508,140.157656 37.777,152.932082 26.9481475,159.398475 L25.2476557,158.67077 C25.4097869,158.184377 25.7340492,157.535852 26.2204426,156.728967 C28.1584754,153.173393 29.4517541,150.424705 30.0965082,148.482902 C29.1274918,149.61782 27.5929016,150.828148 25.4927377,152.121426 C25.0063443,152.283557 24.682082,152.362738 24.5199508,152.362738 C24.3615902,151.235361 23.8751967,149.293557 23.0683115,146.544869 L13.6081475,150.183393 C10.0525738,151.476672 7.54896721,152.932082 6.09355738,154.545852 L1.72732787,144.606836 C4.1517541,144.444705 5.76929508,143.392738 6.57618033,141.450934 C6.57618033,141.292574 6.65913115,141.051262 6.8212623,140.72323 C8.11077049,137.81618 9.24568852,134.82241 10.2147049,131.75323 C10.3768361,131.428967 10.5389672,130.946344 10.6973279,130.29782 C11.1837213,128.521918 11.5079836,127.228639 11.6701148,126.417984 C10.6973279,126.417984 9.487,126.500934 8.03159016,126.659295 C6.57618033,126.821426 5.36585246,126.987328 4.39683607,127.145689 L1.72732787,122.538148 C6.25568852,122.538148 9.32486885,122.458967 10.9424098,122.296836 L20.6401148,121.810443 C23.5509344,121.810443 26.4617541,121.41077 29.3725738,120.596344 C30.662082,122.055525 31.7140492,123.427984 32.5247049,124.721262 C32.8451967,125.207656 32.9281475,125.448967 32.7660164,125.448967 C32.7660164,125.611098 32.4417541,125.690279 31.797,125.690279 C27.9171639,125.690279 25.2476557,125.777 23.7960164,125.93159 L20.1574918,125.93159 C20.4817541,126.259623 21.0473279,126.580115 21.8542131,126.904377 L22.581918,127.145689 C23.0683115,127.473721 23.309623,127.715033 23.309623,127.873393 C23.309623,128.035525 23.1474918,128.276836 22.8232295,128.601098 C21.209459,130.539131 19.6710984,132.480934 18.2156885,134.418967 C15.4707705,138.626836 12.8842131,141.858148 10.4560164,144.120443 L22.3368361,142.906344 C22.1784754,142.265361 21.9333934,141.292574 21.6091311,139.995525 C20.964377,137.412738 20.3988033,135.391754 19.9124098,133.936344 L19.9124098,133.936344 Z" id="Fill-35"></path>
            <path d="M63.8043279,124.236 C64.6112131,124.236 66.3117049,124.15682 68.8982623,123.994689 L72.0503934,123.994689 L77.6269508,123.508295 L77.6269508,116.717639 L74.7161311,116.962721 C72.936459,116.962721 71.2397377,117.124852 69.6221967,117.445344 L67.1977705,113.082885 C67.8462951,113.082885 69.1395738,112.999934 71.0776066,112.841574 L73.5020328,112.841574 L77.6269508,112.596492 L77.6269508,111.627475 C77.6269508,109.044689 77.544,106.050918 77.3856393,102.653705 C77.3856393,102.008951 77.4648197,101.684689 77.6269508,101.684689 C77.6269508,101.526328 77.9474426,101.526328 78.5959672,101.684689 C81.1825246,102.167311 83.8482623,102.981738 86.5969508,104.109115 C87.2454754,104.271246 87.4867869,104.678459 87.3246557,105.323213 C87.1625246,106.616492 87.0833443,108.716656 87.0833443,111.627475 L87.0833443,111.868787 C87.5659672,111.868787 88.2974426,111.789607 89.2626885,111.627475 C90.5597377,111.469115 91.4495738,111.303213 91.9321967,111.141082 C93.3876066,112.27223 94.356623,113.407148 94.8430164,114.538295 C95.1635082,114.862557 95.246459,115.103869 95.0843279,115.266 C95.0843279,115.428131 94.9221967,115.507311 94.5979344,115.507311 C93.628918,115.507311 91.366623,115.669443 87.8110492,115.989934 L87.0833443,115.989934 L87.0833443,123.021902 C89.6699016,122.863541 91.6908852,122.539279 93.1462951,122.052885 C93.628918,122.539279 94.1944918,123.266984 94.8430164,124.236 C94.8430164,123.753377 94.9221967,122.863541 95.0843279,121.566492 C95.0843279,120.439115 95.1635082,119.628459 95.3256393,119.142066 C95.3256393,118.659443 95.4085902,118.33518 95.5707213,118.173049 C95.8912131,118.014689 96.3776066,118.093869 97.0261311,118.418131 C98.4777705,118.900754 100.743836,119.71141 103.813016,120.842557 C104.137279,121.004689 104.37859,121.083869 104.540721,121.083869 L106.723836,121.083869 L108.906951,121.083869 L109.148262,111.382393 L100.902197,111.868787 C99.2884262,111.868787 97.346623,112.030918 95.0843279,112.35518 L92.6599016,107.988951 C96.864,107.988951 99.2884262,107.90977 99.9369508,107.747639 L107.692852,107.506328 C108.499738,107.506328 108.986131,107.102885 109.148262,106.29223 C109.310393,106.133869 109.472525,105.726656 109.634656,105.078131 C109.796787,104.91977 109.875967,104.753869 109.875967,104.595508 C110.038098,103.626492 110.441541,103.38141 111.090066,103.867803 C111.896951,104.354197 113.111049,105.161082 114.72482,106.29223 C117.311377,107.90977 118.928918,109.044689 119.577443,109.685672 C120.222197,110.172066 120.546459,110.575508 120.546459,110.89977 C120.70859,111.061902 120.463508,111.382393 119.818754,111.868787 C118.687607,112.35518 118.122033,113.165836 118.122033,114.293213 L117.876951,123.753377 C118.039082,124.718623 117.79777,125.205016 117.149246,125.205016 C116.18023,125.853541 114.000885,126.581246 110.603672,127.388131 C109.148262,127.712393 108.499738,127.388131 108.661869,126.419115 L108.661869,124.963705 L107.692852,124.963705 L104.058098,124.963705 C103.733836,127.874525 103.571705,130.216 103.571705,131.995672 C103.085311,136.037639 104.29941,137.900262 107.21023,137.57223 L107.937934,137.57223 C110.038098,137.900262 111.572689,137.979443 112.545475,137.817311 L115.697607,128.357148 L117.876951,128.843541 C117.876951,132.399115 117.959902,134.823541 118.122033,136.11682 C117.959902,137.413869 118.687607,138.299934 120.301377,138.786328 C121.918918,139.268951 122.808754,139.996656 122.970885,140.965672 C122.970885,142.749115 120.70859,144.038623 116.18023,144.845508 C112.462525,145.331902 108.906951,145.414852 105.513508,145.09059 C100.660885,144.766328 97.7500656,143.718131 96.7810492,141.938459 C95.4877705,140.483049 94.8430164,136.844525 94.8430164,131.026656 L94.8430164,126.905508 C92.9012131,126.905508 90.7218689,126.984689 88.2974426,127.14682 L84.1725246,127.388131 C84.8210492,127.550262 85.7108852,127.791574 86.8382623,128.115836 C87.0003934,128.277967 87.1625246,128.357148 87.3246557,128.357148 C87.648918,128.68518 87.8110492,129.167803 87.8110492,129.812557 L87.5659672,134.178787 C88.5387541,134.178787 89.8320328,134.020426 91.4495738,133.692393 C91.2874426,133.854525 91.4495738,133.854525 91.9321967,133.692393 C92.9012131,134.823541 93.7118689,135.792557 94.356623,136.603213 C94.6808852,136.927475 94.7600656,137.247967 94.5979344,137.57223 C94.4395738,137.734361 94.1153115,137.817311 93.628918,137.817311 C91.8492459,137.817311 90.3146557,137.900262 89.021377,138.058623 L87.5659672,138.058623 L87.3246557,146.546 C98.1572787,149.132557 110.603672,150.022393 124.667607,149.211738 L124.426295,151.153541 C122.484492,152.280918 120.70859,154.143541 119.091049,156.730098 C118.442525,158.506 117.070066,159.154525 114.969902,158.668131 C96.864,158.181738 83.1243279,154.143541 73.7471148,146.546 C72.1295738,151.07059 69.2187541,155.029607 65.0146557,158.42682 L64.0456393,157.699115 C65.6631803,152.043377 66.8735082,145.980426 67.6841639,139.514033 C67.6841639,138.541246 67.7633443,137.330918 67.9254754,135.875508 C68.0876066,134.420098 68.1705574,132.964689 68.1705574,131.509279 L68.1705574,131.267967 C68.1705574,130.13682 68.7361311,129.812557 69.8672787,130.298951 C72.6121967,130.943705 74.9574426,131.754361 76.8992459,132.723377 C77.3856393,132.885508 77.544,133.368131 77.3856393,134.178787 C77.2235082,134.66518 76.8992459,135.875508 76.4128525,137.817311 C75.926459,139.431082 75.6059672,140.64518 75.4438361,141.452066 C75.4438361,141.938459 75.2817049,142.507803 74.9574426,143.148787 C75.4438361,143.148787 76.0094098,143.310918 76.6541639,143.63518 C77.4648197,143.797311 78.0303934,143.959443 78.3508852,144.117803 L78.5959672,127.874525 L78.5959672,127.629443 L73.0194098,127.874525 C70.4328525,128.032885 68.1705574,128.198787 66.2287541,128.357148 L63.8043279,124.236 Z" id="Fill-37"></path>
            <path d="M150.371049,115.505803 L150.371049,113.809082 L138.976623,114.295475 L138.003836,114.295475 C137.196951,114.457607 136.548426,114.536787 136.065803,114.536787 C140.428262,115.667934 144.149738,117.289246 147.218918,119.385639 C149.160721,120.358426 149.564164,121.568754 148.433016,123.024164 C147.139738,124.641705 145.522197,126.259246 143.580393,127.873016 L150.371049,127.631705 L150.371049,115.505803 Z M168.31482,114.536787 C168.801213,113.243508 169.691049,113.081377 170.984328,114.050393 C172.277607,114.698918 174.37777,116.075148 177.28859,118.175311 C177.774984,118.499574 178.095475,118.740885 178.257607,118.899246 C179.226623,119.713672 179.147443,120.358426 178.016295,120.841049 C176.723016,121.327443 175.188426,122.213508 173.408754,123.510557 C170.660066,125.124328 168.152689,126.259246 165.890393,126.904 L169.287607,126.904 C169.77023,126.904 170.577115,126.821049 171.712033,126.658918 C176.074492,126.338426 179.147443,126.017934 180.927115,125.689902 C181.896131,126.504328 183.18941,127.714656 184.80318,129.328426 C185.289574,129.811049 185.451705,130.218262 185.289574,130.538754 C185.127443,130.700885 184.724,130.783836 184.075475,130.783836 C178.257607,130.783836 174.136459,130.866787 171.712033,131.025148 L164.434984,131.27023 C169.932361,136.119082 177.205639,140.402361 186.25859,144.120066 L185.775967,145.816787 C183.351541,147.272197 180.602852,150.024656 177.529902,154.062852 C176.885148,154.869738 176.153672,154.869738 175.346787,154.062852 C168.559902,148.889738 163.628098,141.85777 160.555148,132.966951 L160.555148,155.031869 C160.717279,156.325148 160.313836,157.132033 159.34482,157.456295 C156.596131,158.425311 153.685311,159.235967 150.612361,159.880721 C150.129738,160.042852 149.805475,160.042852 149.643344,159.880721 C149.481213,159.880721 149.402033,159.556459 149.402033,158.911705 C149.726295,151.480066 149.888426,145.737607 149.888426,141.695639 C143.259902,147.030885 135.662361,151.314164 127.092033,154.545475 L125.636623,152.848754 C134.689574,145.737607 141.725311,138.78482 146.736295,131.997934 L137.762525,132.235475 C136.144984,132.235475 133.479246,132.480557 129.761541,132.966951 L126.123016,128.35941 C131.940885,128.35941 135.417279,128.276459 136.548426,128.114328 L140.914656,128.114328 C138.328098,122.944984 136.144984,118.985967 134.365311,116.233508 L135.824492,114.536787 C135.338098,114.536787 134.527443,114.619738 133.400066,114.778098 C132.265148,114.778098 131.537443,114.86482 131.21318,115.02318 L127.578426,110.415639 L137.521213,110.415639 L150.371049,109.687934 C150.371049,107.421869 150.291869,105.080393 150.129738,102.655967 C150.129738,101.845311 150.208918,101.362689 150.371049,101.200557 C150.53318,101.042197 150.936623,101.042197 151.585148,101.200557 C155.140721,102.169574 158.213672,103.225311 160.80023,104.352689 C161.282852,104.51482 161.444984,104.918262 161.282852,105.563016 L161.282852,107.259738 C161.120721,108.074164 161.041541,108.718918 161.041541,109.201541 L166.86318,108.96023 C171.225639,108.801869 175.026295,108.394656 178.257607,107.746131 C180.037279,109.201541 181.247607,110.415639 181.896131,111.384656 C182.378754,111.871049 182.540885,112.274492 182.378754,112.598754 C182.216623,112.757115 181.81318,112.840066 181.164656,112.840066 C175.671049,112.840066 171.712033,112.923016 169.287607,113.081377 L160.80023,113.322689 L160.80023,115.747115 C160.638098,119.46859 160.555148,123.265475 160.555148,127.145311 L161.041541,127.145311 L160.80023,126.904 C161.120721,126.417607 161.607115,125.776623 162.251869,124.962197 C163.707279,123.024164 165.083508,120.761869 166.376787,118.175311 C166.86318,117.530557 167.345803,116.636951 167.828426,115.505803 C167.990557,115.02318 168.152689,114.698918 168.31482,114.536787 L168.31482,114.536787 Z" id="Fill-39"></path>
            <path d="M95.0948852,11.1231311 L102.345541,3.88755738 C103.043082,3.1862459 103.043082,2.05132787 102.345541,1.35755738 C101.65177,0.660016393 100.516852,0.660016393 99.823082,1.35755738 L92.1878361,9.00411475 C92.7873443,9.03427869 93.4019344,9.42640984 93.843082,9.86001639 L95.0948852,11.1231311 Z" id="Fill-41"></path>
            <path d="M92.7311639,10.9628852 C92.033623,10.2691148 90.9100164,10.2691148 90.2237869,10.9628852 C90.2087049,10.9779672 83.5801803,17.6064918 83.5801803,17.6064918 L83.5801803,2.55091803 C83.5801803,1.56681967 82.7808361,0.771245902 81.8042787,0.771245902 C80.8164098,0.771245902 80.0208361,1.56681967 80.0208361,2.55091803 L80.0208361,21.901082 C80.0208361,22.6174754 80.4469016,23.273541 81.1067377,23.5487869 C81.3329672,23.6392787 81.5742787,23.6845246 81.8042787,23.6845246 C82.2642787,23.6845246 82.7205082,23.496 83.0673934,23.1566557 L91.4793607,14.740918 L99.8875574,23.1566557 C100.249525,23.5148525 100.701984,23.6845246 101.154443,23.6845246 C101.606902,23.6845246 102.059361,23.5148525 102.406246,23.1566557 C103.103787,22.4628852 103.103787,21.3317377 102.406246,20.6379672 L92.7311639,10.9628852 Z" id="Fill-43"></path>
            <path d="M46.8665246,13.3492295 C46.8665246,15.1515246 45.4073443,16.6107049 43.6050492,16.6107049 C41.8027541,16.6107049 40.3435738,15.1515246 40.3435738,13.3492295 C40.3435738,11.5469344 41.8027541,10.0877541 43.6050492,10.0877541 C45.4073443,10.0877541 46.8665246,11.5469344 46.8665246,13.3492295" id="Fill-45"></path>
            <path d="M136.29618,13.3492295 C136.29618,15.1515246 134.837,16.6107049 133.034705,16.6107049 C131.23618,16.6107049 129.777,15.1515246 129.777,13.3492295 C129.777,11.5469344 131.23618,10.0877541 133.034705,10.0877541 C134.837,10.0877541 136.29618,11.5469344 136.29618,13.3492295" id="Fill-47"></path>
        </g>
    </g>
</svg>