<?xml version="1.0" encoding="UTF-8"?>
<svg width="114px" height="54px" viewBox="0 0 114 54" version="1.1" xmlns="http://www.w3.org/2000/svg" xmlns:xlink="http://www.w3.org/1999/xlink">
    <!-- Generator: Sketch 46.2 (44496) - http://www.bohemiancoding.com/sketch -->
    <title>天气</title>
    <desc>Created with Sketch.</desc>
    <defs></defs>
    <g id="Page-1" stroke="none" stroke-width="1" fill="none" fill-rule="evenodd">
        <g id="天气" fill="#FFFFFF">
            <path d="M12.4375,23.5625 C12.7291681,23.0208306 12.9791656,22.5000025 13.1875,22 C13.3541675,21.4999975 13.4583331,21.0416687 13.5,20.625 C13.5416669,20.2083313 13.5625,19.7500025 13.5625,19.25 C13.6041669,18.7083306 13.625,18.1250031 13.625,17.5 L13.625,16.6875 C13.5833331,16.3958319 13.5625,16.083335 13.5625,15.75 L13.4375,14.875 L13.1875,14.125 C13.1041662,13.8749988 12.9791675,13.6666675 12.8125,13.5 C12.6458325,13.2916656 12.4583344,13.1041675 12.25,12.9375 C12.0416656,12.7708325 11.7916681,12.6458338 11.5,12.5625 C11.166665,12.4791662 10.7916688,12.4375 10.375,12.4375 C9.8749975,12.4375 9.43750188,12.5208325 9.0625,12.6875 C8.68749813,12.8125006 8.35416813,13.0208319 8.0625,13.3125 C7.77083188,13.5625012 7.5416675,13.8958313 7.375,14.3125 C7.24999938,14.7291687 7.1875,15.2083306 7.1875,15.75 L7.1875,19.4375 L0.625,19.4375 L0.625,15.875 C0.625,15.1666631 0.687499375,14.5000031 0.8125,13.875 C0.937500625,13.2499969 1.14583187,12.6250031 1.4375,12 C1.68750125,11.4166637 1.979165,10.8541694 2.3125,10.3125 C2.645835,9.8124975 3.04166437,9.33333563 3.5,8.875 C3.91666875,8.41666437 4.39583063,8.020835 4.9375,7.6875 C5.4375025,7.31249812 5.99999688,7.00000125 6.625,6.75 C7.20833625,6.45833187 7.83333,6.25000062 8.5,6.125 C9.12500313,5.99999938 9.77083,5.9375 10.4375,5.9375 C11.3125044,5.9375 12.1041631,5.99999938 12.8125,6.125 C13.5625037,6.2916675 14.2499969,6.541665 14.875,6.875 C15.4583363,7.16666813 15.9999975,7.52083125 16.5,7.9375 C17.0000025,8.35416875 17.4583313,8.83333063 17.875,9.375 C18.2500019,9.91666937 18.5833319,10.4999969 18.875,11.125 C19.1666681,11.7083363 19.4166656,12.3541631 19.625,13.0625 C19.7916675,13.72917 19.9166663,14.4374962 20,15.1875 C20.0833338,15.8958369 20.125,16.6458294 20.125,17.4375 L20.125,18.9375 C20.125,19.3958356 20.1041669,19.8124981 20.0625,20.1875 C20.0625,20.5625019 20.0416669,20.9374981 20,21.3125 C19.9583331,21.645835 19.8958338,21.9999981 19.8125,22.375 C19.7708331,22.708335 19.6875006,23.041665 19.5625,23.375 C19.4791663,23.708335 19.3541675,24.0624981 19.1875,24.4375 C19.0208325,24.770835 18.8541675,25.1458313 18.6875,25.5625 C18.4791656,25.9791688 18.2291681,26.4374975 17.9375,26.9375 C16.9791619,28.7708425 16.1458369,30.3749931 15.4375,31.75 C14.7291631,33.1666737 14.1041694,34.374995 13.5625,35.375 C13.1458313,36.1666706 12.7916681,36.8749969 12.5,37.5 C12.166665,38.0833362 11.8958344,38.6041644 11.6875,39.0625 C10.7291619,40.8541756 10.1875006,41.8749988 10.0625,42.125 C9.93749938,42.3750012 9.35417188,43.4791569 8.3125,45.4375 L20.125,45.4375 L20.125,52 L0.625,52 L0.625,45.8125 C3.25001313,40.8958087 7.18747375,33.4792163 12.4375,23.5625 Z M25.1875,15 C25.2291669,14.5416644 25.2916663,14.1250019 25.375,13.75 C25.4166669,13.3749981 25.4999994,13.0416681 25.625,12.75 C25.7083338,12.416665 25.8124994,12.1041681 25.9375,11.8125 C26.0625006,11.5208319 26.1874994,11.2500012 26.3125,11 L26.8125,10.25 C27.0208344,9.95833187 27.2291656,9.68750125 27.4375,9.4375 C27.8541688,8.85416375 28.3333306,8.35416875 28.875,7.9375 C29.3750025,7.52083125 29.95833,7.145835 30.625,6.8125 C31.2500031,6.52083187 31.89583,6.2916675 32.5625,6.125 C33.2708369,5.99999938 33.9999963,5.9375 34.75,5.9375 C35.5000038,5.9375 36.20833,5.99999938 36.875,6.125 C37.5833369,6.2916675 38.2499969,6.52083187 38.875,6.8125 C39.5000031,7.145835 40.0833306,7.52083125 40.625,7.9375 C41.1666694,8.35416875 41.6458313,8.85416375 42.0625,9.4375 C42.2708344,9.68750125 42.4583325,9.95833187 42.625,10.25 C42.8333344,10.5000012 42.9999994,10.7499988 43.125,11 C43.2916675,11.2500012 43.4374994,11.5208319 43.5625,11.8125 C43.6875006,12.1041681 43.7916663,12.416665 43.875,12.75 C43.9583338,13.0416681 44.0416663,13.3749981 44.125,13.75 C44.2083338,14.1250019 44.2708331,14.5416644 44.3125,15 C44.3541669,15.4166687 44.375,15.8958306 44.375,16.4375 C44.4166669,16.9375025 44.4375,17.4999969 44.4375,18.125 C44.4375,18.8333369 44.4166669,19.4583306 44.375,20 L44.375,21.5625 C44.3333331,22.0208356 44.2916669,22.4583312 44.25,22.875 C44.1666663,23.2916687 44.0625006,23.6874981 43.9375,24.0625 C43.8541663,24.4375019 43.7291675,24.7708319 43.5625,25.0625 C43.3958325,25.395835 43.2083344,25.7083319 43,26 C42.7499988,26.2916681 42.4791681,26.5833319 42.1875,26.875 C41.8958319,27.1666681 41.5625019,27.479165 41.1875,27.8125 C41.5625019,28.1041681 41.8958319,28.3958319 42.1875,28.6875 C42.4791681,28.9791681 42.7499988,29.291665 43,29.625 C43.2083344,29.9166681 43.3958325,30.229165 43.5625,30.5625 C43.7291675,30.895835 43.8541663,31.2708313 43.9375,31.6875 C44.0625006,32.1041688 44.1666663,32.5624975 44.25,33.0625 C44.2916669,33.5208356 44.3333331,34.0416637 44.375,34.625 L44.375,36.625 C44.4166669,37.3333369 44.4375,38.1041625 44.4375,38.9375 C44.4375,39.6458369 44.4166669,40.2916637 44.375,40.875 C44.375,41.4583362 44.3541669,41.9791644 44.3125,42.4375 C44.2708331,42.8958356 44.2291669,43.3124981 44.1875,43.6875 C44.1458331,44.1041688 44.0833338,44.479165 44,44.8125 C43.9583331,45.145835 43.8958338,45.4583319 43.8125,45.75 C43.7291663,46.0416681 43.6250006,46.2916656 43.5,46.5 L43.125,47.25 L42.625,48 C42.2499981,48.5416694 41.8125025,49.0416644 41.3125,49.5 C40.8124975,50.0000025 40.22917,50.4374981 39.5625,50.8125 C38.89583,51.2291687 38.1666706,51.5208325 37.375,51.6875 C36.5833294,51.8958344 35.7083381,52 34.75,52 C33.7916619,52 32.9166706,51.8958344 32.125,51.6875 C31.2916625,51.5208325 30.54167,51.2291687 29.875,50.8125 C29.2499969,50.4374981 28.6666694,50.0000025 28.125,49.5 C27.6249975,49.0416644 27.1875019,48.5416694 26.8125,48 C26.6458325,47.7499987 26.5000006,47.5000012 26.375,47.25 L26,46.5 C25.8749994,46.2916656 25.7708338,46.0416681 25.6875,45.75 C25.6041663,45.4583319 25.5208338,45.145835 25.4375,44.8125 C25.3958331,44.479165 25.3333338,44.1041688 25.25,43.6875 C25.2083331,43.3124981 25.1666669,42.8958356 25.125,42.4375 C25.125,41.9791644 25.1041669,41.4583362 25.0625,40.875 L25.0625,36.625 C25.0625,35.9166631 25.0833331,35.2500031 25.125,34.625 C25.125,34.0416637 25.1666663,33.5208356 25.25,33.0625 C25.3333338,32.5624975 25.4166663,32.1041688 25.5,31.6875 C25.6250006,31.2708313 25.7708325,30.895835 25.9375,30.5625 C26.1041675,30.229165 26.2916656,29.9166681 26.5,29.625 C26.7083344,29.291665 26.9583319,28.9791681 27.25,28.6875 C27.583335,28.3958319 27.9374981,28.1041681 28.3125,27.8125 C27.9374981,27.479165 27.583335,27.1666681 27.25,26.875 C26.9583319,26.5833319 26.7083344,26.2916681 26.5,26 C26.2916656,25.7083319 26.1041675,25.395835 25.9375,25.0625 C25.7708325,24.7708319 25.6250006,24.4375019 25.5,24.0625 C25.4166663,23.6874981 25.3333338,23.2916687 25.25,22.875 C25.1666663,22.4583312 25.125,22.0208356 25.125,21.5625 C25.0833331,21.1041644 25.0625,20.5833363 25.0625,20 L25.0625,16.4375 C25.1041669,15.8958306 25.1458331,15.4166687 25.1875,15 Z M37,13.3125 C36.666665,13.0208319 36.3125019,12.7916675 35.9375,12.625 C35.5624981,12.4583325 35.1666688,12.375 34.75,12.375 C34.3333313,12.375 33.9375019,12.4583325 33.5625,12.625 C33.1874981,12.7916675 32.833335,13.0208319 32.5,13.3125 C32.166665,13.645835 31.9375006,13.9999981 31.8125,14.375 C31.6458325,14.7500019 31.5625,15.1458313 31.5625,15.5625 L31.5625,22.1875 C31.5625,22.6458356 31.6458325,23.0624981 31.8125,23.4375 C31.9375006,23.8125019 32.166665,24.1458319 32.5,24.4375 C32.833335,24.770835 33.1874981,24.9999994 33.5625,25.125 C33.9375019,25.2916675 34.3333313,25.375 34.75,25.375 C35.1666688,25.375 35.5624981,25.2916675 35.9375,25.125 C36.3125019,24.9999994 36.666665,24.770835 37,24.4375 C37.2916681,24.1458319 37.5208325,23.8125019 37.6875,23.4375 C37.8541675,23.0624981 37.9375,22.6458356 37.9375,22.1875 L37.9375,15.4375 C37.9375,15.0208313 37.8541675,14.645835 37.6875,14.3125 C37.5208325,13.979165 37.2916681,13.645835 37,13.3125 Z M37,31.1875 C36.666665,30.854165 36.3125019,30.6250006 35.9375,30.5 C35.5624981,30.3333325 35.1666688,30.25 34.75,30.25 C34.3333313,30.25 33.9375019,30.3333325 33.5625,30.5 C33.1874981,30.6250006 32.833335,30.854165 32.5,31.1875 C32.166665,31.4791681 31.9375006,31.8124981 31.8125,32.1875 C31.6458325,32.5625019 31.5625,32.9791644 31.5625,33.4375 L31.5625,42.3125 C31.5625,42.7708356 31.6458325,43.1874981 31.8125,43.5625 C31.9375006,43.9375019 32.166665,44.2708319 32.5,44.5625 C32.833335,44.895835 33.1874981,45.1458325 33.5625,45.3125 C33.9375019,45.4375006 34.3333313,45.5 34.75,45.5 C35.1666688,45.5 35.5624981,45.4375006 35.9375,45.3125 C36.3125019,45.1458325 36.666665,44.895835 37,44.5625 C37.2916681,44.2708319 37.5208325,43.9375019 37.6875,43.5625 C37.8541675,43.1874981 37.9375,42.7708356 37.9375,42.3125 L37.9375,33.4375 C37.9375,32.9374975 37.8541675,32.520835 37.6875,32.1875 C37.5208325,31.8124981 37.2916681,31.4791681 37,31.1875 Z" id="28"></path>
            <path d="M53.7861328,30.4228516 C53.9160156,32.125 55.3583984,33.2324219 57.4501953,33.2324219 C59.7060547,33.2324219 61.1347656,32.0771484 61.1347656,30.265625 C61.1347656,28.8164062 60.3144531,28.0234375 58.2705078,27.5107422 L57.2382812,27.2373047 C55.8779297,26.8886719 55.3378906,26.4443359 55.3378906,25.671875 C55.3378906,24.6738281 56.2060547,24.0175781 57.5185547,24.0175781 C58.7490234,24.0175781 59.5830078,24.6191406 59.7539062,25.6308594 L60.9912109,25.6308594 C60.8886719,24.0380859 59.4667969,22.9033203 57.5595703,22.9033203 C55.4746094,22.9033203 54.0732422,24.0380859 54.0732422,25.7128906 C54.0732422,27.1142578 54.8457031,27.9208984 56.6298828,28.3720703 L57.8945312,28.7001953 C59.2548828,29.0419922 59.8701172,29.5751953 59.8701172,30.4160156 C59.8701172,31.3935547 58.8925781,32.1113281 57.5664062,32.1113281 C56.1650391,32.1113281 55.1806641,31.4550781 55.0302734,30.4228516 L53.7861328,30.4228516 Z M63.0966797,33 L64.2724609,33 L64.2724609,28.6386719 C64.2724609,27.3945312 65.0654297,26.5605469 66.3847656,26.5605469 C67.5810547,26.5605469 68.1552734,27.2099609 68.1552734,28.515625 L68.1552734,33 L69.3310547,33 L69.3310547,28.2285156 C69.3310547,26.4990234 68.3945312,25.5009766 66.7197266,25.5009766 C65.5917969,25.5009766 64.7509766,25.9794922 64.3818359,26.7929688 L64.2724609,26.7929688 L64.2724609,22.7050781 L63.0966797,22.7050781 L63.0966797,33 Z M73.7470703,32.0976562 C74.9570312,32.0976562 75.8525391,31.3046875 75.8525391,30.2519531 L75.8525391,29.5751953 L73.8701172,29.7050781 C72.7490234,29.7802734 72.2568359,30.1699219 72.2568359,30.9082031 C72.2568359,31.6601562 72.8925781,32.0976562 73.7470703,32.0976562 Z M73.5283203,33.1298828 C72.0996094,33.1298828 71.0400391,32.2822266 71.0400391,30.9355469 C71.0400391,29.6162109 72.0107422,28.8574219 73.7265625,28.7548828 L75.8525391,28.625 L75.8525391,27.9550781 C75.8525391,27.0458984 75.2851562,26.546875 74.1845703,26.546875 C73.3027344,26.546875 72.6875,26.8818359 72.5234375,27.4628906 L71.3339844,27.4628906 C71.4912109,26.2802734 72.6533203,25.5009766 74.2255859,25.5009766 C76.0234375,25.5009766 77.0283203,26.4238281 77.0283203,27.9550781 L77.0283203,33 L75.9072266,33 L75.9072266,31.9130859 L75.7978516,31.9130859 C75.3193359,32.6992188 74.5126953,33.1298828 73.5283203,33.1298828 Z M79.2021484,33 L80.3779297,33 L80.3779297,28.6386719 C80.3779297,27.3466797 81.1572266,26.5605469 82.4492188,26.5605469 C83.625,26.5605469 84.1855469,27.1894531 84.1855469,28.515625 L84.1855469,33 L85.3613281,33 L85.3613281,28.2285156 C85.3613281,26.4785156 84.4384766,25.5009766 82.7841797,25.5009766 C81.65625,25.5009766 80.8017578,25.9794922 80.4326172,26.7929688 L80.3232422,26.7929688 L80.3232422,25.6308594 L79.2021484,25.6308594 L79.2021484,33 Z M92.6757812,29.2060547 C92.6757812,27.5996094 91.8486328,26.5605469 90.4882812,26.5605469 C89.1210938,26.5605469 88.3554688,27.5996094 88.3554688,29.2060547 C88.3554688,30.8125 89.1210938,31.8515625 90.4882812,31.8515625 C91.8554688,31.8515625 92.6757812,30.8125 92.6757812,29.2060547 Z M90.5429688,35.8300781 C88.765625,35.8300781 87.6308594,35.0302734 87.453125,33.8134766 L88.6972656,33.8134766 C88.8271484,34.4150391 89.4833984,34.8046875 90.5429688,34.8046875 C91.8623047,34.8046875 92.6484375,34.1552734 92.6484375,33.0683594 L92.6484375,31.6191406 L92.5390625,31.6191406 C92.0742188,32.4326172 91.2402344,32.890625 90.2285156,32.890625 C88.3212891,32.890625 87.1386719,31.4140625 87.1386719,29.2060547 C87.1386719,26.9980469 88.3349609,25.5009766 90.2285156,25.5009766 C91.2607422,25.5009766 92.1699219,26.0068359 92.59375,26.7998047 L92.703125,26.7998047 L92.703125,25.6308594 L93.8242188,25.6308594 L93.8242188,33.1298828 C93.8242188,34.7773438 92.5527344,35.8300781 90.5429688,35.8300781 Z M96.1074219,33 L97.2832031,33 L97.2832031,28.6386719 C97.2832031,27.3945312 98.0761719,26.5605469 99.3955078,26.5605469 C100.591797,26.5605469 101.166016,27.2099609 101.166016,28.515625 L101.166016,33 L102.341797,33 L102.341797,28.2285156 C102.341797,26.4990234 101.405273,25.5009766 99.7304688,25.5009766 C98.6025391,25.5009766 97.7617188,25.9794922 97.3925781,26.7929688 L97.2832031,26.7929688 L97.2832031,22.7050781 L96.1074219,22.7050781 L96.1074219,33 Z M106.757812,32.0976562 C107.967773,32.0976562 108.863281,31.3046875 108.863281,30.2519531 L108.863281,29.5751953 L106.880859,29.7050781 C105.759766,29.7802734 105.267578,30.1699219 105.267578,30.9082031 C105.267578,31.6601562 105.90332,32.0976562 106.757812,32.0976562 Z M106.539062,33.1298828 C105.110352,33.1298828 104.050781,32.2822266 104.050781,30.9355469 C104.050781,29.6162109 105.021484,28.8574219 106.737305,28.7548828 L108.863281,28.625 L108.863281,27.9550781 C108.863281,27.0458984 108.295898,26.546875 107.195312,26.546875 C106.313477,26.546875 105.698242,26.8818359 105.53418,27.4628906 L104.344727,27.4628906 C104.501953,26.2802734 105.664062,25.5009766 107.236328,25.5009766 C109.03418,25.5009766 110.039062,26.4238281 110.039062,27.9550781 L110.039062,33 L108.917969,33 L108.917969,31.9130859 L108.808594,31.9130859 C108.330078,32.6992188 107.523438,33.1298828 106.539062,33.1298828 Z M112.240234,33 L113.416016,33 L113.416016,25.6308594 L112.240234,25.6308594 L112.240234,33 Z M112.828125,24.1337891 C113.279297,24.1337891 113.648438,23.7646484 113.648438,23.3134766 C113.648438,22.8623047 113.279297,22.4931641 112.828125,22.4931641 C112.376953,22.4931641 112.007812,22.8623047 112.007812,23.3134766 C112.007812,23.7646484 112.376953,24.1337891 112.828125,24.1337891 Z" id="Shanghai"></path>
            <path d="M56.934,41.004 L58.264,41.004 L62.198,51 L60.952,51 L59.888,48.2 L55.296,48.2 L54.232,51 L53,51 L56.934,41.004 Z M55.66,47.234 L59.524,47.234 L57.634,42.236 L57.578,42.236 L55.66,47.234 Z M63.066,43.762 L63.066,48.242 C63.066,50.202 63.934,51.196 65.698,51.196 C66.678,51.196 67.462,50.748 68.05,49.88 L68.05,51 L69.17,51 L69.17,43.762 L68.05,43.762 L68.05,48.172 C67.966,48.788 67.728,49.292 67.336,49.684 C66.958,50.048 66.524,50.244 66.048,50.244 C65.39,50.244 64.914,50.062 64.62,49.726 C64.326,49.39 64.186,48.872 64.186,48.186 L64.186,43.762 L63.066,43.762 Z M73.888,43.566 C74.98,43.566 75.792,44.042 76.324,45.008 L76.324,43.762 L77.444,43.762 L77.444,50.496 C77.444,52.806 76.338,53.968 74.14,53.968 C73.16,53.968 72.404,53.772 71.9,53.38 C71.382,52.988 71.06,52.4 70.934,51.616 L72.054,51.616 C72.138,52.106 72.348,52.47 72.67,52.694 C72.992,52.932 73.482,53.058 74.14,53.058 C75.596,53.058 76.324,52.246 76.324,50.65 L76.324,49.376 C75.792,50.342 74.98,50.832 73.888,50.832 C72.88,50.832 72.082,50.482 71.494,49.796 C70.906,49.124 70.626,48.27 70.626,47.22 C70.626,46.156 70.906,45.302 71.494,44.63 C72.082,43.916 72.88,43.566 73.888,43.566 Z M74.056,44.49 C73.328,44.49 72.768,44.742 72.362,45.274 C71.97,45.75 71.774,46.408 71.774,47.22 C71.774,47.976 71.942,48.606 72.292,49.082 C72.684,49.614 73.258,49.894 74.042,49.894 C74.77,49.894 75.33,49.642 75.75,49.138 C76.142,48.648 76.338,48.004 76.338,47.22 C76.338,46.408 76.142,45.75 75.75,45.274 C75.33,44.742 74.77,44.49 74.056,44.49 Z M80.390125,51.0683594 C80.8823125,51.0683594 81.2787969,50.6650391 81.2787969,50.1796875 C81.2787969,49.6875 80.8823125,49.2910156 80.390125,49.2910156 C79.9047734,49.2910156 79.5014531,49.6875 79.5014531,50.1796875 C79.5014531,50.6650391 79.9047734,51.0683594 80.390125,51.0683594 Z M85.9272344,51 L87.1577031,51 L87.1577031,41.1357422 L85.9340703,41.1357422 L83.3090703,43.0224609 L83.3090703,44.3212891 L85.8178594,42.5029297 L85.9272344,42.5029297 L85.9272344,51 Z M90.0356328,43.9111328 L90.0356328,43.9179688 L91.2250859,43.9179688 L91.2250859,43.9111328 C91.2250859,42.7490234 92.0043828,41.9765625 93.1596562,41.9765625 C94.2465703,41.9765625 95.0873906,42.7353516 95.0873906,43.7197266 C95.0873906,44.5126953 94.7797734,45.0458984 93.5082891,46.4267578 L90.0971562,50.1523438 L90.0971562,51 L96.4819219,51 L96.4819219,49.8925781 L91.8608281,49.8925781 L91.8608281,49.7832031 L94.2328984,47.2333984 C95.8530156,45.4970703 96.3178594,44.6972656 96.3178594,43.671875 C96.3178594,42.1064453 94.9643437,40.9033203 93.1938359,40.9033203 C91.3618047,40.9033203 90.0356328,42.1611328 90.0356328,43.9111328 Z" id="Aug.12"></path>
            <path d="M59,12 C55.6862915,12 53,9.3137085 53,6 C53,2.6862915 55.6862915,0 59,0 C62.3137085,0 65,2.6862915 65,6 C65,9.3137085 62.3137085,12 59,12 Z M59,9 C60.6568542,9 62,7.65685425 62,6 C62,4.34314575 60.6568542,3 59,3 C57.3431458,3 56,4.34314575 56,6 C56,7.65685425 57.3431458,9 59,9 Z" id="Oval-2" fill-rule="nonzero"></path>
        </g>
    </g>
</svg>