<?xml version="1.0" encoding="UTF-8"?>
<svg width="228px" height="152px" viewBox="0 0 228 152" version="1.1" xmlns="http://www.w3.org/2000/svg" xmlns:xlink="http://www.w3.org/1999/xlink">
    <!-- Generator: Sketch 43.1 (39012) - http://www.bohemiancoding.com/sketch -->
    <title>Page 1</title>
    <desc>Created with Sketch.</desc>
    <defs></defs>
    <g id="发动态弹框" stroke="none" stroke-width="1" fill="none" fill-rule="evenodd">
        <g id="Page-1" transform="translate(-1.000000, -0.590164)" fill="#FFFFFF">
            <polygon id="Fill-1" points="1 77.6723115 1 133.16641 9.35918033 130.561 9.35918033 107.018049 20.6291803 103.507721 20.6291803 95.0957541 9.35918033 98.6098525 9.35918033 83.4750984 24.7880328 78.6677213 24.7880328 70.2595246"></polygon>
            <polygon id="Fill-2" points="43.0308033 121.358361 34.671623 123.96377 34.671623 68.5111475 43.0308033 65.9057377"></polygon>
            <path d="M63.6802787,115.630984 C59.9965082,116.780984 56.8632295,116.456721 54.2842131,114.665738 C51.7051967,112.874754 50.411918,110.16377 50.411918,106.532787 L50.411918,76.2670492 C50.411918,72.5795082 51.7127377,69.0390164 54.3068361,65.6455738 C56.9009344,62.2596721 60.0229016,59.9936066 63.6802787,58.8511475 C67.3640492,57.704918 70.4897869,58.0291803 73.0499508,59.8277049 C75.6176557,61.6262295 76.899623,64.3522951 76.899623,68.0096721 L76.899623,74.3365574 L68.2312623,77.04 L68.2312623,70.5359016 C68.2312623,69.2086885 67.7637213,68.2170492 66.8173279,67.5647541 C65.8784754,66.92 64.7435574,66.7993443 63.4125738,67.2140984 C62.0891311,67.625082 60.9617541,68.4508197 60.0304426,69.68 C59.1029016,70.9167213 58.6391311,72.1986885 58.6391311,73.5259016 L58.6391311,103.885902 C58.6391311,105.209344 59.1029016,106.193443 60.0304426,106.834426 C60.9617541,107.47541 62.0891311,107.588525 63.4125738,107.17377 C64.7435574,106.759016 65.8784754,105.94459 66.8173279,104.722951 C67.7637213,103.501311 68.2312623,102.226885 68.2312623,100.907213 L68.2312623,90.0067213 L63.5897869,91.4508197 L63.5897869,83.042623 L76.899623,78.895082 L76.899623,98.2791803 C76.899623,101.970492 75.6063443,105.499672 73.0122459,108.874262 C70.414377,112.252623 67.3074918,114.499836 63.6802787,115.630984" id="Fill-3"></path>
            <polygon id="Fill-5" points="92.5038033 82.4419836 92.5038033 105.939689 84.1483934 108.545098 84.1483934 53.0924754 92.5038033 50.4870656 92.5038033 74.0337869 102.586098 70.8891967 102.586098 47.3462459 110.941508 44.7446066 110.941508 100.193459 102.586098 102.798869 102.586098 79.3011639"></polygon>
            <polygon id="Fill-7" points="126.544934 48.290377 117.657885 51.057918 117.657885 42.6497213 143.745918 34.520541 143.745918 42.9325082 134.900344 45.6887377 134.900344 92.7293934 126.544934 95.3348033"></polygon>
            <polygon id="Fill-9" points="158.824492 85.273623 150.465311 87.8790328 150.465311 32.4264098 158.824492 29.821"></polygon>
            <polygon id="Fill-11" points="175.675574 24.5294918 186.76459 58.3696557 186.76459 21.0719508 195.12377 18.4703115 195.12377 73.9606393 186.14623 76.7583443 174.65 44.8071967 174.65 80.3403115 166.29459 82.9457213 166.29459 27.451623"></polygon>
            <path d="M215.722344,68.2494754 C212.038574,69.3994754 208.909066,69.0752131 206.326279,67.2842295 C203.751033,65.4932459 202.457754,62.7822623 202.457754,59.1512787 L202.457754,28.885541 C202.457754,25.198 203.754803,21.6575082 206.352672,18.2678361 C208.94677,14.8781639 212.068738,12.6120984 215.722344,11.4696393 C219.406115,10.3234098 222.535623,10.6476721 225.095787,12.4461967 C227.659721,14.2447213 228.945459,16.9707869 228.945459,20.6319344 L228.945459,26.9550492 L220.277098,29.6584918 L220.277098,23.1543934 C220.277098,21.8271803 219.805787,20.835541 218.863164,20.1832459 C217.920541,19.5384918 216.785623,19.4178361 215.45841,19.8325902 C214.131197,20.2435738 213.00382,21.0693115 212.076279,22.2984918 C211.148738,23.5352131 210.681197,24.8171803 210.681197,26.1443934 L210.681197,56.5043934 C210.681197,57.8278361 211.148738,58.8119344 212.076279,59.452918 C213.00382,60.0939016 214.131197,60.2070164 215.45841,59.7922623 C216.785623,59.3775082 217.920541,58.563082 218.863164,57.3414426 C219.805787,56.1235738 220.277098,54.8491475 220.277098,53.5257049 L220.277098,42.6252131 L215.635623,44.0693115 L215.635623,35.6611148 L228.945459,31.5135738 L228.945459,50.8976721 C228.945459,54.5889836 227.64841,58.1181639 225.054311,61.4927541 C222.456443,64.8711148 219.349557,67.1183279 215.722344,68.2494754" id="Fill-13"></path>
            <polygon id="Fill-16" points="120.436361 119.927836 0.998491803 152.410623 120.707836 111.319803"></polygon>
            <polygon id="Fill-19" points="110.361984 141.523705 228.943951 97.2882951 110.128213 132.960918"></polygon>
            <polygon id="Fill-21" points="110.689639 141.400033 101.470787 144.718066 120.100787 111.530197 128.754066 108.510033"></polygon>
            <path d="M108.699574,11.1231311 L115.95023,3.88755738 C116.64777,3.1862459 116.64777,2.05132787 115.95023,1.35755738 C115.256459,0.660016393 114.121541,0.660016393 113.42777,1.35755738 L105.792525,9.00411475 C106.392033,9.03427869 107.006623,9.42640984 107.44777,9.86001639 L108.699574,11.1231311 Z" id="Fill-23"></path>
            <path d="M106.335852,10.9628852 C105.638311,10.2691148 104.514705,10.2691148 103.824705,10.9628852 C103.813393,10.9779672 97.1848689,17.6064918 97.1848689,17.6064918 L97.1848689,2.55091803 C97.1848689,1.56681967 96.3855246,0.771245902 95.4089672,0.771245902 C94.4210984,0.771245902 93.6255246,1.56681967 93.6255246,2.55091803 L93.6255246,21.901082 C93.6255246,22.6174754 94.0515902,23.273541 94.7114262,23.5487869 C94.9376557,23.6392787 95.1789672,23.6845246 95.4089672,23.6845246 C95.8689672,23.6845246 96.3251967,23.496 96.672082,23.1566557 L105.084049,14.740918 L113.492246,23.1566557 C113.854213,23.5148525 114.302902,23.6845246 114.759131,23.6845246 C115.21159,23.6845246 115.660279,23.5148525 116.010934,23.1566557 C116.708475,22.4628852 116.708475,21.3317377 116.010934,20.6379672 L106.335852,10.9628852 Z" id="Fill-25"></path>
        </g>
    </g>
</svg>