<?xml version="1.0" encoding="UTF-8"?>
<svg width="156px" height="132px" viewBox="0 0 156 132" version="1.1" xmlns="http://www.w3.org/2000/svg" xmlns:xlink="http://www.w3.org/1999/xlink">
    <!-- Generator: Sketch 43.1 (39012) - http://www.bohemiancoding.com/sketch -->
    <title>Page 1</title>
    <desc>Created with Sketch.</desc>
    <defs></defs>
    <g id="发动态弹框" stroke="none" stroke-width="1" fill="none" fill-rule="evenodd">
        <g id="Page-1" transform="translate(-0.295082, -0.147541)" fill="#FFFFFF">
            <path d="M83.4636721,119.348311 L90.7143279,112.112738 C91.4080984,111.411426 91.4080984,110.280279 90.7143279,109.582738 C90.0167869,108.888967 88.8856393,108.888967 88.1918689,109.582738 L80.5528525,117.229295 C81.1561311,117.259459 81.7707213,117.65159 82.2118689,118.085197 L83.4636721,119.348311 Z" id="Fill-1"></path>
            <path d="M81.0999508,119.188066 C80.3986393,118.498066 79.2788033,118.498066 78.5888033,119.188066 C78.5737213,119.203148 71.9489672,125.835443 71.9489672,125.835443 L71.9489672,110.776098 C71.9489672,109.792 71.1458525,108.996426 70.1730656,108.996426 C69.1851967,108.996426 68.3858525,109.792 68.3858525,110.776098 L68.3858525,130.126262 C68.3858525,130.842656 68.811918,131.498721 69.4755246,131.773967 C69.7017541,131.864459 69.9392951,131.909705 70.1730656,131.909705 C70.6330656,131.909705 71.0892951,131.724951 71.4324098,131.381836 L79.844377,122.969869 L88.2525738,131.381836 C88.614541,131.740033 89.067,131.909705 89.519459,131.909705 C89.9756885,131.909705 90.424377,131.740033 90.7750328,131.381836 C91.4688033,130.688066 91.4688033,129.560689 90.7750328,128.863148 L81.0999508,119.188066 Z" id="Fill-3"></path>
            <polygon id="Fill-6" points="21.7441148 0.770868852 62.4654262 0.770868852 46.946082 39.2600492 77.3173934 38.7887377 12.0162459 120.057918 29.5754262 70.0725082 0.998868852 70.2610328"></polygon>
            <path d="M78.1469016,32.8347541 L80.066082,32.8347541 C80.4619836,32.8347541 80.8013279,32.9780328 81.0803443,33.2532787 C81.3631311,33.5360656 81.5026393,33.8716393 81.5026393,34.2713115 L81.5026393,43.7918033 C81.5026393,44.1914754 81.3631311,44.5308197 81.0803443,44.8098361 C80.8013279,45.0888525 80.4619836,45.2283607 80.066082,45.2283607 L78.1469016,45.2283607 L78.1469016,32.8347541 Z M78.1469016,16.1314754 L80.066082,16.1314754 C80.4619836,16.1314754 80.8013279,16.2709836 81.0803443,16.55 C81.3631311,16.8290164 81.5026393,17.1683607 81.5026393,17.5680328 L81.5026393,24.8714754 C81.5026393,25.2711475 81.3631311,25.6104918 81.0803443,25.8895082 C80.8013279,26.1685246 80.4619836,26.3080328 80.066082,26.3080328 L78.1469016,26.3080328 L78.1469016,16.1314754 Z M71.978377,51.6344262 L80.963459,51.6344262 C81.9965738,51.6344262 82.9769016,51.4383607 83.8931311,51.0386885 C84.8169016,50.6390164 85.6087049,50.0998361 86.2911639,49.417377 C86.9698525,48.742459 87.5052623,47.9431148 87.9087049,47.0231148 C88.3046066,46.1068852 88.5082131,45.1303279 88.5082131,44.0896721 L88.5082131,35.2290164 C88.5082131,34.3127869 88.3649344,33.4719672 88.0896885,32.7140984 C87.8106721,31.9562295 87.388377,31.3001639 86.8303443,30.7383607 C86.268541,30.1803279 85.5521475,29.7429508 84.673623,29.422459 C85.5106721,29.0227869 86.2346066,28.5062295 86.8303443,27.8652459 C87.9501803,26.6285246 88.5082131,25.0901639 88.5082131,23.2539344 L88.5082131,17.2701639 C88.5082131,16.2295082 88.3046066,15.2529508 87.9087049,14.3329508 C87.5052623,13.4167213 86.9698525,12.617377 86.2911639,11.9386885 C85.6087049,11.26 84.8169016,10.7208197 83.8931311,10.3211475 C82.9769016,9.9252459 81.9965738,9.72540984 80.963459,9.72540984 L71.978377,9.72540984 C71.4203443,9.72540984 71.1450984,10.0044262 71.1450984,10.562459 L71.1450984,50.797377 C71.1450984,51.3554098 71.4203443,51.6344262 71.978377,51.6344262 L71.978377,51.6344262 Z" id="Fill-9"></path>
            <path d="M102.754262,44.2107049 C102.754262,44.610377 102.614754,44.9497213 102.335738,45.2287377 C102.052951,45.5077541 101.717377,45.6472623 101.317705,45.6472623 L100.835082,45.6472623 C100.43918,45.6472623 100.099836,45.5077541 99.8208197,45.2287377 C99.5380328,44.9497213 99.4022951,44.610377 99.4022951,44.2107049 L99.4022951,17.1498852 C99.4022951,16.7502131 99.5380328,16.4070984 99.8208197,16.1318525 C100.099836,15.8528361 100.43918,15.7095574 100.835082,15.7095574 L101.317705,15.7095574 C101.717377,15.7095574 102.052951,15.8528361 102.335738,16.1318525 C102.614754,16.4070984 102.754262,16.7502131 102.754262,17.1498852 L102.754262,44.2107049 Z M107.546557,11.520541 C106.864098,10.8418525 106.064754,10.3026721 105.148525,9.903 C104.232295,9.50332787 103.251967,9.3072623 102.215082,9.3072623 L99.9414754,9.3072623 C98.9045902,9.3072623 97.9242623,9.50332787 97.0080328,9.903 C96.0880328,10.3026721 95.292459,10.8418525 94.6137705,11.520541 C93.9313115,12.1992295 93.3959016,12.9985738 92.992459,13.9148033 C92.5965574,14.8310328 92.3967213,15.8113607 92.3967213,16.8482459 L92.3967213,44.5123443 C92.3967213,45.5492295 92.5965574,46.5257869 92.992459,47.4420164 C93.3959016,48.3620164 93.9313115,49.1575902 94.6137705,49.8400492 C95.292459,50.5187377 96.0880328,51.0541475 97.0080328,51.4538197 C97.9242623,51.8534918 98.9045902,52.0533279 99.9414754,52.0533279 L102.215082,52.0533279 C103.251967,52.0533279 104.232295,51.8534918 105.148525,51.4538197 C106.064754,51.0541475 106.864098,50.5187377 107.546557,49.8400492 C108.221475,49.1575902 108.764426,48.3620164 109.160328,47.4420164 C109.56,46.5257869 109.759836,45.5492295 109.759836,44.5123443 L109.759836,16.8482459 C109.759836,15.8113607 109.56,14.8310328 109.160328,13.9148033 C108.764426,12.9985738 108.221475,12.1992295 107.546557,11.520541 L107.546557,11.520541 Z" id="Fill-11"></path>
            <path d="M121.551672,16.1310984 L123.470852,16.1310984 C123.866754,16.1310984 124.206098,16.2706066 124.485115,16.549623 C124.767902,16.8286393 124.90741,17.1679836 124.90741,17.5676557 L124.90741,43.7914262 C124.90741,44.1910984 124.767902,44.5304426 124.485115,44.809459 C124.206098,45.0884754 123.866754,45.2279836 123.470852,45.2279836 L121.551672,45.2279836 L121.551672,16.1310984 Z M115.386918,51.6378197 L124.36823,51.6378197 C125.405115,51.6378197 126.381672,51.4379836 127.297902,51.0383115 C128.221672,50.6386393 129.017246,50.099459 129.695934,49.4207705 C130.374623,48.742082 130.910033,47.9465082 131.313475,47.0227377 C131.709377,46.1065082 131.912984,45.1299508 131.912984,44.0930656 L131.912984,17.2697869 C131.912984,16.2291311 131.709377,15.2525738 131.313475,14.3325738 C130.910033,13.4163443 130.374623,12.617 129.695934,11.942082 C129.017246,11.259623 128.221672,10.7204426 127.297902,10.3207705 C126.381672,9.92486885 125.405115,9.72503279 124.36823,9.72503279 L115.386918,9.72503279 C114.828885,9.72503279 114.549869,10.0040492 114.549869,10.562082 L114.549869,50.797 C114.549869,51.3550328 114.828885,51.6378197 115.386918,51.6378197 L115.386918,51.6378197 Z" id="Fill-13"></path>
            <path d="M141.553,50.7962459 C141.553,51.3542787 141.828246,51.6370656 142.390049,51.6370656 L147.774311,51.6370656 C148.336115,51.6370656 148.615131,51.3542787 148.615131,50.7962459 L148.615131,35.348541 L155.500049,10.5613279 C155.583,10.3614918 155.560377,10.1729672 155.443492,9.99198361 C155.319066,9.81477049 155.141852,9.72427869 154.904311,9.72427869 L148.554803,9.72427869 C147.99677,9.72427869 147.676279,10.0032951 147.600869,10.5613279 L145.202836,25.6508361 L144.961525,25.6508361 L142.571033,10.5613279 C142.488082,10.0032951 142.16759,9.72427869 141.613328,9.72427869 L135.26382,9.72427869 C135.026279,9.72427869 134.845295,9.81477049 134.724639,9.99198361 C134.603984,10.1729672 134.581361,10.3614918 134.668082,10.5613279 L141.553,35.348541 L141.553,50.7962459 Z" id="Fill-15"></path>
            <path d="M14.4938361,72.7970656 C14.4938361,73.1967377 14.3543279,73.536082 14.0753115,73.8150984 C13.7925246,74.0941148 13.4569508,74.233623 13.0572787,74.233623 L11.1380984,74.233623 L11.1380984,64.0570656 L13.0572787,64.0570656 C13.4569508,64.0570656 13.7925246,64.1965738 14.0753115,64.4755902 C14.3543279,64.7546066 14.4938361,65.0939508 14.4938361,65.493623 L14.4938361,72.7970656 Z M14.4938361,91.7173934 C14.4938361,92.1170656 14.3543279,92.4564098 14.0753115,92.7354262 C13.7925246,93.0144426 13.4569508,93.1539508 13.0572787,93.1539508 L11.1380984,93.1539508 L11.1380984,80.7603443 L13.0572787,80.7603443 C13.4569508,80.7603443 13.7925246,80.8998525 14.0753115,81.1788689 C14.3543279,81.4578852 14.4938361,81.7972295 14.4938361,82.1969016 L14.4938361,91.7173934 Z M19.2861311,59.8642787 C18.6036721,59.1855902 17.8043279,58.6464098 16.8880984,58.2467377 C15.9718689,57.8508361 14.991541,57.6472295 13.9546557,57.6472295 L4.97334426,57.6472295 C4.41154098,57.6472295 4.13629508,57.9300164 4.13629508,58.4880492 L4.13629508,98.7191967 C4.13629508,99.281 4.41154098,99.5600164 4.97334426,99.5600164 L13.9546557,99.5600164 C14.991541,99.5600164 15.9718689,99.3601803 16.8880984,98.9605082 C17.8043279,98.5608361 18.6036721,98.0216557 19.2861311,97.3429672 C19.9610492,96.6680492 20.5002295,95.8687049 20.8999016,94.9487049 C21.2995738,94.0324754 21.4956393,93.055918 21.4956393,92.0152623 L21.4956393,83.1546066 C21.4956393,82.238377 21.3561311,81.3975574 21.0771148,80.6396885 C20.8018689,79.8818197 20.3833443,79.2257541 19.821541,78.6639508 C19.2635082,78.105918 18.5433443,77.668541 17.6685902,77.3480492 C18.5018689,76.948377 19.2220328,76.4280492 19.821541,75.7908361 C20.941377,74.5541148 21.4956393,73.0157541 21.4956393,71.1795246 L21.4956393,65.1919836 C21.4956393,64.1550984 21.2995738,63.178541 20.8999016,62.258541 C20.5002295,61.338541 19.9610492,60.5429672 19.2861311,59.8642787 L19.2861311,59.8642787 Z" id="Fill-18"></path>
            <path d="M41.9147377,57.6487377 L36.5870328,57.6487377 C36.0252295,57.6487377 35.7462131,57.9277541 35.7462131,58.4857869 L35.7462131,92.1336557 C35.7462131,92.5333279 35.6067049,92.8726721 35.3276885,93.155459 C35.0486721,93.4344754 34.7093279,93.5702131 34.3096557,93.5702131 L33.8270328,93.5702131 C33.4311311,93.5702131 33.0917869,93.4344754 32.8127705,93.155459 C32.5337541,92.8726721 32.3942459,92.5333279 32.3942459,92.1336557 L32.3942459,58.4857869 C32.3942459,57.9277541 32.111459,57.6487377 31.5571967,57.6487377 L26.2257213,57.6487377 C25.6676885,57.6487377 25.3849016,57.9277541 25.3849016,58.4857869 L25.3849016,92.4352951 C25.3849016,93.4721803 25.5885082,94.4487377 25.9844098,95.3687377 C26.384082,96.2887377 26.9232623,97.0843115 27.6019508,97.763 C28.2844098,98.4416885 29.0837541,98.9808689 29.9999836,99.380541 C30.9162131,99.7764426 31.896541,99.9800492 32.9296557,99.9800492 L35.2070328,99.9800492 C36.243918,99.9800492 37.2242459,99.7764426 38.1404754,99.380541 C39.0567049,98.9808689 39.8560492,98.4416885 40.5347377,97.763 C41.2134262,97.0843115 41.7526066,96.2887377 42.1522787,95.3687377 C42.5519508,94.4487377 42.7517869,93.4721803 42.7517869,92.4352951 L42.7517869,58.4857869 C42.7517869,57.9277541 42.469,57.6487377 41.9147377,57.6487377" id="Fill-20"></path>
            <path d="M53.7050656,57.6487377 L48.3773607,57.6487377 C47.8155574,57.6487377 47.5403115,57.9277541 47.5403115,58.4857869 L47.5403115,98.7207049 C47.5403115,99.2825082 47.8155574,99.5615246 48.3773607,99.5615246 L53.7050656,99.5615246 C54.2630984,99.5615246 54.5458852,99.2825082 54.5458852,98.7207049 L54.5458852,58.4857869 C54.5458852,57.9277541 54.2630984,57.6487377 53.7050656,57.6487377" id="Fill-22"></path>
            <path d="M74.6599508,92.5551967 L67.2358525,92.5551967 L67.2358525,58.4850328 C67.2358525,57.927 66.9568361,57.6479836 66.4025738,57.6479836 L61.0710984,57.6479836 C60.5130656,57.6479836 60.2340492,57.927 60.2340492,58.4850328 L60.2340492,98.7199508 C60.2340492,99.2817541 60.5130656,99.5607705 61.0710984,99.5607705 L66.4025738,99.5607705 L66.4591311,99.5607705 L66.5760164,99.5607705 L74.6599508,99.5607705 C75.2179836,99.5607705 75.5007705,99.2817541 75.5007705,98.7199508 L75.5007705,93.3922459 C75.5007705,92.8342131 75.2179836,92.5551967 74.6599508,92.5551967" id="Fill-24"></path>
            <path d="M90.0473279,91.7173934 C90.0473279,92.1132951 89.9078197,92.4564098 89.6325738,92.7354262 C89.3460164,93.0144426 89.0104426,93.1539508 88.6107705,93.1539508 L86.6915902,93.1539508 L86.6915902,64.0570656 L88.6107705,64.0570656 C89.0104426,64.0570656 89.3460164,64.1965738 89.6325738,64.4755902 C89.9078197,64.7546066 90.0473279,65.0939508 90.0473279,65.4898525 L90.0473279,91.7173934 Z M94.839623,59.8642787 C94.1609344,59.1855902 93.3615902,58.6464098 92.4453607,58.2467377 C91.5253607,57.8508361 90.5488033,57.6472295 89.5081475,57.6472295 L80.5306066,57.6472295 C79.9688033,57.6472295 79.6897869,57.9300164 79.6897869,58.4880492 L79.6897869,98.7191967 C79.6897869,99.281 79.9688033,99.5600164 80.5306066,99.5600164 L89.5081475,99.5600164 C90.5488033,99.5600164 91.5253607,99.3601803 92.4453607,98.9605082 C93.3615902,98.5608361 94.1609344,98.0216557 94.839623,97.3429672 C95.5183115,96.6642787 96.0574918,95.8687049 96.4533934,94.9487049 C96.8530656,94.0324754 97.0529016,93.0521475 97.0529016,92.0152623 L97.0529016,65.1919836 C97.0529016,64.1550984 96.8530656,63.178541 96.4533934,62.258541 C96.0574918,61.338541 95.5183115,60.5429672 94.839623,59.8642787 L94.839623,59.8642787 Z" id="Fill-26"></path>
            <path d="M108.00882,57.6487377 L102.681115,57.6487377 C102.119311,57.6487377 101.840295,57.9277541 101.840295,58.4857869 L101.840295,98.7207049 C101.840295,99.2825082 102.119311,99.5615246 102.681115,99.5615246 L108.00882,99.5615246 C108.566852,99.5615246 108.849639,99.2825082 108.849639,98.7207049 L108.849639,58.4857869 C108.849639,57.9277541 108.566852,57.6487377 108.00882,57.6487377" id="Fill-28"></path>
            <path d="M132.557361,57.6487377 L127.225885,57.6487377 C126.667852,57.6487377 126.388836,57.9277541 126.388836,58.4857869 L126.388836,77.6474262 L120.163754,58.4292295 C120.080803,58.225623 119.929984,58.0484098 119.715066,57.8862787 C119.492607,57.727918 119.266377,57.6487377 119.025066,57.6487377 L115.07359,57.6487377 C114.515557,57.6487377 114.236541,57.9277541 114.236541,58.4857869 L114.236541,98.7207049 C114.236541,99.2825082 114.515557,99.5615246 115.07359,99.5615246 L120.401295,99.5615246 C120.963098,99.5615246 121.238344,99.2825082 121.238344,98.7207049 L121.238344,78.9633279 L127.587852,98.7810328 C127.667033,98.9808689 127.814082,99.1618525 128.036541,99.3202131 C128.25523,99.4785738 128.48523,99.5615246 128.72277,99.5615246 L132.557361,99.5615246 C133.111623,99.5615246 133.39818,99.2825082 133.39818,98.7207049 L133.39818,58.4857869 C133.39818,57.9277541 133.111623,57.6487377 132.557361,57.6487377" id="Fill-30"></path>
            <path d="M149.322098,69.7425902 L154.770459,69.7539016 C155.411443,69.7237377 155.54718,69.7124262 155.54718,68.6793115 L155.54718,64.773082 C155.54718,63.7361967 155.347344,62.7558689 154.947672,61.8396393 C154.55177,60.9234098 154.01259,60.1240656 153.330131,59.445377 C152.655213,58.7666885 151.855869,58.2275082 150.939639,57.8278361 C150.019639,57.4281639 149.043082,57.2320984 148.002426,57.2320984 L145.72882,57.2320984 C144.688164,57.2320984 143.715377,57.4281639 142.799148,57.8278361 C141.875377,58.2275082 141.076033,58.7666885 140.401115,59.445377 C139.722426,60.1240656 139.183246,60.9234098 138.783574,61.8396393 C138.387672,62.7558689 138.184066,63.7361967 138.184066,64.773082 L138.184066,92.4334098 C138.184066,93.4702951 138.387672,94.450623 138.783574,95.3668525 C139.183246,96.2868525 139.722426,97.0824262 140.401115,97.7648852 C141.076033,98.4435738 141.875377,98.9789836 142.799148,99.3786557 C143.715377,99.7783279 144.688164,99.9781639 145.72882,99.9781639 L148.002426,99.9781639 C149.043082,99.9781639 150.019639,99.7783279 150.939639,99.3786557 C151.855869,98.9789836 152.655213,98.4435738 153.330131,97.7648852 C154.01259,97.0824262 154.55177,96.2868525 154.947672,95.3668525 C155.347344,94.450623 155.54718,93.4702951 155.54718,92.4334098 L155.54718,75.4888197 C155.54718,74.9307869 155.268164,74.6517705 154.710131,74.6517705 L146.867508,74.6517705 L146.867508,81.4801311 L148.545377,81.4801311 L148.545377,92.135541 C148.545377,92.5352131 148.402098,92.8745574 148.126852,93.1535738 C147.844066,93.4325902 147.504721,93.5720984 147.105049,93.5720984 L146.626197,93.5720984 C146.230295,93.5720984 145.88718,93.4325902 145.611934,93.1535738 C145.329148,92.8745574 145.189639,92.5352131 145.189639,92.135541 L145.189639,65.0747213 C145.189639,64.6750492 145.329148,64.3319344 145.611934,64.0566885 C145.88718,63.7739016 146.230295,63.6343934 146.626197,63.6343934 L147.105049,63.6343934 C147.504721,63.6343934 147.844066,63.7739016 148.126852,64.0566885 C148.402098,64.3319344 148.545377,64.6750492 148.545377,65.0747213 L148.545377,69.143082 C148.545377,69.7048852 148.782918,69.7425902 149.322098,69.7425902" id="Fill-32"></path>
        </g>
    </g>
</svg>