<?xml version="1.0" encoding="UTF-8"?>
<svg width="195px" height="164px" viewBox="0 0 195 164" version="1.1" xmlns="http://www.w3.org/2000/svg" xmlns:xlink="http://www.w3.org/1999/xlink">
    <!-- Generator: Sketch 43.1 (39012) - http://www.bohemiancoding.com/sketch -->
    <title>Page 1</title>
    <desc>Created with Sketch.</desc>
    <defs></defs>
    <g id="发动态弹框" stroke="none" stroke-width="1" fill="none" fill-rule="evenodd">
        <g id="Page-1" transform="translate(0.852459, -0.770492)" fill="#FFFFFF">
            <path d="M94.9624754,55.6545246 C99.6303443,55.6545246 104.094607,56.5028852 108.230836,58.0450164 L110.41018,58.0450164 C112.894934,58.0450164 114.953623,55.9863279 114.953623,53.5015738 L114.953623,49.7914098 C114.953623,44.8068197 110.855098,40.7045246 105.862967,40.7045246 L84.0619836,40.7045246 C79.0698525,40.7045246 74.9637869,44.8068197 74.9637869,49.7914098 L74.9637869,53.5015738 C74.9637869,55.9863279 77.0262459,58.0450164 79.511,58.0450164 L81.6941148,58.0450164 C85.8228033,56.5028852 90.2946066,55.6545246 94.9624754,55.6545246 M122.728377,64.6999344 C129.006246,71.4604262 132.844607,80.513377 132.844607,90.4599344 C132.844607,111.382393 115.881164,128.338295 94.9624754,128.338295 C74.0437869,128.338295 57.0803443,111.382393 57.0803443,90.4599344 C57.0803443,80.513377 60.9187049,71.4604262 67.1852623,64.6999344 C64.4931311,61.7400984 62.8491967,57.8037049 62.8491967,53.5015738 L62.8491967,49.7914098 C62.8491967,43.9546885 65.2321475,38.653377 69.0742787,34.8112459 C72.9126393,30.9653443 78.2177213,28.5823934 84.0619836,28.5823934 L105.862967,28.5823934 C111.70723,28.5823934 117.008541,30.9653443 120.854443,34.8112459 C124.692803,38.653377 127.075754,43.9546885 127.075754,49.7914098 L127.075754,53.5015738 C127.075754,57.8037049 125.424279,61.7400984 122.728377,64.6999344 Z M123.369738,68.7573607 C123.509246,68.116377 123.105803,67.7958852 122.170721,67.7958852 L111.315475,67.7958852 C110.444492,67.7958852 109.943016,68.116377 109.811049,68.7573607 L105.29023,96.8135902 L104.886787,96.8135902 L101.470721,68.7573607 C101.334984,68.116377 100.833508,67.7958852 99.9625246,67.7958852 L91.8258033,67.7958852 C90.9548197,67.7958852 90.4533443,68.116377 90.3176066,68.7573607 L86.901541,96.8135902 L86.5018689,96.8135902 L81.9772787,68.7573607 C81.8453115,68.116377 81.3438361,67.7958852 80.4728525,67.7958852 L69.621377,67.7958852 C68.6825246,67.7958852 68.2828525,68.116377 68.4148197,68.7573607 L80.2730164,114.968508 C80.4049836,115.613262 80.9403934,115.933754 81.8792459,115.933754 L90.7210492,115.933754 C91.6561311,115.933754 92.191541,115.613262 92.3272787,114.968508 L95.8451475,97.8467049 L95.9469508,97.8467049 L99.4610492,114.968508 C99.5930164,115.613262 100.128426,115.933754 101.067279,115.933754 L109.909082,115.933754 C110.847934,115.933754 111.383344,115.613262 111.515311,114.968508 L123.369738,68.7573607 Z" id="Combined-Shape"></path>
            <path d="M17.3819672,76.8047213 C17.3819672,76.3447213 17.1481967,75.9563607 16.6768852,75.6358689 C16.2093443,75.315377 15.64,75.1532459 14.9688525,75.1532459 L11.7563934,75.1532459 L11.7563934,88.9758689 L14.9688525,88.9758689 C15.64,88.9758689 16.2093443,88.8175082 16.6768852,88.4970164 C17.1481967,88.1765246 17.3819672,87.7843934 17.3819672,87.3243934 L17.3819672,76.8047213 Z M16.4770492,67.7932459 C18.2190164,67.7932459 19.8591803,68.0270164 21.397541,68.4832459 C22.9396721,68.9432459 24.2781967,69.5616066 25.4168852,70.3383279 C26.5555738,71.1188197 27.4604918,72.0350492 28.1316393,73.0907869 C28.7990164,74.1427541 29.1345902,75.2663607 29.1345902,76.4616066 L29.1345902,87.6675082 C29.1345902,88.8627541 28.7990164,89.9863607 28.1316393,91.0383279 C27.4604918,92.0940656 26.5555738,93.0102951 25.4168852,93.7907869 C24.2781967,94.5675082 22.9396721,95.1896393 21.397541,95.6458689 C19.8591803,96.1058689 18.2190164,96.3358689 16.4770492,96.3358689 L11.7563934,96.3358689 L11.7563934,114.969639 C11.7563934,115.614393 11.285082,115.931115 10.35,115.931115 L1.40639344,115.931115 C0.467540984,115.931115 0,115.614393 0,114.969639 L0,68.7584918 C0,68.1175082 0.467540984,67.7932459 1.40639344,67.7932459 L16.4770492,67.7932459 Z" id="Fill-3"></path>
            <path d="M52.0437213,76.3220984 C52.0437213,75.8658689 51.8099508,75.4737377 51.3386393,75.1532459 C50.8710984,74.8327541 50.3017541,74.6743934 49.6306066,74.6743934 L48.8274918,74.6743934 C48.1563443,74.6743934 47.587,74.8327541 47.119459,75.1532459 C46.651918,75.4737377 46.4181475,75.8658689 46.4181475,76.3220984 L46.4181475,107.406033 C46.4181475,107.866033 46.651918,108.254393 47.119459,108.574885 C47.587,108.895377 48.1563443,109.057508 48.8274918,109.057508 L49.6306066,109.057508 C50.3017541,109.057508 50.8710984,108.895377 51.3386393,108.574885 C51.8099508,108.254393 52.0437213,107.866033 52.0437213,107.406033 L52.0437213,76.3220984 Z M63.8001148,107.749148 C63.8001148,108.940623 63.4607705,110.06423 62.7933934,111.119967 C62.1222459,112.175705 61.2210984,113.091934 60.0824098,113.868656 C58.9437213,114.652918 57.6014262,115.271279 56.0630656,115.727508 C54.5209344,116.183738 52.8807705,116.413738 51.1388033,116.413738 L47.3230656,116.413738 C45.5810984,116.413738 43.9371639,116.183738 42.3988033,115.727508 C40.8566721,115.271279 39.5181475,114.652918 38.379459,113.868656 C37.2407705,113.091934 36.3358525,112.175705 35.6684754,111.119967 C34.9973279,110.06423 34.6617541,108.940623 34.6617541,107.749148 L34.6617541,75.9789836 C34.6617541,74.7875082 34.9973279,73.6639016 35.6684754,72.6081639 C36.3358525,71.5561967 37.2407705,70.6399672 38.379459,69.8594754 C39.5181475,69.0789836 40.8566721,68.460623 42.3988033,68.000623 C43.9371639,67.5443934 45.5810984,67.3143934 47.3230656,67.3143934 L51.1388033,67.3143934 C52.8807705,67.3143934 54.5209344,67.5443934 56.0630656,68.000623 C57.6014262,68.460623 58.9437213,69.0789836 60.0824098,69.8594754 C61.2210984,70.6399672 62.1222459,71.5561967 62.7933934,72.6081639 C63.4607705,73.6639016 63.8001148,74.7875082 63.8001148,75.9789836 L63.8001148,107.749148 Z" id="Fill-5"></path>
            <path d="M153.614738,108.850131 L153.614738,114.969639 C153.614738,115.614393 153.143426,115.931115 152.208344,115.931115 L130.407361,115.931115 C129.468508,115.931115 129.000967,115.614393 129.000967,114.969639 L129.000967,68.7584918 C129.000967,68.1175082 129.468508,67.7932459 130.407361,67.7932459 L152.208344,67.7932459 C153.143426,67.7932459 153.614738,68.1175082 153.614738,68.7584918 L153.614738,74.878 C153.614738,75.5227541 153.143426,75.8432459 152.208344,75.8432459 L140.75359,75.8432459 L140.75359,85.7445574 L150.703918,85.7445574 C151.639,85.7445574 152.110311,86.0650492 152.110311,86.7060328 L152.110311,92.825541 C152.110311,93.4702951 151.639,93.7907869 150.703918,93.7907869 L140.75359,93.7907869 L140.75359,107.888656 L152.208344,107.888656 C153.143426,107.888656 153.614738,108.209148 153.614738,108.850131" id="Fill-11"></path>
            <path d="M173.907148,88.9758689 L177.123377,88.9758689 C177.790754,88.9758689 178.363869,88.8175082 178.83141,88.4970164 C179.298951,88.1765246 179.532721,87.7843934 179.532721,87.3243934 L179.532721,76.8047213 C179.532721,76.3447213 179.298951,75.9563607 178.83141,75.6358689 C178.363869,75.315377 177.790754,75.1532459 177.123377,75.1532459 L173.907148,75.1532459 L173.907148,88.9758689 Z M193.298787,114.969639 C193.498623,115.614393 193.163049,115.931115 192.295836,115.931115 L183.152393,115.931115 C182.748951,115.931115 182.364361,115.840623 181.998623,115.659639 C181.629115,115.474885 181.372721,115.244885 181.240754,114.969639 L173.907148,98.123082 L173.907148,115.931115 L173.809115,115.244885 C173.673377,115.704885 173.236,115.931115 172.500754,115.931115 L163.560918,115.931115 C162.622066,115.931115 162.154525,115.614393 162.154525,114.969639 L162.154525,68.7584918 C162.154525,68.1175082 162.622066,67.7932459 163.560918,67.7932459 L178.631574,67.7932459 C180.373541,67.7932459 182.009934,68.0270164 183.555836,68.4832459 C185.094197,68.9432459 186.432721,69.5616066 187.57141,70.3383279 C188.710098,71.1188197 189.615016,72.0350492 190.286164,73.0907869 C190.953541,74.1427541 191.289115,75.2663607 191.289115,76.4616066 L191.289115,87.6675082 C191.289115,89.368 190.651902,90.8912787 189.381246,92.2411148 C188.11059,93.5947213 186.432721,94.6391475 184.35518,95.370623 L193.298787,114.969639 Z" id="Fill-13"></path>
            <path d="M100.226082,151.989836 L107.476738,144.754262 C108.174279,144.052951 108.174279,142.921803 107.476738,142.224262 C106.779197,141.530492 105.648049,141.530492 104.950508,142.224262 L97.3152623,149.87082 C97.918541,149.900984 98.5331311,150.293115 98.9705082,150.726721 L100.226082,151.989836 Z" id="Fill-16"></path>
            <path d="M97.8619836,151.82959 C97.1644426,151.13959 96.0408361,151.13959 95.3508361,151.82959 C95.3395246,151.844672 88.711,158.476967 88.711,158.476967 L88.711,143.417623 C88.711,142.433525 87.9116557,141.637951 86.9350984,141.637951 C85.9472295,141.637951 85.1478852,142.433525 85.1478852,143.417623 L85.1478852,162.767787 C85.1478852,163.48418 85.5739508,164.140246 86.2375574,164.415492 C86.4637869,164.505984 86.7050984,164.55123 86.9350984,164.55123 C87.3950984,164.55123 87.8513279,164.366475 88.1944426,164.023361 L96.6064098,155.611393 L105.018377,164.023361 C105.380344,164.381557 105.829033,164.55123 106.285262,164.55123 C106.737721,164.55123 107.18641,164.381557 107.537066,164.023361 C108.230836,163.32959 108.230836,162.202213 107.537066,161.504672 L97.8619836,151.82959 Z" id="Fill-18"></path>
            <path d="M44.1030656,24.7485574 L45.2530656,23.6362623 C45.6565082,23.9982295 46.0561803,24.1867541 46.437,24.1980656 C46.8253607,24.2131475 47.2099508,24.0623279 47.602082,23.756918 C48.0130656,23.4288852 48.2581475,23.1008525 48.3260164,22.7577377 C48.3976557,22.414623 48.3410984,22.1318361 48.1525738,21.8980656 C48.0356885,21.7472459 47.8886393,21.6529836 47.7189672,21.6152787 C47.5455246,21.5813443 47.3230656,21.6115082 47.0402787,21.7057705 C46.8517541,21.7774098 46.437,21.954623 45.7960164,22.2449508 C44.9702787,22.6182295 44.3255246,22.7916721 43.8542131,22.7615082 C43.1868361,22.7238033 42.6514262,22.4485574 42.2555246,21.947082 C41.9953607,21.6228197 41.8483115,21.249541 41.814377,20.8234754 C41.7729016,20.3936393 41.8633934,19.9713443 42.0933934,19.5490492 C42.319623,19.1305246 42.6815902,18.727082 43.1679836,18.3424918 C43.9635574,17.7090492 44.7025738,17.4111803 45.3850328,17.4451148 C46.0637213,17.4715082 46.644377,17.769377 47.127,18.3387213 L45.8902787,19.4057705 C45.5773279,19.1267541 45.2756885,18.9872459 44.9778197,18.9834754 C44.6837213,18.9834754 44.3556885,19.1267541 43.9937213,19.409541 C43.6242131,19.7074098 43.3942131,20.0128197 43.3037213,20.3333115 C43.2433934,20.5406885 43.2810984,20.7254426 43.4092951,20.8913443 C43.5299508,21.0421639 43.6958525,21.1175738 43.907,21.1251148 C44.1784754,21.1326557 44.6799508,20.9629836 45.4227377,20.6160984 C46.1617541,20.2692131 46.7424098,20.0542951 47.1647049,19.9751148 C47.5907705,19.8997049 47.9904426,19.9260984 48.3825738,20.0656066 C48.7633934,20.2013443 49.1140492,20.4728197 49.4307705,20.8762623 C49.7173279,21.2382295 49.8907705,21.6605246 49.9397869,22.139377 C49.9925738,22.6182295 49.8907705,23.0782295 49.641918,23.5231475 C49.3930656,23.9718361 48.9971639,24.4167541 48.4466721,24.8503607 C47.6435574,25.4838033 46.8781475,25.7854426 46.1579836,25.7590492 C45.4340492,25.7288852 44.7478197,25.3933115 44.1030656,24.7485574" id="Fill-21"></path>
            <path d="M58.2020656,10.4617869 L59.2012459,12.5355574 L60.0081311,12.1471967 C60.5887869,11.8681803 60.9507541,11.6419508 61.1128852,11.4760492 C61.2750164,11.306377 61.3730492,11.114082 61.4069836,10.8953934 C61.433377,10.6804754 61.4032131,10.4617869 61.2976393,10.2468689 C61.1694426,9.98293443 60.988459,9.79818033 60.750918,9.70391803 C60.5096066,9.60211475 60.2607541,9.59080328 60.0043607,9.66244262 C59.8120656,9.71145902 59.4463279,9.86604918 58.9146885,10.1186721 L58.2020656,10.4617869 Z M59.638623,17.2335902 L56.1396066,9.93391803 L58.5074754,8.80277049 C59.401082,8.36916393 60.0043607,8.12785246 60.313541,8.06752459 C60.781082,7.97703279 61.248623,8.04867213 61.7048525,8.27867213 C62.161082,8.51244262 62.5268197,8.91588525 62.8096066,9.49654098 C63.0207541,9.949 63.1225574,10.3637541 63.1074754,10.7483443 C63.0923934,11.1329344 62.9981311,11.4722787 62.8322295,11.766377 C62.6663279,12.0567049 62.4627213,12.2980164 62.2327213,12.4752295 C61.916,12.716541 61.4220656,12.9955574 60.7546885,13.3122787 L59.7894426,13.7722787 L61.1091148,16.5285082 L59.638623,17.2335902 Z" id="Fill-23"></path>
            <path d="M75.1911475,7.02460656 C75.3872131,7.9257541 75.7378689,8.55919672 76.2506557,8.93247541 C76.7634426,9.30198361 77.3365574,9.42263934 77.9737705,9.28313115 C78.6109836,9.14739344 79.0860656,8.80804918 79.3952459,8.26132787 C79.7081967,7.71460656 79.7647541,6.98313115 79.564918,6.06690164 C79.372623,5.15444262 79.0295082,4.521 78.5355738,4.16280328 C78.0416393,3.80083607 77.4647541,3.6914918 76.8086885,3.831 C76.1488525,3.9705082 75.6662295,4.31362295 75.3570492,4.85280328 C75.0516393,5.38821311 74.995082,6.11591803 75.1911475,7.02460656 M73.5547541,7.43181967 C73.385082,6.62870492 73.362459,5.92362295 73.4831148,5.32411475 C73.5736066,4.88296721 73.7432787,4.46821311 73.9883607,4.07985246 C74.2259016,3.6952623 74.5162295,3.38231148 74.8555738,3.14854098 C75.3042623,2.83559016 75.8509836,2.60559016 76.4957377,2.46985246 C77.6608197,2.21722951 78.6713115,2.37936066 79.5272131,2.95247541 C80.3868852,3.52936066 80.9486885,4.46067213 81.2277049,5.74640984 C81.5029508,7.02460656 81.3709836,8.10296721 80.8280328,8.97018033 C80.292623,9.84116393 79.4367213,10.4029672 78.2716393,10.6480492 C77.0990164,10.9044426 76.0847541,10.746082 75.2363934,10.1767377 C74.3842623,9.60739344 73.83,8.69493443 73.5547541,7.43181967" id="Fill-25"></path>
            <polygon id="Fill-27" points="94.1099672 8.91927869 94.2570164 2.19272131 91.8552131 2.14370492 91.8816066 0.771245902 98.3178361 0.910754098 98.2876721 2.27944262 95.8896393 2.23042623 95.7501311 8.95698361"></polygon>
            <path d="M110.745754,6.21281967 L111.918377,6.50691803 C112.680016,6.70298361 113.158869,6.78970492 113.362475,6.77462295 C113.569852,6.75954098 113.747066,6.68413115 113.894115,6.55593443 C114.041164,6.42396721 114.142967,6.24298361 114.203295,6.00544262 C114.274934,5.74527869 114.256082,5.5115082 114.154279,5.31167213 C114.056246,5.11560656 113.882803,4.96478689 113.637721,4.85544262 C113.509525,4.80642623 113.128705,4.69708197 112.487721,4.53495082 L111.251,4.222 L110.745754,6.21281967 Z M108.008377,10.3415082 L110.006738,2.49134426 L113.336082,3.33593443 C114.173131,3.55085246 114.765098,3.77331148 115.111984,4.01462295 C115.458869,4.24839344 115.69641,4.57642623 115.835918,4.99495082 C115.971656,5.41347541 115.982967,5.85462295 115.862311,6.31839344 C115.715262,6.91036066 115.417393,7.3515082 114.972475,7.64560656 C114.527557,7.94347541 113.954443,8.05281967 113.238049,7.97740984 C113.528377,8.26396721 113.758377,8.55806557 113.920508,8.85216393 C114.082639,9.1462623 114.278705,9.6477377 114.497393,10.3528197 L115.066738,12.1287213 L113.173951,11.6460984 L112.461328,9.6515082 C112.208705,8.93511475 112.027721,8.48642623 111.918377,8.28281967 C111.809033,8.0867541 111.677066,7.93970492 111.522475,7.83790164 C111.371656,7.73609836 111.115262,7.63806557 110.749525,7.54757377 L110.429033,7.46462295 L109.595754,10.7411803 L108.008377,10.3415082 Z" id="Fill-30"></path>
            <polygon id="Fill-32" points="125.787377 16.5816721 128.871639 10.6016721 126.737541 9.50068852 127.363443 8.27904918 133.083279 11.2388852 132.453607 12.4492131 130.323279 11.352 127.239016 17.3282295"></polygon>
            <path d="M139.068557,21.7513934 L140.380689,22.660082 C140.105443,23.1313934 140.003639,23.557459 140.067738,23.9382787 C140.124295,24.3153279 140.346754,24.6659836 140.723803,24.9902459 C141.127246,25.3295902 141.504295,25.5030328 141.84741,25.5030328 C142.198066,25.5068033 142.46577,25.389918 142.658066,25.167459 C142.782492,25.0204098 142.84659,24.8582787 142.84659,24.6848361 C142.84659,24.507623 142.774951,24.2927049 142.627902,24.0363115 C142.522328,23.8628689 142.265934,23.4895902 141.854951,22.9240164 C141.327082,22.1887705 141.032984,21.5854918 140.965115,21.1179508 C140.874623,20.4543443 141.032984,19.8812295 141.451508,19.3910656 C141.715443,19.0781148 142.054787,18.8594262 142.462,18.735 C142.876754,18.6105738 143.310361,18.6218852 143.76659,18.7651639 C144.22659,18.9046721 144.690361,19.1761475 145.161672,19.5795902 C145.942164,20.2356557 146.379541,20.8992623 146.485115,21.5741803 C146.586918,22.2453279 146.405934,22.8712295 145.945934,23.4556557 L144.652656,22.4527049 C144.867574,22.0907377 144.950525,21.7664754 144.890197,21.479918 C144.833639,21.1933607 144.633803,20.8954918 144.279377,20.6013934 C143.913639,20.2922131 143.570525,20.1263115 143.234951,20.1036885 C143.023803,20.0848361 142.850361,20.1564754 142.718393,20.3186066 C142.590197,20.4618852 142.548721,20.6428689 142.586426,20.8502459 C142.627902,21.1141803 142.895607,21.5779508 143.37823,22.2340164 C143.860852,22.890082 144.185115,23.4217213 144.347246,23.817623 C144.509377,24.2172951 144.558393,24.6207377 144.498066,25.0279508 C144.437738,25.4313934 144.241672,25.8272951 143.909869,26.2194262 C143.612,26.570082 143.23118,26.8227049 142.77118,26.9659836 C142.31118,27.1054918 141.839869,27.0979508 141.353475,26.9433607 C140.870852,26.792541 140.358066,26.4871311 139.818885,26.0346721 C139.038393,25.3672951 138.593475,24.6810656 138.480361,23.9646721 C138.363475,23.2482787 138.563311,22.5130328 139.068557,21.7513934" id="Fill-34"></path>
            <polygon id="Fill-36" points="32.7233443 51.3776557 35.2495738 47.0679836 40.226623 46.7097869 36.9085902 42.9732295 38.1038361 38.1281475 33.5302295 40.1265082 29.2884262 37.4909344 29.7785902 42.4604426 25.966623 45.6804426 30.8380984 46.7550328"></polygon>
            <polygon id="Fill-38" points="150.590049 45.9907541 155.536934 46.6694426 157.780377 51.1261639 159.955951 46.6317377 164.891525 45.8776393 161.286934 42.4200984 162.09759 37.4920656 157.693656 39.8523934 153.259557 37.5637049 154.134311 42.4766557"></polygon>
        </g>
    </g>
</svg>