<?xml version="1.0" encoding="UTF-8"?>
<svg width="98px" height="83px" viewBox="0 0 98 83" version="1.1" xmlns="http://www.w3.org/2000/svg" xmlns:xlink="http://www.w3.org/1999/xlink">
    <!-- Generator: Sketch 46.2 (44496) - http://www.bohemiancoding.com/sketch -->
    <title>空气</title>
    <desc>Created with Sketch.</desc>
    <defs></defs>
    <g id="Page-1" stroke="none" stroke-width="1" fill="none" fill-rule="evenodd">
        <g id="空气" transform="translate(0.000000, -2.000000)" fill="#FFFFFF">
            <path d="M5.78125,8.046875 L5.78125,17.328125 C6.00000109,17.1093739 6.24999859,16.9062509 6.53125,16.71875 C6.81250141,16.5312491 7.14062313,16.3593758 7.515625,16.203125 C7.85937672,16.0468742 8.21874813,15.9375003 8.59375,15.875 C9.00000203,15.7812495 9.42187281,15.734375 9.859375,15.734375 C10.6718791,15.734375 11.4218716,15.8593738 12.109375,16.109375 C12.7968784,16.3593762 13.3906225,16.7499973 13.890625,17.28125 C14.4218777,17.7812525 14.8124987,18.4062462 15.0625,19.15625 C15.3437514,19.9375039 15.484375,20.8124952 15.484375,21.78125 L15.484375,30.640625 C15.484375,31.234378 15.4375005,31.7812475 15.34375,32.28125 C15.2187494,32.7812525 15.0625009,33.2656227 14.875,33.734375 C14.6874991,34.1718772 14.4531264,34.5781231 14.171875,34.953125 C13.8906236,35.359377 13.5937516,35.7187484 13.28125,36.03125 C12.9374983,36.3437516 12.5781269,36.6249988 12.203125,36.875 C11.796873,37.1250012 11.3750022,37.3281242 10.9375,37.484375 C10.4999978,37.6718759 10.0468773,37.7968747 9.578125,37.859375 C9.14062281,37.9531255 8.6718775,38 8.171875,38 C7.70312266,38 7.23437734,37.9531255 6.765625,37.859375 C6.29687266,37.7968747 5.84375219,37.6718759 5.40625,37.484375 C4.96874781,37.3281242 4.56250188,37.1250012 4.1875,36.875 C3.78124797,36.6249988 3.42187656,36.3437516 3.109375,36.03125 C2.76562328,35.7187484 2.45312641,35.359377 2.171875,34.953125 C1.92187375,34.5781231 1.68750109,34.1718772 1.46875,33.734375 C1.28124906,33.2656227 1.14062547,32.7812525 1.046875,32.28125 C0.921874375,31.7812475 0.859375,31.234378 0.859375,30.640625 L0.859375,29.1875 L5.78125,29.1875 L5.78125,30.453125 C5.78125,30.859377 5.84374937,31.2343733 5.96875,31.578125 C6.09375063,31.8906266 6.26562391,32.1718738 6.484375,32.421875 C6.70312609,32.6406261 6.96874844,32.8124994 7.28125,32.9375 C7.56250141,33.0312505 7.89062313,33.078125 8.265625,33.078125 C8.64062687,33.078125 8.96874859,33.0312505 9.25,32.9375 C9.53125141,32.8124994 9.76562406,32.6406261 9.953125,32.421875 C10.1718761,32.2031239 10.3281245,31.9375016 10.421875,31.625 C10.5156255,31.3124984 10.5625,30.953127 10.5625,30.546875 L10.5625,22.53125 C10.5625,22.1874983 10.5156255,21.8750014 10.421875,21.59375 C10.2968744,21.3124986 10.1250011,21.0468762 9.90625,20.796875 C9.71874906,20.5781239 9.48437641,20.4062506 9.203125,20.28125 C8.92187359,20.1562494 8.60937672,20.09375 8.265625,20.09375 C8.07812406,20.09375 7.89062594,20.1093748 7.703125,20.140625 C7.51562406,20.1718752 7.35937563,20.2187497 7.234375,20.28125 C7.07812422,20.3750005 6.93750063,20.4531247 6.8125,20.515625 C6.68749937,20.6093755 6.57812547,20.7031245 6.484375,20.796875 C6.39062453,20.8906255 6.31250031,20.9999994 6.25,21.125 C6.18749969,21.2187505 6.12500031,21.3281244 6.0625,21.453125 C5.99999969,21.5468755 5.95312516,21.6406245 5.921875,21.734375 C5.85937469,21.8281255 5.81250016,21.9062497 5.78125,21.96875 L1.421875,21.96875 L1.421875,3.453125 L15.484375,3.453125 L15.484375,8.046875 L5.78125,8.046875 Z M26.78125,17.9375 C26.8750005,17.8749997 26.9843744,17.8281252 27.109375,17.796875 C27.2343756,17.7343747 27.3749992,17.6875002 27.53125,17.65625 C27.7187509,17.5937497 27.9218739,17.5625 28.140625,17.5625 C28.3593761,17.5312498 28.6093736,17.515625 28.890625,17.515625 C29.296877,17.515625 29.703123,17.5624995 30.109375,17.65625 C30.515627,17.7812506 30.9062481,17.9374991 31.28125,18.125 C31.6250017,18.3437511 31.9531234,18.5781238 32.265625,18.828125 C32.5468764,19.1093764 32.7968739,19.4062484 33.015625,19.71875 L33.296875,20.28125 C33.3906255,20.4375008 33.4687497,20.6093741 33.53125,20.796875 C33.5937503,20.9531258 33.6562497,21.1562488 33.71875,21.40625 C33.7500002,21.6250011 33.7812498,21.8906234 33.8125,22.203125 C33.8750003,22.4843764 33.9218748,22.7968733 33.953125,23.140625 C33.9843752,23.5156269 34,23.9218728 34,24.359375 C34.0312502,24.7968772 34.046875,25.2968722 34.046875,25.859375 L34.046875,29.234375 C34.046875,29.7031273 34.0312502,30.1093733 34,30.453125 C34,30.8281269 33.9843752,31.1718734 33.953125,31.484375 C33.9218748,31.7656264 33.8750003,32.0312488 33.8125,32.28125 C33.7812498,32.5312512 33.7343753,32.7656239 33.671875,32.984375 C33.6406248,33.2031261 33.5781255,33.4062491 33.484375,33.59375 C33.4218747,33.7500008 33.3437505,33.9218741 33.25,34.109375 C33.1562495,34.2968759 33.0468756,34.4843741 32.921875,34.671875 C32.6093734,35.2031277 32.2343772,35.671873 31.796875,36.078125 C31.390623,36.484377 30.9218777,36.8437484 30.390625,37.15625 C29.8281222,37.4375014 29.250003,37.6406244 28.65625,37.765625 C28.062497,37.9218758 27.4218784,38 26.734375,38 C26.0468716,38 25.406253,37.9218758 24.8125,37.765625 C24.218747,37.6406244 23.6562527,37.4218766 23.125,37.109375 C22.5937473,36.8281236 22.1093772,36.484377 21.671875,36.078125 C21.265623,35.671873 20.9062516,35.2031277 20.59375,34.671875 C20.4374992,34.4843741 20.3125005,34.2968759 20.21875,34.109375 C20.1249995,33.9218741 20.0468753,33.7500008 19.984375,33.59375 C19.8906245,33.4062491 19.8281252,33.2031261 19.796875,32.984375 C19.7343747,32.7656239 19.6875002,32.5312512 19.65625,32.28125 C19.5937497,32.0312488 19.5468752,31.7656264 19.515625,31.484375 C19.515625,31.1718734 19.5000002,30.8281269 19.46875,30.453125 C19.4374998,30.1093733 19.421875,29.7031273 19.421875,29.234375 L19.421875,26.234375 C19.421875,25.7968728 19.4374998,25.4062517 19.46875,25.0625 C19.5000002,24.7187483 19.515625,24.4062514 19.515625,24.125 C19.5468752,23.8124984 19.5781248,23.5312512 19.609375,23.28125 C19.6406252,23.0312488 19.6874997,22.7968761 19.75,22.578125 C19.7812502,22.3593739 19.8281247,22.1562509 19.890625,21.96875 C19.9531253,21.7499989 20.0312495,21.5312511 20.125,21.3125 C20.1875003,21.1249991 20.2499997,20.9062512 20.3125,20.65625 C20.9687533,18.9374914 21.5468725,17.4375064 22.046875,16.15625 C22.5156273,14.8749936 22.9218733,13.7656297 23.265625,12.828125 C23.5468764,12.0781212 23.7968739,11.4218778 24.015625,10.859375 C24.2343761,10.2968722 24.4218742,9.81250203 24.578125,9.40625 C25.171878,7.74999172 25.5156245,6.79687625 25.609375,6.546875 C25.7031255,6.29687375 26.0937466,5.26563406 26.78125,3.453125 L32.265625,3.453125 C31.0156188,6.64064094 29.1562623,11.437468 26.6875,17.84375 L26.78125,17.9375 Z M28.421875,22.53125 C28.1718738,22.3124989 27.9062514,22.1406256 27.625,22.015625 C27.3437486,21.9218745 27.0468766,21.875 26.734375,21.875 C26.4218734,21.875 26.1250014,21.9218745 25.84375,22.015625 C25.5624986,22.1406256 25.2968762,22.3124989 25.046875,22.53125 C24.7968738,22.7500011 24.6093756,23.0156234 24.484375,23.328125 C24.3906245,23.6093764 24.34375,23.9374981 24.34375,24.3125 L24.34375,30.640625 C24.34375,31.0156269 24.3906245,31.3437486 24.484375,31.625 C24.6093756,31.9375016 24.7968738,32.2031239 25.046875,32.421875 C25.2968762,32.6406261 25.5624986,32.8124994 25.84375,32.9375 C26.1250014,33.0312505 26.4218734,33.078125 26.734375,33.078125 C27.0468766,33.078125 27.3437486,33.0312505 27.625,32.9375 C27.9062514,32.8124994 28.1718738,32.6406261 28.421875,32.421875 C28.6718762,32.2031239 28.8593744,31.9375016 28.984375,31.625 C29.0781255,31.3437486 29.125,31.0156269 29.125,30.640625 L29.125,24.3125 C29.1562502,24.2812498 29.171875,24.2500002 29.171875,24.21875 C29.1406248,23.9062484 29.0781255,23.6093764 28.984375,23.328125 C28.8593744,23.0156234 28.6718762,22.7500011 28.421875,22.53125 Z" id="56"></path>
            <rect id="Rectangle" x="1" y="48" width="23" height="2"></rect>
            <path d="M49.6699219,13 L48.6787109,10.1767578 L44.7548828,10.1767578 L43.7636719,13 L42.4716797,13 L46.1083984,3.13574219 L47.3251953,3.13574219 L50.9619141,13 L49.6699219,13 Z M46.6621094,4.72851562 L45.1171875,9.13085938 L48.3164062,9.13085938 L46.7714844,4.72851562 L46.6621094,4.72851562 Z M60.8535156,14.1142578 L59.4726562,14.1142578 L58.6044922,12.9316406 C58.078125,13.1298828 57.4765625,13.2324219 56.8408203,13.2324219 C54.03125,13.2324219 52.3085938,11.2705078 52.3085938,8.07128906 C52.3085938,4.88574219 54.0517578,2.90332031 56.8408203,2.90332031 C59.6162109,2.90332031 61.3525391,4.89257812 61.3525391,8.07128906 C61.3525391,10.0332031 60.7236328,11.5712891 59.6025391,12.3779297 L60.8535156,14.1142578 Z M56.8476562,12.0976562 C57.2099609,12.0976562 57.5585938,12.0498047 57.9003906,11.9472656 L56.5947266,10.1767578 L57.9892578,10.1767578 L58.8847656,11.3662109 C59.6572266,10.7509766 60.0878906,9.57519531 60.0878906,8.07128906 C60.0878906,5.59667969 58.8369141,4.03808594 56.8408203,4.03808594 C54.8310547,4.03808594 53.5732422,5.58984375 53.5732422,8.07128906 C53.5732422,10.5595703 54.8242188,12.0976562 56.8476562,12.0976562 Z M64.7158203,13 L64.7158203,3.13574219 L63.4853516,3.13574219 L63.4853516,13 L64.7158203,13 Z" id="AQI"></path>
            <path d="M44.212,29.702 L44.212,30.654 L48.482,30.654 L48.482,33.972 L43.036,33.972 L43.036,34.938 L54.978,34.938 L54.978,33.972 L49.504,33.972 L49.504,30.654 L53.802,30.654 L53.802,29.702 L44.212,29.702 Z M50.302,25.768 C51.772,26.44 53.116,27.266 54.32,28.232 L53.746,29.086 C52.458,28.022 51.128,27.182 49.77,26.566 L50.302,25.768 Z M47.376,25.866 L48.006,26.594 C46.914,27.574 45.556,28.4 43.932,29.058 L43.498,28.134 C45.066,27.56 46.354,26.804 47.376,25.866 Z M49.056,22.478 C49.238,22.912 49.42,23.402 49.588,23.948 L54.95,23.948 L54.95,26.762 L53.928,26.762 L53.928,24.886 L44.086,24.886 L44.086,26.748 L43.064,26.748 L43.064,23.948 L48.552,23.948 C48.37,23.472 48.174,23.038 47.964,22.646 L49.056,22.478 Z M59.584,24.83 C58.926,25.978 58.17,26.986 57.316,27.826 L56.672,27.042 C57.848,25.88 58.814,24.354 59.57,22.478 L60.592,22.702 C60.424,23.108 60.27,23.486 60.102,23.85 L68.264,23.85 L68.264,24.83 L59.584,24.83 Z M67.886,35.372 C68.208,35.372 68.502,35.176 68.768,34.784 C69.034,34.364 69.272,33.538 69.496,32.334 L68.656,31.928 C68.53,32.558 68.418,33.09 68.306,33.51 C68.152,34.014 67.984,34.266 67.802,34.266 C67.438,34.266 67.172,34 67.004,33.496 C66.808,32.992 66.71,31.844 66.71,30.024 L66.71,28.218 L57.876,28.218 L57.876,29.184 L65.8,29.184 L65.8,30.024 C65.8,32.18 65.968,33.608 66.304,34.308 C66.64,35.008 67.172,35.358 67.886,35.372 Z M59.416,26.062 L67.578,26.062 L67.578,27 L59.416,27 L59.416,26.062 Z M73.038,26.65 L73.038,27.882 C72.968,30.962 72.366,33.426 71.218,35.274 L70.518,34.532 C71.47,32.936 71.988,30.71 72.072,27.882 L72.072,23.5 C75.768,23.472 79.1,23.178 82.054,22.646 L82.558,23.556 C79.73,24.032 76.552,24.298 73.038,24.354 L73.038,25.726 L77.714,25.726 C77.784,25.306 77.84,24.872 77.882,24.452 L78.89,24.578 C78.848,24.97 78.792,25.362 78.736,25.726 L83.174,25.726 L83.174,26.65 L78.582,26.65 C78.498,27.126 78.4,27.56 78.288,27.98 L81.886,27.98 L81.886,32.74 L80.92,32.74 L80.92,28.904 L75.39,28.904 L75.39,32.796 L74.424,32.796 L74.424,27.98 L77.266,27.98 C77.378,27.532 77.476,27.098 77.56,26.65 L73.038,26.65 Z M78.96,32.418 C80.514,33.006 81.928,33.706 83.202,34.532 L82.642,35.386 C81.284,34.462 79.884,33.72 78.456,33.174 L78.96,32.418 Z M77.924,29.464 L78.904,29.534 C78.736,31.186 78.232,32.46 77.392,33.328 C76.524,34.196 75.194,34.896 73.416,35.4 L72.87,34.476 C74.522,34.056 75.74,33.482 76.524,32.726 C77.308,31.97 77.77,30.878 77.924,29.464 Z M86.142,28.428 L95.886,28.428 L95.886,31.998 L91.49,31.998 L91.49,32.782 L96.236,32.782 L96.236,33.454 L91.49,33.454 L91.49,34.28 L97.258,34.28 L97.258,35.064 L84.742,35.064 L84.742,34.28 L90.482,34.28 L90.482,33.454 L85.792,33.454 L85.792,32.782 L90.482,32.782 L90.482,31.998 L86.142,31.998 L86.142,28.428 Z M94.92,31.368 L94.92,30.514 L91.49,30.514 L91.49,31.368 L94.92,31.368 Z M90.482,31.368 L90.482,30.514 L87.108,30.514 L87.108,31.368 L90.482,31.368 Z M87.108,29.926 L90.482,29.926 L90.482,29.058 L87.108,29.058 L87.108,29.926 Z M91.49,29.058 L91.49,29.926 L94.92,29.926 L94.92,29.058 L91.49,29.058 Z M86.45,22.786 L95.592,22.786 L95.592,26.244 L86.45,26.244 L86.45,22.786 Z M94.612,25.642 L94.612,24.816 L87.43,24.816 L87.43,25.642 L94.612,25.642 Z M87.43,24.214 L94.612,24.214 L94.612,23.402 L87.43,23.402 L87.43,24.214 Z M84.728,26.972 L84.728,27.728 L97.272,27.728 L97.272,26.972 L84.728,26.972 Z" id="空气质量"></path>
            <path d="M0.864,58.432 L4.368,58.432 C6.336,58.432 7.32,59.272 7.32,60.952 C7.32,62.644 6.324,63.496 4.356,63.496 L1.848,63.496 L1.848,67 L0.864,67 L0.864,58.432 Z M1.848,59.284 L1.848,62.644 L4.308,62.644 C5.004,62.644 5.508,62.5 5.844,62.224 C6.168,61.948 6.336,61.528 6.336,60.952 C6.336,60.376 6.168,59.956 5.832,59.704 C5.496,59.416 4.992,59.284 4.308,59.284 L1.848,59.284 Z M8.568,58.432 L8.568,67 L9.552,67 L9.552,60.184 L9.588,60.184 L12.552,67 L13.44,67 L16.404,60.184 L16.44,60.184 L16.44,67 L17.424,67 L17.424,58.432 L16.2,58.432 L13.02,65.74 L12.984,65.74 L9.792,58.432 L8.568,58.432 Z M22.008,58.264 C21.144,58.264 20.436,58.552 19.908,59.128 C19.38,59.692 19.104,60.46 19.104,61.42 L20.088,61.42 C20.1,60.664 20.28,60.088 20.616,59.704 C20.928,59.296 21.384,59.104 21.972,59.104 C22.524,59.104 22.968,59.248 23.28,59.536 C23.592,59.824 23.748,60.22 23.748,60.748 C23.748,61.3 23.52,61.816 23.088,62.284 C22.86,62.524 22.416,62.872 21.744,63.352 C20.832,63.976 20.22,64.492 19.884,64.876 C19.308,65.512 19.032,66.22 19.032,67 L24.744,67 L24.744,66.124 L20.244,66.124 C20.4,65.548 21.024,64.888 22.116,64.156 C23.004,63.556 23.592,63.088 23.892,62.776 C24.444,62.176 24.732,61.504 24.732,60.76 C24.732,60.016 24.468,59.404 23.964,58.948 C23.448,58.492 22.8,58.264 22.008,58.264 Z M27.072,65.572 C26.856,65.572 26.688,65.644 26.556,65.788 C26.412,65.932 26.34,66.1 26.34,66.316 C26.34,66.52 26.412,66.688 26.556,66.832 C26.688,66.976 26.856,67.048 27.072,67.048 C27.264,67.048 27.444,66.976 27.588,66.832 C27.732,66.688 27.804,66.52 27.804,66.316 C27.804,66.1 27.732,65.932 27.588,65.788 C27.444,65.644 27.264,65.572 27.072,65.572 Z M29.916,58.432 L29.46,63.16 L30.396,63.16 C30.564,62.824 30.828,62.56 31.164,62.392 C31.488,62.212 31.848,62.128 32.256,62.128 C32.88,62.128 33.372,62.308 33.72,62.692 C34.08,63.064 34.272,63.592 34.272,64.276 C34.272,64.876 34.068,65.368 33.684,65.752 C33.288,66.136 32.796,66.328 32.196,66.328 C31.668,66.328 31.224,66.196 30.888,65.944 C30.504,65.656 30.288,65.236 30.24,64.696 L29.268,64.696 C29.328,65.476 29.652,66.1 30.252,66.556 C30.78,66.964 31.428,67.168 32.184,67.168 C33.024,67.168 33.744,66.904 34.32,66.388 C34.932,65.836 35.244,65.128 35.244,64.264 C35.244,63.34 34.98,62.62 34.476,62.092 C33.972,61.576 33.312,61.324 32.496,61.324 C32.1,61.324 31.74,61.384 31.404,61.528 C31.032,61.672 30.72,61.888 30.48,62.176 L30.432,62.176 L30.72,59.308 L34.896,59.308 L34.896,58.432 L29.916,58.432 Z M43.572,58.264 C42.708,58.264 42,58.552 41.472,59.128 C40.944,59.692 40.668,60.46 40.668,61.42 L41.652,61.42 C41.664,60.664 41.844,60.088 42.18,59.704 C42.492,59.296 42.948,59.104 43.536,59.104 C44.088,59.104 44.532,59.248 44.844,59.536 C45.156,59.824 45.312,60.22 45.312,60.748 C45.312,61.3 45.084,61.816 44.652,62.284 C44.424,62.524 43.98,62.872 43.308,63.352 C42.396,63.976 41.784,64.492 41.448,64.876 C40.872,65.512 40.596,66.22 40.596,67 L46.308,67 L46.308,66.124 L41.808,66.124 C41.964,65.548 42.588,64.888 43.68,64.156 C44.568,63.556 45.156,63.088 45.456,62.776 C46.008,62.176 46.296,61.504 46.296,60.76 C46.296,60.016 46.032,59.404 45.528,58.948 C45.012,58.492 44.364,58.264 43.572,58.264 Z M50.652,58.264 C51.672,58.264 52.44,58.708 52.968,59.62 C53.424,60.388 53.652,61.42 53.652,62.716 C53.652,64.012 53.424,65.044 52.968,65.812 C52.44,66.712 51.672,67.168 50.652,67.168 C49.62,67.168 48.852,66.712 48.336,65.812 C47.88,65.044 47.652,64.012 47.652,62.716 C47.652,61.42 47.88,60.388 48.336,59.62 C48.852,58.708 49.62,58.264 50.652,58.264 Z M50.652,59.104 C49.884,59.104 49.332,59.512 48.996,60.34 C48.756,60.916 48.636,61.708 48.636,62.716 C48.636,63.712 48.756,64.504 48.996,65.092 C49.332,65.908 49.884,66.328 50.652,66.328 C51.42,66.328 51.972,65.908 52.308,65.092 C52.548,64.504 52.68,63.712 52.68,62.716 C52.68,61.708 52.548,60.916 52.308,60.34 C51.972,59.512 51.42,59.104 50.652,59.104 Z" id="PM2.5-20"></path>
            <path d="M0.864,75.432 L4.368,75.432 C6.336,75.432 7.32,76.272 7.32,77.952 C7.32,79.644 6.324,80.496 4.356,80.496 L1.848,80.496 L1.848,84 L0.864,84 L0.864,75.432 Z M1.848,76.284 L1.848,79.644 L4.308,79.644 C5.004,79.644 5.508,79.5 5.844,79.224 C6.168,78.948 6.336,78.528 6.336,77.952 C6.336,77.376 6.168,76.956 5.832,76.704 C5.496,76.416 4.992,76.284 4.308,76.284 L1.848,76.284 Z M8.568,75.432 L8.568,84 L9.552,84 L9.552,77.184 L9.588,77.184 L12.552,84 L13.44,84 L16.404,77.184 L16.44,77.184 L16.44,84 L17.424,84 L17.424,75.432 L16.2,75.432 L13.02,82.74 L12.984,82.74 L9.792,75.432 L8.568,75.432 Z M21.048,75.432 C20.76,75.756 20.424,76.044 20.016,76.308 C19.608,76.548 19.2,76.716 18.816,76.824 L18.816,77.808 C19.62,77.568 20.292,77.184 20.832,76.632 L20.832,84 L21.816,84 L21.816,75.432 L21.048,75.432 Z M26.7,75.264 C27.72,75.264 28.488,75.708 29.016,76.62 C29.472,77.388 29.7,78.42 29.7,79.716 C29.7,81.012 29.472,82.044 29.016,82.812 C28.488,83.712 27.72,84.168 26.7,84.168 C25.668,84.168 24.9,83.712 24.384,82.812 C23.928,82.044 23.7,81.012 23.7,79.716 C23.7,78.42 23.928,77.388 24.384,76.62 C24.9,75.708 25.668,75.264 26.7,75.264 Z M26.7,76.104 C25.932,76.104 25.38,76.512 25.044,77.34 C24.804,77.916 24.684,78.708 24.684,79.716 C24.684,80.712 24.804,81.504 25.044,82.092 C25.38,82.908 25.932,83.328 26.7,83.328 C27.468,83.328 28.02,82.908 28.356,82.092 C28.596,81.504 28.728,80.712 28.728,79.716 C28.728,78.708 28.596,77.916 28.356,77.34 C28.02,76.512 27.468,76.104 26.7,76.104 Z M37.98,75.264 C37.164,75.264 36.504,75.492 36,75.96 C35.472,76.428 35.16,77.076 35.088,77.904 L36.06,77.904 C36.12,77.328 36.312,76.884 36.648,76.572 C36.972,76.26 37.416,76.116 37.992,76.116 C38.544,76.116 38.988,76.248 39.3,76.536 C39.588,76.8 39.744,77.172 39.744,77.652 C39.744,78.132 39.588,78.504 39.288,78.768 C38.988,79.02 38.556,79.152 37.98,79.152 L37.32,79.152 L37.32,79.92 L38.016,79.92 C38.616,79.92 39.072,80.052 39.408,80.34 C39.744,80.628 39.912,81.024 39.912,81.54 C39.912,82.044 39.732,82.464 39.396,82.8 C39.024,83.148 38.532,83.328 37.92,83.328 C37.38,83.328 36.936,83.172 36.576,82.884 C36.156,82.536 35.928,82.02 35.904,81.348 L34.908,81.348 C34.98,82.308 35.316,83.04 35.928,83.544 C36.444,83.952 37.104,84.168 37.92,84.168 C38.808,84.168 39.528,83.916 40.08,83.412 C40.62,82.92 40.896,82.284 40.896,81.504 C40.896,81 40.752,80.58 40.464,80.244 C40.2,79.908 39.816,79.668 39.312,79.512 C40.248,79.2 40.716,78.552 40.716,77.592 C40.716,76.872 40.464,76.308 39.972,75.888 C39.468,75.468 38.796,75.264 37.98,75.264 Z M42.756,75.432 L42.3,80.16 L43.236,80.16 C43.404,79.824 43.668,79.56 44.004,79.392 C44.328,79.212 44.688,79.128 45.096,79.128 C45.72,79.128 46.212,79.308 46.56,79.692 C46.92,80.064 47.112,80.592 47.112,81.276 C47.112,81.876 46.908,82.368 46.524,82.752 C46.128,83.136 45.636,83.328 45.036,83.328 C44.508,83.328 44.064,83.196 43.728,82.944 C43.344,82.656 43.128,82.236 43.08,81.696 L42.108,81.696 C42.168,82.476 42.492,83.1 43.092,83.556 C43.62,83.964 44.268,84.168 45.024,84.168 C45.864,84.168 46.584,83.904 47.16,83.388 C47.772,82.836 48.084,82.128 48.084,81.264 C48.084,80.34 47.82,79.62 47.316,79.092 C46.812,78.576 46.152,78.324 45.336,78.324 C44.94,78.324 44.58,78.384 44.244,78.528 C43.872,78.672 43.56,78.888 43.32,79.176 L43.272,79.176 L43.56,76.308 L47.736,76.308 L47.736,75.432 L42.756,75.432 Z" id="PM10-35"></path>
        </g>
    </g>
</svg>